%TF.GenerationSoftware,KiCad,Pcbnew,(5.1.6)-1*%
%TF.CreationDate,2020-05-26T20:54:03-04:00*%
%TF.ProjectId,ArduinoLife2-CPU,41726475-696e-46f4-9c69-6665322d4350,rev?*%
%TF.SameCoordinates,Original*%
%TF.FileFunction,Soldermask,Bot*%
%TF.FilePolarity,Negative*%
%FSLAX46Y46*%
G04 Gerber Fmt 4.6, Leading zero omitted, Abs format (unit mm)*
G04 Created by KiCad (PCBNEW (5.1.6)-1) date 2020-05-26 20:54:03*
%MOMM*%
%LPD*%
G01*
G04 APERTURE LIST*
%ADD10C,0.700000*%
%ADD11O,2.000000X1.000000*%
%ADD12O,1.700000X1.700000*%
%ADD13C,1.700000*%
%ADD14C,1.100000*%
%ADD15R,1.800000X1.800000*%
%ADD16O,1.800000X1.800000*%
%ADD17R,1.700000X1.700000*%
%ADD18C,2.100000*%
%ADD19R,1.150000X1.600000*%
%ADD20O,1.150000X1.600000*%
G04 APERTURE END LIST*
D10*
%TO.C,J6*%
X105750000Y-126750000D03*
X106650000Y-126750000D03*
X107550000Y-126750000D03*
X108450000Y-126750000D03*
X109350000Y-126750000D03*
X110250000Y-126750000D03*
X111150000Y-126750000D03*
X105300000Y-127530000D03*
X106200000Y-127530000D03*
X107100000Y-127530000D03*
X108000000Y-127530000D03*
X108900000Y-127530000D03*
X109800000Y-127530000D03*
X110700000Y-127530000D03*
D11*
X110600000Y-125710000D03*
X110600000Y-128570000D03*
X105800000Y-125710000D03*
X105800000Y-128570000D03*
%TD*%
D12*
%TO.C,R17*%
X100840000Y-121750000D03*
D13*
X111000000Y-121750000D03*
%TD*%
%TO.C,R18*%
X101000000Y-132750000D03*
D12*
X111160000Y-132750000D03*
%TD*%
D14*
%TO.C,Y1*%
X123750000Y-119750000D03*
X123750000Y-117250000D03*
%TD*%
D13*
%TO.C,R1*%
X141500000Y-99250000D03*
D12*
X141500000Y-109410000D03*
%TD*%
D15*
%TO.C,J5*%
X108750000Y-92500000D03*
D16*
X108750000Y-89960000D03*
X108750000Y-87420000D03*
%TD*%
D13*
%TO.C,C3*%
X137750000Y-114500000D03*
X137750000Y-109500000D03*
%TD*%
%TO.C,C1*%
X124250000Y-106750000D03*
X124250000Y-111750000D03*
%TD*%
%TO.C,C2*%
X137750000Y-117250000D03*
X137750000Y-122250000D03*
%TD*%
%TO.C,C4*%
X120000000Y-116250000D03*
X120000000Y-121250000D03*
%TD*%
%TO.C,C5*%
X118750000Y-124000000D03*
X123750000Y-124000000D03*
%TD*%
D17*
%TO.C,C6*%
X115750000Y-111500000D03*
D13*
X115750000Y-109000000D03*
%TD*%
%TO.C,R20*%
X120750000Y-106750000D03*
D12*
X120750000Y-96590000D03*
%TD*%
D18*
%TO.C,SW1*%
X100500000Y-76500000D03*
X105000000Y-76500000D03*
X100500000Y-83000000D03*
X105000000Y-83000000D03*
%TD*%
D17*
%TO.C,U1*%
X127250000Y-96750000D03*
D12*
X134870000Y-129770000D03*
X127250000Y-99290000D03*
X134870000Y-127230000D03*
X127250000Y-101830000D03*
X134870000Y-124690000D03*
X127250000Y-104370000D03*
X134870000Y-122150000D03*
X127250000Y-106910000D03*
X134870000Y-119610000D03*
X127250000Y-109450000D03*
X134870000Y-117070000D03*
X127250000Y-111990000D03*
X134870000Y-114530000D03*
X127250000Y-114530000D03*
X134870000Y-111990000D03*
X127250000Y-117070000D03*
X134870000Y-109450000D03*
X127250000Y-119610000D03*
X134870000Y-106910000D03*
X127250000Y-122150000D03*
X134870000Y-104370000D03*
X127250000Y-124690000D03*
X134870000Y-101830000D03*
X127250000Y-127230000D03*
X134870000Y-99290000D03*
X127250000Y-129770000D03*
X134870000Y-96750000D03*
%TD*%
D15*
%TO.C,J1*%
X121000000Y-77000000D03*
D16*
X123540000Y-77000000D03*
X126080000Y-77000000D03*
X128620000Y-77000000D03*
X131160000Y-77000000D03*
X133700000Y-77000000D03*
X136240000Y-77000000D03*
X138780000Y-77000000D03*
X141320000Y-77000000D03*
%TD*%
D15*
%TO.C,J2*%
X158500000Y-95500000D03*
D16*
X158500000Y-98040000D03*
X158500000Y-100580000D03*
X158500000Y-103120000D03*
X158500000Y-105660000D03*
X158500000Y-108200000D03*
X158500000Y-110740000D03*
X158500000Y-113280000D03*
%TD*%
D15*
%TO.C,J3*%
X100500000Y-115000000D03*
D16*
X100500000Y-112460000D03*
X100500000Y-109920000D03*
X100500000Y-107380000D03*
X100500000Y-104840000D03*
X100500000Y-102300000D03*
X100500000Y-99760000D03*
X100500000Y-97220000D03*
%TD*%
%TO.C,J4*%
X120720000Y-134500000D03*
X123260000Y-134500000D03*
X125800000Y-134500000D03*
X128340000Y-134500000D03*
X130880000Y-134500000D03*
X133420000Y-134500000D03*
X135960000Y-134500000D03*
D15*
X138500000Y-134500000D03*
%TD*%
D19*
%TO.C,Q1*%
X152500000Y-87500000D03*
D20*
X155040000Y-87500000D03*
X153770000Y-87500000D03*
%TD*%
D19*
%TO.C,Q2*%
X152500000Y-92500000D03*
D20*
X155040000Y-92500000D03*
X153770000Y-92500000D03*
%TD*%
%TO.C,Q3*%
X153770000Y-97500000D03*
X155040000Y-97500000D03*
D19*
X152500000Y-97500000D03*
%TD*%
D20*
%TO.C,Q4*%
X153770000Y-102500000D03*
X155040000Y-102500000D03*
D19*
X152500000Y-102500000D03*
%TD*%
%TO.C,Q5*%
X152500000Y-107500000D03*
D20*
X155040000Y-107500000D03*
X153770000Y-107500000D03*
%TD*%
D19*
%TO.C,Q6*%
X152500000Y-112500000D03*
D20*
X155040000Y-112500000D03*
X153770000Y-112500000D03*
%TD*%
%TO.C,Q7*%
X153770000Y-117500000D03*
X155040000Y-117500000D03*
D19*
X152500000Y-117500000D03*
%TD*%
D20*
%TO.C,Q8*%
X153770000Y-122500000D03*
X155040000Y-122500000D03*
D19*
X152500000Y-122500000D03*
%TD*%
D13*
%TO.C,R2*%
X145000000Y-109500000D03*
D12*
X145000000Y-119660000D03*
%TD*%
%TO.C,R3*%
X148500000Y-119660000D03*
D13*
X148500000Y-109500000D03*
%TD*%
D12*
%TO.C,R4*%
X139590000Y-125250000D03*
D13*
X149750000Y-125250000D03*
%TD*%
%TO.C,R5*%
X149750000Y-128750000D03*
D12*
X139590000Y-128750000D03*
%TD*%
D13*
%TO.C,R6*%
X152500000Y-132500000D03*
D12*
X142340000Y-132500000D03*
%TD*%
%TO.C,R7*%
X124910000Y-131000000D03*
D13*
X114750000Y-131000000D03*
%TD*%
D12*
%TO.C,R8*%
X124910000Y-127500000D03*
D13*
X114750000Y-127500000D03*
%TD*%
D12*
%TO.C,R9*%
X118500000Y-90160000D03*
D13*
X118500000Y-80000000D03*
%TD*%
%TO.C,R10*%
X122000000Y-80000000D03*
D12*
X122000000Y-90160000D03*
%TD*%
%TO.C,R11*%
X125500000Y-90160000D03*
D13*
X125500000Y-80000000D03*
%TD*%
%TO.C,R12*%
X129000000Y-80000000D03*
D12*
X129000000Y-90160000D03*
%TD*%
D13*
%TO.C,R13*%
X132500000Y-80000000D03*
D12*
X132500000Y-90160000D03*
%TD*%
%TO.C,R14*%
X136000000Y-90160000D03*
D13*
X136000000Y-80000000D03*
%TD*%
%TO.C,R15*%
X139500000Y-80000000D03*
D12*
X139500000Y-90160000D03*
%TD*%
%TO.C,R16*%
X143000000Y-90160000D03*
D13*
X143000000Y-80000000D03*
%TD*%
M02*
