%TF.GenerationSoftware,KiCad,Pcbnew,(5.1.6)-1*%
%TF.CreationDate,2020-05-26T20:54:03-04:00*%
%TF.ProjectId,ArduinoLife2-CPU,41726475-696e-46f4-9c69-6665322d4350,rev?*%
%TF.SameCoordinates,Original*%
%TF.FileFunction,Legend,Bot*%
%TF.FilePolarity,Positive*%
%FSLAX46Y46*%
G04 Gerber Fmt 4.6, Leading zero omitted, Abs format (unit mm)*
G04 Created by KiCad (PCBNEW (5.1.6)-1) date 2020-05-26 20:54:03*
%MOMM*%
%LPD*%
G01*
G04 APERTURE LIST*
%ADD10C,0.150000*%
G04 APERTURE END LIST*
D10*
X102011904Y-92000000D02*
X102107142Y-91952380D01*
X102250000Y-91952380D01*
X102392857Y-92000000D01*
X102488095Y-92095238D01*
X102535714Y-92190476D01*
X102583333Y-92380952D01*
X102583333Y-92523809D01*
X102535714Y-92714285D01*
X102488095Y-92809523D01*
X102392857Y-92904761D01*
X102250000Y-92952380D01*
X102154761Y-92952380D01*
X102011904Y-92904761D01*
X101964285Y-92857142D01*
X101964285Y-92523809D01*
X102154761Y-92523809D01*
X101535714Y-92952380D02*
X101535714Y-91952380D01*
X100964285Y-92952380D01*
X100964285Y-91952380D01*
X100488095Y-92952380D02*
X100488095Y-91952380D01*
X100250000Y-91952380D01*
X100107142Y-92000000D01*
X100011904Y-92095238D01*
X99964285Y-92190476D01*
X99916666Y-92380952D01*
X99916666Y-92523809D01*
X99964285Y-92714285D01*
X100011904Y-92809523D01*
X100107142Y-92904761D01*
X100250000Y-92952380D01*
X100488095Y-92952380D01*
X102011904Y-89452380D02*
X101440476Y-89452380D01*
X101726190Y-90452380D02*
X101726190Y-89452380D01*
X101202380Y-89452380D02*
X100535714Y-90452380D01*
X100535714Y-89452380D02*
X101202380Y-90452380D01*
X101416666Y-87952380D02*
X101750000Y-87476190D01*
X101988095Y-87952380D02*
X101988095Y-86952380D01*
X101607142Y-86952380D01*
X101511904Y-87000000D01*
X101464285Y-87047619D01*
X101416666Y-87142857D01*
X101416666Y-87285714D01*
X101464285Y-87380952D01*
X101511904Y-87428571D01*
X101607142Y-87476190D01*
X101988095Y-87476190D01*
X101083333Y-86952380D02*
X100416666Y-87952380D01*
X100416666Y-86952380D02*
X101083333Y-87952380D01*
M02*
