%TF.GenerationSoftware,KiCad,Pcbnew,(5.1.6)-1*%
%TF.CreationDate,2020-05-26T20:54:03-04:00*%
%TF.ProjectId,ArduinoLife2-CPU,41726475-696e-46f4-9c69-6665322d4350,rev?*%
%TF.SameCoordinates,Original*%
%TF.FileFunction,Copper,L2,Bot*%
%TF.FilePolarity,Positive*%
%FSLAX46Y46*%
G04 Gerber Fmt 4.6, Leading zero omitted, Abs format (unit mm)*
G04 Created by KiCad (PCBNEW (5.1.6)-1) date 2020-05-26 20:54:03*
%MOMM*%
%LPD*%
G01*
G04 APERTURE LIST*
%TA.AperFunction,ComponentPad*%
%ADD10C,0.600000*%
%TD*%
%TA.AperFunction,ComponentPad*%
%ADD11O,1.900000X0.900000*%
%TD*%
%TA.AperFunction,ComponentPad*%
%ADD12O,1.600000X1.600000*%
%TD*%
%TA.AperFunction,ComponentPad*%
%ADD13C,1.600000*%
%TD*%
%TA.AperFunction,ComponentPad*%
%ADD14C,1.000000*%
%TD*%
%TA.AperFunction,ComponentPad*%
%ADD15R,1.700000X1.700000*%
%TD*%
%TA.AperFunction,ComponentPad*%
%ADD16O,1.700000X1.700000*%
%TD*%
%TA.AperFunction,ComponentPad*%
%ADD17R,1.600000X1.600000*%
%TD*%
%TA.AperFunction,ComponentPad*%
%ADD18C,2.000000*%
%TD*%
%TA.AperFunction,ComponentPad*%
%ADD19R,1.050000X1.500000*%
%TD*%
%TA.AperFunction,ComponentPad*%
%ADD20O,1.050000X1.500000*%
%TD*%
%TA.AperFunction,Conductor*%
%ADD21C,1.000000*%
%TD*%
%TA.AperFunction,Conductor*%
%ADD22C,0.250000*%
%TD*%
%TA.AperFunction,Conductor*%
%ADD23C,0.254000*%
%TD*%
G04 APERTURE END LIST*
D10*
%TO.P,J6,A1*%
%TO.N,GND*%
X105750000Y-126750000D03*
%TO.P,J6,A4*%
%TO.N,VCC*%
X106650000Y-126750000D03*
%TO.P,J6,A5*%
%TO.N,/CC1*%
X107550000Y-126750000D03*
%TO.P,J6,A6*%
%TO.N,N/C*%
X108450000Y-126750000D03*
%TO.P,J6,A7*%
X109350000Y-126750000D03*
%TO.P,J6,A9*%
%TO.N,VCC*%
X110250000Y-126750000D03*
%TO.P,J6,A12*%
%TO.N,GND*%
X111150000Y-126750000D03*
%TO.P,J6,B12*%
X105300000Y-127530000D03*
%TO.P,J6,B9*%
%TO.N,VCC*%
X106200000Y-127530000D03*
%TO.P,J6,B7*%
%TO.N,N/C*%
X107100000Y-127530000D03*
%TO.P,J6,B6*%
X108000000Y-127530000D03*
%TO.P,J6,B5*%
%TO.N,/CC2*%
X108900000Y-127530000D03*
%TO.P,J6,B4*%
%TO.N,VCC*%
X109800000Y-127530000D03*
%TO.P,J6,B1*%
%TO.N,GND*%
X110700000Y-127530000D03*
D11*
%TO.P,J6,CASE*%
X110600000Y-125710000D03*
X110600000Y-128570000D03*
X105800000Y-125710000D03*
X105800000Y-128570000D03*
%TD*%
D12*
%TO.P,R17,2*%
%TO.N,/CC1*%
X100840000Y-121750000D03*
D13*
%TO.P,R17,1*%
%TO.N,GND*%
X111000000Y-121750000D03*
%TD*%
%TO.P,R18,1*%
%TO.N,GND*%
X101000000Y-132750000D03*
D12*
%TO.P,R18,2*%
%TO.N,/CC2*%
X111160000Y-132750000D03*
%TD*%
D14*
%TO.P,Y1,2*%
%TO.N,/X2*%
X123750000Y-119750000D03*
%TO.P,Y1,1*%
%TO.N,/X1*%
X123750000Y-117250000D03*
%TD*%
D13*
%TO.P,R1,1*%
%TO.N,Net-(Q1-Pad2)*%
X141500000Y-99250000D03*
D12*
%TO.P,R1,2*%
%TO.N,/UC_R0*%
X141500000Y-109410000D03*
%TD*%
D15*
%TO.P,J5,1*%
%TO.N,GND*%
X108750000Y-92500000D03*
D16*
%TO.P,J5,2*%
%TO.N,/TX*%
X108750000Y-89960000D03*
%TO.P,J5,3*%
%TO.N,/RX*%
X108750000Y-87420000D03*
%TD*%
D13*
%TO.P,C3,2*%
%TO.N,Net-(C3-Pad2)*%
X137750000Y-114500000D03*
%TO.P,C3,1*%
%TO.N,GND*%
X137750000Y-109500000D03*
%TD*%
%TO.P,C1,1*%
%TO.N,GND*%
X124250000Y-106750000D03*
%TO.P,C1,2*%
%TO.N,VCC*%
X124250000Y-111750000D03*
%TD*%
%TO.P,C2,2*%
%TO.N,VCC*%
X137750000Y-117250000D03*
%TO.P,C2,1*%
%TO.N,GND*%
X137750000Y-122250000D03*
%TD*%
%TO.P,C4,2*%
%TO.N,/X1*%
X120000000Y-116250000D03*
%TO.P,C4,1*%
%TO.N,GND*%
X120000000Y-121250000D03*
%TD*%
%TO.P,C5,1*%
%TO.N,GND*%
X118750000Y-124000000D03*
%TO.P,C5,2*%
%TO.N,/X2*%
X123750000Y-124000000D03*
%TD*%
D17*
%TO.P,C6,1*%
%TO.N,VCC*%
X115750000Y-111500000D03*
D13*
%TO.P,C6,2*%
%TO.N,GND*%
X115750000Y-109000000D03*
%TD*%
%TO.P,R20,1*%
%TO.N,VCC*%
X120750000Y-106750000D03*
D12*
%TO.P,R20,2*%
%TO.N,/~RESET*%
X120750000Y-96590000D03*
%TD*%
D18*
%TO.P,SW1,2*%
%TO.N,GND*%
X100500000Y-76500000D03*
%TO.P,SW1,1*%
%TO.N,/~RESET*%
X105000000Y-76500000D03*
%TO.P,SW1,2*%
%TO.N,GND*%
X100500000Y-83000000D03*
%TO.P,SW1,1*%
%TO.N,/~RESET*%
X105000000Y-83000000D03*
%TD*%
D17*
%TO.P,U1,1*%
%TO.N,/~RESET*%
X127250000Y-96750000D03*
D12*
%TO.P,U1,15*%
%TO.N,/UC_R5*%
X134870000Y-129770000D03*
%TO.P,U1,2*%
%TO.N,/RX*%
X127250000Y-99290000D03*
%TO.P,U1,16*%
%TO.N,/UC_R4*%
X134870000Y-127230000D03*
%TO.P,U1,3*%
%TO.N,/TX*%
X127250000Y-101830000D03*
%TO.P,U1,17*%
%TO.N,/UC_R3*%
X134870000Y-124690000D03*
%TO.P,U1,4*%
%TO.N,/UC_C0*%
X127250000Y-104370000D03*
%TO.P,U1,18*%
%TO.N,/UC_R2*%
X134870000Y-122150000D03*
%TO.P,U1,5*%
%TO.N,/UC_C1*%
X127250000Y-106910000D03*
%TO.P,U1,19*%
%TO.N,/UC_R1*%
X134870000Y-119610000D03*
%TO.P,U1,6*%
%TO.N,/UC_C2*%
X127250000Y-109450000D03*
%TO.P,U1,20*%
%TO.N,VCC*%
X134870000Y-117070000D03*
%TO.P,U1,7*%
X127250000Y-111990000D03*
%TO.P,U1,21*%
%TO.N,Net-(C3-Pad2)*%
X134870000Y-114530000D03*
%TO.P,U1,8*%
%TO.N,GND*%
X127250000Y-114530000D03*
%TO.P,U1,22*%
X134870000Y-111990000D03*
%TO.P,U1,9*%
%TO.N,/X1*%
X127250000Y-117070000D03*
%TO.P,U1,23*%
%TO.N,/UC_R0*%
X134870000Y-109450000D03*
%TO.P,U1,10*%
%TO.N,/X2*%
X127250000Y-119610000D03*
%TO.P,U1,24*%
%TO.N,/UC_C7*%
X134870000Y-106910000D03*
%TO.P,U1,11*%
%TO.N,N/C*%
X127250000Y-122150000D03*
%TO.P,U1,25*%
%TO.N,/UC_C3*%
X134870000Y-104370000D03*
%TO.P,U1,12*%
%TO.N,N/C*%
X127250000Y-124690000D03*
%TO.P,U1,26*%
%TO.N,/UC_C4*%
X134870000Y-101830000D03*
%TO.P,U1,13*%
%TO.N,/UC_R7*%
X127250000Y-127230000D03*
%TO.P,U1,27*%
%TO.N,/UC_C5*%
X134870000Y-99290000D03*
%TO.P,U1,14*%
%TO.N,/UC_R6*%
X127250000Y-129770000D03*
%TO.P,U1,28*%
%TO.N,/UC_C6*%
X134870000Y-96750000D03*
%TD*%
D15*
%TO.P,J1,1*%
%TO.N,/C0*%
X121000000Y-77000000D03*
D16*
%TO.P,J1,2*%
%TO.N,/C1*%
X123540000Y-77000000D03*
%TO.P,J1,3*%
%TO.N,/C2*%
X126080000Y-77000000D03*
%TO.P,J1,4*%
%TO.N,/C3*%
X128620000Y-77000000D03*
%TO.P,J1,5*%
%TO.N,/C4*%
X131160000Y-77000000D03*
%TO.P,J1,6*%
%TO.N,/C5*%
X133700000Y-77000000D03*
%TO.P,J1,7*%
%TO.N,/C6*%
X136240000Y-77000000D03*
%TO.P,J1,8*%
%TO.N,/C7*%
X138780000Y-77000000D03*
%TO.P,J1,9*%
%TO.N,N/C*%
X141320000Y-77000000D03*
%TD*%
D15*
%TO.P,J2,1*%
%TO.N,/R0*%
X158500000Y-95500000D03*
D16*
%TO.P,J2,2*%
%TO.N,/R1*%
X158500000Y-98040000D03*
%TO.P,J2,3*%
%TO.N,/R2*%
X158500000Y-100580000D03*
%TO.P,J2,4*%
%TO.N,/R3*%
X158500000Y-103120000D03*
%TO.P,J2,5*%
%TO.N,/R4*%
X158500000Y-105660000D03*
%TO.P,J2,6*%
%TO.N,/R5*%
X158500000Y-108200000D03*
%TO.P,J2,7*%
%TO.N,/R6*%
X158500000Y-110740000D03*
%TO.P,J2,8*%
%TO.N,/R7*%
X158500000Y-113280000D03*
%TD*%
D15*
%TO.P,J3,1*%
%TO.N,N/C*%
X100500000Y-115000000D03*
D16*
%TO.P,J3,2*%
X100500000Y-112460000D03*
%TO.P,J3,3*%
X100500000Y-109920000D03*
%TO.P,J3,4*%
X100500000Y-107380000D03*
%TO.P,J3,5*%
X100500000Y-104840000D03*
%TO.P,J3,6*%
X100500000Y-102300000D03*
%TO.P,J3,7*%
X100500000Y-99760000D03*
%TO.P,J3,8*%
X100500000Y-97220000D03*
%TD*%
%TO.P,J4,8*%
%TO.N,N/C*%
X120720000Y-134500000D03*
%TO.P,J4,7*%
X123260000Y-134500000D03*
%TO.P,J4,6*%
X125800000Y-134500000D03*
%TO.P,J4,5*%
X128340000Y-134500000D03*
%TO.P,J4,4*%
X130880000Y-134500000D03*
%TO.P,J4,3*%
X133420000Y-134500000D03*
%TO.P,J4,2*%
X135960000Y-134500000D03*
D15*
%TO.P,J4,1*%
X138500000Y-134500000D03*
%TD*%
D19*
%TO.P,Q1,1*%
%TO.N,GND*%
X152500000Y-87500000D03*
D20*
%TO.P,Q1,3*%
%TO.N,/R0*%
X155040000Y-87500000D03*
%TO.P,Q1,2*%
%TO.N,Net-(Q1-Pad2)*%
X153770000Y-87500000D03*
%TD*%
D19*
%TO.P,Q2,1*%
%TO.N,GND*%
X152500000Y-92500000D03*
D20*
%TO.P,Q2,3*%
%TO.N,/R1*%
X155040000Y-92500000D03*
%TO.P,Q2,2*%
%TO.N,Net-(Q2-Pad2)*%
X153770000Y-92500000D03*
%TD*%
%TO.P,Q3,2*%
%TO.N,Net-(Q3-Pad2)*%
X153770000Y-97500000D03*
%TO.P,Q3,3*%
%TO.N,/R2*%
X155040000Y-97500000D03*
D19*
%TO.P,Q3,1*%
%TO.N,GND*%
X152500000Y-97500000D03*
%TD*%
D20*
%TO.P,Q4,2*%
%TO.N,Net-(Q4-Pad2)*%
X153770000Y-102500000D03*
%TO.P,Q4,3*%
%TO.N,/R3*%
X155040000Y-102500000D03*
D19*
%TO.P,Q4,1*%
%TO.N,GND*%
X152500000Y-102500000D03*
%TD*%
%TO.P,Q5,1*%
%TO.N,GND*%
X152500000Y-107500000D03*
D20*
%TO.P,Q5,3*%
%TO.N,/R4*%
X155040000Y-107500000D03*
%TO.P,Q5,2*%
%TO.N,Net-(Q5-Pad2)*%
X153770000Y-107500000D03*
%TD*%
D19*
%TO.P,Q6,1*%
%TO.N,GND*%
X152500000Y-112500000D03*
D20*
%TO.P,Q6,3*%
%TO.N,/R5*%
X155040000Y-112500000D03*
%TO.P,Q6,2*%
%TO.N,Net-(Q6-Pad2)*%
X153770000Y-112500000D03*
%TD*%
%TO.P,Q7,2*%
%TO.N,Net-(Q7-Pad2)*%
X153770000Y-117500000D03*
%TO.P,Q7,3*%
%TO.N,/R6*%
X155040000Y-117500000D03*
D19*
%TO.P,Q7,1*%
%TO.N,GND*%
X152500000Y-117500000D03*
%TD*%
D20*
%TO.P,Q8,2*%
%TO.N,Net-(Q8-Pad2)*%
X153770000Y-122500000D03*
%TO.P,Q8,3*%
%TO.N,/R7*%
X155040000Y-122500000D03*
D19*
%TO.P,Q8,1*%
%TO.N,GND*%
X152500000Y-122500000D03*
%TD*%
D13*
%TO.P,R2,1*%
%TO.N,Net-(Q2-Pad2)*%
X145000000Y-109500000D03*
D12*
%TO.P,R2,2*%
%TO.N,/UC_R1*%
X145000000Y-119660000D03*
%TD*%
%TO.P,R3,2*%
%TO.N,/UC_R2*%
X148500000Y-119660000D03*
D13*
%TO.P,R3,1*%
%TO.N,Net-(Q3-Pad2)*%
X148500000Y-109500000D03*
%TD*%
D12*
%TO.P,R4,2*%
%TO.N,/UC_R3*%
X139590000Y-125250000D03*
D13*
%TO.P,R4,1*%
%TO.N,Net-(Q4-Pad2)*%
X149750000Y-125250000D03*
%TD*%
%TO.P,R5,1*%
%TO.N,Net-(Q5-Pad2)*%
X149750000Y-128750000D03*
D12*
%TO.P,R5,2*%
%TO.N,/UC_R4*%
X139590000Y-128750000D03*
%TD*%
D13*
%TO.P,R6,1*%
%TO.N,Net-(Q6-Pad2)*%
X152500000Y-132500000D03*
D12*
%TO.P,R6,2*%
%TO.N,/UC_R5*%
X142340000Y-132500000D03*
%TD*%
%TO.P,R7,2*%
%TO.N,/UC_R6*%
X124910000Y-131000000D03*
D13*
%TO.P,R7,1*%
%TO.N,Net-(Q7-Pad2)*%
X114750000Y-131000000D03*
%TD*%
D12*
%TO.P,R8,2*%
%TO.N,/UC_R7*%
X124910000Y-127500000D03*
D13*
%TO.P,R8,1*%
%TO.N,Net-(Q8-Pad2)*%
X114750000Y-127500000D03*
%TD*%
D12*
%TO.P,R9,2*%
%TO.N,/UC_C0*%
X118500000Y-90160000D03*
D13*
%TO.P,R9,1*%
%TO.N,/C0*%
X118500000Y-80000000D03*
%TD*%
%TO.P,R10,1*%
%TO.N,/C1*%
X122000000Y-80000000D03*
D12*
%TO.P,R10,2*%
%TO.N,/UC_C1*%
X122000000Y-90160000D03*
%TD*%
%TO.P,R11,2*%
%TO.N,/UC_C2*%
X125500000Y-90160000D03*
D13*
%TO.P,R11,1*%
%TO.N,/C2*%
X125500000Y-80000000D03*
%TD*%
%TO.P,R12,1*%
%TO.N,/C3*%
X129000000Y-80000000D03*
D12*
%TO.P,R12,2*%
%TO.N,/UC_C3*%
X129000000Y-90160000D03*
%TD*%
D13*
%TO.P,R13,1*%
%TO.N,/C4*%
X132500000Y-80000000D03*
D12*
%TO.P,R13,2*%
%TO.N,/UC_C4*%
X132500000Y-90160000D03*
%TD*%
%TO.P,R14,2*%
%TO.N,/UC_C5*%
X136000000Y-90160000D03*
D13*
%TO.P,R14,1*%
%TO.N,/C5*%
X136000000Y-80000000D03*
%TD*%
%TO.P,R15,1*%
%TO.N,/C6*%
X139500000Y-80000000D03*
D12*
%TO.P,R15,2*%
%TO.N,/UC_C6*%
X139500000Y-90160000D03*
%TD*%
%TO.P,R16,2*%
%TO.N,/UC_C7*%
X143000000Y-90160000D03*
D13*
%TO.P,R16,1*%
%TO.N,/C7*%
X143000000Y-80000000D03*
%TD*%
D21*
%TO.N,VCC*%
X127010000Y-111750000D02*
X127250000Y-111990000D01*
X124250000Y-111750000D02*
X127010000Y-111750000D01*
X127250000Y-111990000D02*
X132260000Y-117000000D01*
X134800000Y-117000000D02*
X134870000Y-117070000D01*
X132260000Y-117000000D02*
X134800000Y-117000000D01*
X135050000Y-117250000D02*
X134870000Y-117070000D01*
X137750000Y-117250000D02*
X135050000Y-117250000D01*
D22*
X109750000Y-129750000D02*
X110000000Y-129750000D01*
X109250000Y-129250000D02*
X109750000Y-129750000D01*
X109800000Y-127530000D02*
X109250000Y-128080000D01*
X109250000Y-128080000D02*
X109250000Y-129250000D01*
X107075010Y-126324990D02*
X107075010Y-124575010D01*
X106650000Y-126750000D02*
X107075010Y-126324990D01*
X107075010Y-124575010D02*
X107000000Y-124500000D01*
X106650000Y-126925000D02*
X106650000Y-126750000D01*
X106200000Y-127530000D02*
X106200000Y-127375000D01*
X106200000Y-127375000D02*
X106650000Y-126925000D01*
X109750000Y-127480000D02*
X109800000Y-127530000D01*
X110250000Y-127080000D02*
X109800000Y-127530000D01*
X110250000Y-126750000D02*
X110250000Y-127080000D01*
X120750000Y-106750000D02*
X120750000Y-111500000D01*
D23*
%TO.N,Net-(C3-Pad2)*%
X137720000Y-114530000D02*
X137750000Y-114500000D01*
X134870000Y-114530000D02*
X137720000Y-114530000D01*
%TO.N,/X1*%
X127070000Y-117250000D02*
X123750000Y-117250000D01*
X127250000Y-117070000D02*
X127070000Y-117250000D01*
D22*
X121000000Y-117250000D02*
X120000000Y-116250000D01*
X123750000Y-117250000D02*
X121000000Y-117250000D01*
D23*
%TO.N,/X2*%
X123810000Y-119610000D02*
X123750000Y-119550000D01*
X127250000Y-119610000D02*
X123810000Y-119610000D01*
X123750000Y-119550000D02*
X123750000Y-124000000D01*
%TO.N,/RX*%
X110420000Y-87420000D02*
X108750000Y-87420000D01*
X127250000Y-99290000D02*
X119790000Y-99290000D01*
X117000000Y-94000000D02*
X110420000Y-87420000D01*
X117000000Y-96500000D02*
X117000000Y-94000000D01*
X119790000Y-99290000D02*
X117000000Y-96500000D01*
%TO.N,/TX*%
X111460000Y-89960000D02*
X108750000Y-89960000D01*
X127250000Y-101830000D02*
X119830000Y-101830000D01*
X116000000Y-94500000D02*
X111460000Y-89960000D01*
X116000000Y-98000000D02*
X116000000Y-94500000D01*
X119830000Y-101830000D02*
X116000000Y-98000000D01*
%TO.N,/~RESET*%
X105000000Y-83000000D02*
X105000000Y-76500000D01*
X107250000Y-83000000D02*
X105000000Y-83000000D01*
X127250000Y-96750000D02*
X127090000Y-96590000D01*
X120840000Y-96590000D02*
X107250000Y-83000000D01*
X127090000Y-96590000D02*
X120840000Y-96590000D01*
%TO.N,/C0*%
X121000000Y-77500000D02*
X118500000Y-80000000D01*
%TO.N,/C1*%
X123540000Y-78460000D02*
X122000000Y-80000000D01*
X123540000Y-77000000D02*
X123540000Y-78460000D01*
%TO.N,/C2*%
X126080000Y-79420000D02*
X125500000Y-80000000D01*
X126080000Y-77000000D02*
X126080000Y-79420000D01*
%TO.N,/C3*%
X129000000Y-77380000D02*
X128620000Y-77000000D01*
X129000000Y-80000000D02*
X129000000Y-77380000D01*
%TO.N,/C4*%
X131160000Y-78660000D02*
X132500000Y-80000000D01*
X131160000Y-77000000D02*
X131160000Y-78660000D01*
%TO.N,/C5*%
X136000000Y-79300000D02*
X136000000Y-80000000D01*
X133700000Y-77000000D02*
X136000000Y-79300000D01*
%TO.N,/C6*%
X136500000Y-77000000D02*
X136240000Y-77000000D01*
X139500000Y-80000000D02*
X136500000Y-77000000D01*
%TO.N,/C7*%
X141780000Y-80000000D02*
X143000000Y-80000000D01*
X138780000Y-77000000D02*
X141780000Y-80000000D01*
%TO.N,/R0*%
X158500000Y-95500000D02*
X158500000Y-88750000D01*
X157250000Y-87500000D02*
X155040000Y-87500000D01*
X158500000Y-88750000D02*
X157250000Y-87500000D01*
%TO.N,/R1*%
X156750000Y-93500000D02*
X155750000Y-92500000D01*
X155750000Y-92500000D02*
X155040000Y-92500000D01*
X158500000Y-98040000D02*
X156750000Y-96290000D01*
X156750000Y-96290000D02*
X156750000Y-93500000D01*
%TO.N,/R2*%
X157000000Y-98250000D02*
X157000000Y-99080000D01*
X157000000Y-99080000D02*
X158500000Y-100580000D01*
X155040000Y-97500000D02*
X156250000Y-97500000D01*
X156250000Y-97500000D02*
X157000000Y-98250000D01*
%TO.N,/R3*%
X158500000Y-103120000D02*
X157120000Y-103120000D01*
X156500000Y-102500000D02*
X155040000Y-102500000D01*
X157120000Y-103120000D02*
X156500000Y-102500000D01*
%TO.N,/R4*%
X158500000Y-105750000D02*
X158500000Y-105660000D01*
X155040000Y-107500000D02*
X156750000Y-107500000D01*
X156750000Y-107500000D02*
X158500000Y-105750000D01*
%TO.N,/R5*%
X158500000Y-108250000D02*
X158500000Y-108200000D01*
X155040000Y-112500000D02*
X155040000Y-111710000D01*
X155040000Y-111710000D02*
X158500000Y-108250000D01*
%TO.N,/R6*%
X155040000Y-117500000D02*
X155040000Y-114960000D01*
X155040000Y-114960000D02*
X156750000Y-113250000D01*
X156750000Y-112490000D02*
X158500000Y-110740000D01*
X156750000Y-113250000D02*
X156750000Y-112490000D01*
%TO.N,/R7*%
X155040000Y-122500000D02*
X156250000Y-122500000D01*
X158500000Y-120250000D02*
X158500000Y-113280000D01*
X156250000Y-122500000D02*
X158500000Y-120250000D01*
%TO.N,Net-(Q1-Pad2)*%
X141500000Y-99250000D02*
X141500000Y-95000000D01*
X141500000Y-95000000D02*
X150750000Y-85750000D01*
X150750000Y-85750000D02*
X153250000Y-85750000D01*
X153770000Y-86270000D02*
X153770000Y-87500000D01*
X153250000Y-85750000D02*
X153770000Y-86270000D01*
%TO.N,Net-(Q2-Pad2)*%
X145000000Y-109500000D02*
X145000000Y-95500000D01*
X145000000Y-95500000D02*
X149750000Y-90750000D01*
X153770000Y-91496000D02*
X153770000Y-92500000D01*
X153024000Y-90750000D02*
X153770000Y-91496000D01*
X149750000Y-90750000D02*
X153024000Y-90750000D01*
%TO.N,Net-(Q3-Pad2)*%
X153250000Y-95750000D02*
X153770000Y-96270000D01*
X150750000Y-95750000D02*
X153250000Y-95750000D01*
X148500000Y-109500000D02*
X148500000Y-98000000D01*
X153770000Y-96270000D02*
X153770000Y-97500000D01*
X148500000Y-98000000D02*
X150750000Y-95750000D01*
%TO.N,Net-(Q4-Pad2)*%
X153770000Y-104366398D02*
X153770000Y-102500000D01*
X149750000Y-108386398D02*
X153770000Y-104366398D01*
X149750000Y-125250000D02*
X149750000Y-108386398D01*
%TO.N,Net-(Q5-Pad2)*%
X153770000Y-108230000D02*
X153770000Y-107500000D01*
X151000000Y-127500000D02*
X151000000Y-124791019D01*
X150250000Y-111750000D02*
X153770000Y-108230000D01*
X149750000Y-128750000D02*
X151000000Y-127500000D01*
X151000000Y-124791019D02*
X150250000Y-124041019D01*
X150250000Y-124041019D02*
X150250000Y-111750000D01*
%TO.N,Net-(Q6-Pad2)*%
X153770000Y-112500000D02*
X153770000Y-111520000D01*
X153770000Y-111520000D02*
X153250000Y-111000000D01*
X153250000Y-111000000D02*
X152250000Y-111000000D01*
X152250000Y-111000000D02*
X150750000Y-112500000D01*
X150750000Y-112500000D02*
X150750000Y-123750000D01*
X152500000Y-125500000D02*
X152500000Y-132500000D01*
X150750000Y-123750000D02*
X152500000Y-125500000D01*
%TO.N,Net-(Q7-Pad2)*%
X116000000Y-132250000D02*
X114750000Y-131000000D01*
X140000000Y-132250000D02*
X116000000Y-132250000D01*
X142000000Y-134250000D02*
X140000000Y-132250000D01*
X153500000Y-134250000D02*
X142000000Y-134250000D01*
X153770000Y-118730000D02*
X151500000Y-121000000D01*
X154250000Y-126000000D02*
X154250000Y-133500000D01*
X153770000Y-117500000D02*
X153770000Y-118730000D01*
X154250000Y-133500000D02*
X153500000Y-134250000D01*
X151500000Y-123250000D02*
X154250000Y-126000000D01*
X151500000Y-121000000D02*
X151500000Y-123250000D01*
%TO.N,Net-(Q8-Pad2)*%
X155000000Y-124750000D02*
X153770000Y-123520000D01*
X155000000Y-133750000D02*
X155000000Y-124750000D01*
X153750000Y-135000000D02*
X155000000Y-133750000D01*
X153770000Y-123520000D02*
X153770000Y-122500000D01*
X141750000Y-135000000D02*
X153750000Y-135000000D01*
X113500000Y-128750000D02*
X113500000Y-132000000D01*
X113500000Y-132000000D02*
X114500000Y-133000000D01*
X114750000Y-127500000D02*
X113500000Y-128750000D01*
X139750000Y-133000000D02*
X141750000Y-135000000D01*
X114500000Y-133000000D02*
X139750000Y-133000000D01*
%TO.N,/UC_R0*%
X134870000Y-109450000D02*
X136820000Y-107500000D01*
X139590000Y-107500000D02*
X141500000Y-109410000D01*
X136820000Y-107500000D02*
X139590000Y-107500000D01*
%TO.N,/UC_R1*%
X134920000Y-119660000D02*
X134870000Y-119610000D01*
X145000000Y-119660000D02*
X134920000Y-119660000D01*
%TO.N,/UC_R2*%
X136520000Y-120500000D02*
X134870000Y-122150000D01*
X139500000Y-120500000D02*
X136520000Y-120500000D01*
X140250000Y-121250000D02*
X139500000Y-120500000D01*
X148500000Y-119660000D02*
X146910000Y-121250000D01*
X146910000Y-121250000D02*
X140250000Y-121250000D01*
%TO.N,/UC_R3*%
X135430000Y-125250000D02*
X134870000Y-124690000D01*
X139590000Y-125250000D02*
X135430000Y-125250000D01*
%TO.N,/UC_R4*%
X136730000Y-127230000D02*
X134870000Y-127230000D01*
X139590000Y-128750000D02*
X138250000Y-128750000D01*
X138250000Y-128750000D02*
X136730000Y-127230000D01*
%TO.N,/UC_R5*%
X137020000Y-129770000D02*
X134870000Y-129770000D01*
X137910000Y-130660000D02*
X137020000Y-129770000D01*
X142340000Y-132500000D02*
X140500000Y-130660000D01*
X140500000Y-130660000D02*
X137910000Y-130660000D01*
%TO.N,/UC_R6*%
X127230000Y-129770000D02*
X127250000Y-129770000D01*
X124910000Y-131000000D02*
X126000000Y-131000000D01*
X126000000Y-131000000D02*
X127230000Y-129770000D01*
%TO.N,/UC_R7*%
X124910000Y-127500000D02*
X125160000Y-127250000D01*
X127230000Y-127250000D02*
X127250000Y-127230000D01*
X125160000Y-127250000D02*
X127230000Y-127250000D01*
%TO.N,/UC_C0*%
X128630000Y-104370000D02*
X127250000Y-104370000D01*
X118660000Y-90160000D02*
X123750000Y-95250000D01*
X129500000Y-103500000D02*
X128630000Y-104370000D01*
X118500000Y-90160000D02*
X118660000Y-90160000D01*
X123750000Y-95250000D02*
X128500000Y-95250000D01*
X128500000Y-95250000D02*
X129500000Y-96250000D01*
X129500000Y-96250000D02*
X129500000Y-103500000D01*
%TO.N,/UC_C1*%
X128840000Y-106910000D02*
X127250000Y-106910000D01*
X130250000Y-105500000D02*
X128840000Y-106910000D01*
X122000000Y-90250000D02*
X126250000Y-94500000D01*
X122000000Y-90160000D02*
X122000000Y-90250000D01*
X126250000Y-94500000D02*
X128750000Y-94500000D01*
X128750000Y-94500000D02*
X130250000Y-96000000D01*
X130250000Y-96000000D02*
X130250000Y-105500000D01*
%TO.N,/UC_C2*%
X131000000Y-105700000D02*
X127250000Y-109450000D01*
X131000000Y-95660000D02*
X131000000Y-105700000D01*
X125500000Y-90160000D02*
X131000000Y-95660000D01*
%TO.N,/UC_C3*%
X132120000Y-104370000D02*
X134870000Y-104370000D01*
X131750000Y-104000000D02*
X132120000Y-104370000D01*
X131750000Y-95250000D02*
X131750000Y-104000000D01*
X129000000Y-90160000D02*
X129000000Y-92500000D01*
X129000000Y-92500000D02*
X131750000Y-95250000D01*
%TO.N,/UC_C4*%
X132500000Y-90160000D02*
X132500000Y-100500000D01*
X133830000Y-101830000D02*
X134870000Y-101830000D01*
X132500000Y-100500000D02*
X133830000Y-101830000D01*
%TO.N,/UC_C5*%
X133250000Y-93000000D02*
X133250000Y-97670000D01*
X136000000Y-90160000D02*
X136000000Y-90250000D01*
X133250000Y-97670000D02*
X134870000Y-99290000D01*
X136000000Y-90250000D02*
X133250000Y-93000000D01*
%TO.N,/UC_C6*%
X134750000Y-94910000D02*
X139500000Y-90160000D01*
X134870000Y-96750000D02*
X134750000Y-96630000D01*
X134750000Y-96630000D02*
X134750000Y-94910000D01*
%TO.N,/UC_C7*%
X134870000Y-106910000D02*
X136500000Y-105280000D01*
X136500000Y-105280000D02*
X136500000Y-96500000D01*
X142840000Y-90160000D02*
X143000000Y-90160000D01*
X136500000Y-96500000D02*
X142840000Y-90160000D01*
D22*
%TO.N,/CC1*%
X102340000Y-123250000D02*
X100840000Y-121750000D01*
X106500000Y-123250000D02*
X102340000Y-123250000D01*
X107550000Y-126750000D02*
X107550000Y-124300000D01*
X107550000Y-124300000D02*
X106500000Y-123250000D01*
%TO.N,/CC2*%
X108600001Y-127829999D02*
X108900000Y-127530000D01*
X108600001Y-129850001D02*
X108600001Y-127829999D01*
X111160000Y-132000000D02*
X110955000Y-132205000D01*
X110955000Y-132205000D02*
X108600001Y-129850001D01*
%TD*%
%TO.N,VCC*%
G36*
X122625000Y-110500000D02*
G01*
X122627402Y-110524386D01*
X122634515Y-110547835D01*
X122646066Y-110569446D01*
X122661612Y-110588388D01*
X122680554Y-110603934D01*
X122702165Y-110615485D01*
X122725614Y-110622598D01*
X122750000Y-110625000D01*
X123903080Y-110625000D01*
X123726368Y-110691782D01*
X123661039Y-110726701D01*
X123574909Y-110898132D01*
X124250000Y-111573223D01*
X124925091Y-110898132D01*
X124838961Y-110726701D01*
X124628009Y-110631463D01*
X124600121Y-110625000D01*
X133125000Y-110625000D01*
X133125000Y-115750000D01*
X133127402Y-115774386D01*
X133134515Y-115797835D01*
X133146066Y-115819446D01*
X133161612Y-115838388D01*
X133180554Y-115853934D01*
X133202165Y-115865485D01*
X133225614Y-115872598D01*
X133250000Y-115875000D01*
X139375000Y-115875000D01*
X139375000Y-118875000D01*
X135792049Y-118875000D01*
X135782682Y-118860981D01*
X135619019Y-118697318D01*
X135426571Y-118568729D01*
X135212735Y-118480155D01*
X134985727Y-118435000D01*
X134754273Y-118435000D01*
X134527265Y-118480155D01*
X134313429Y-118568729D01*
X134120981Y-118697318D01*
X133957318Y-118860981D01*
X133947951Y-118875000D01*
X128625000Y-118875000D01*
X128625000Y-117376228D01*
X133735606Y-117376228D01*
X133756649Y-117445619D01*
X133851321Y-117655606D01*
X133985141Y-117843088D01*
X134152965Y-118000861D01*
X134348345Y-118122861D01*
X134563771Y-118204400D01*
X134745000Y-118144588D01*
X134745000Y-117195000D01*
X134995000Y-117195000D01*
X134995000Y-118144588D01*
X135176229Y-118204400D01*
X135391655Y-118122861D01*
X135425274Y-118101868D01*
X137074909Y-118101868D01*
X137161039Y-118273299D01*
X137371991Y-118368537D01*
X137597470Y-118420791D01*
X137828811Y-118428051D01*
X138057123Y-118390040D01*
X138273632Y-118308218D01*
X138338961Y-118273299D01*
X138425091Y-118101868D01*
X137750000Y-117426777D01*
X137074909Y-118101868D01*
X135425274Y-118101868D01*
X135587035Y-118000861D01*
X135754859Y-117843088D01*
X135888679Y-117655606D01*
X135983351Y-117445619D01*
X136004394Y-117376228D01*
X135988593Y-117328811D01*
X136571949Y-117328811D01*
X136609960Y-117557123D01*
X136691782Y-117773632D01*
X136726701Y-117838961D01*
X136898132Y-117925091D01*
X137573223Y-117250000D01*
X137926777Y-117250000D01*
X138601868Y-117925091D01*
X138773299Y-117838961D01*
X138868537Y-117628009D01*
X138920791Y-117402530D01*
X138928051Y-117171189D01*
X138890040Y-116942877D01*
X138808218Y-116726368D01*
X138773299Y-116661039D01*
X138601868Y-116574909D01*
X137926777Y-117250000D01*
X137573223Y-117250000D01*
X136898132Y-116574909D01*
X136726701Y-116661039D01*
X136631463Y-116871991D01*
X136579209Y-117097470D01*
X136571949Y-117328811D01*
X135988593Y-117328811D01*
X135944000Y-117195000D01*
X134995000Y-117195000D01*
X134745000Y-117195000D01*
X133796000Y-117195000D01*
X133735606Y-117376228D01*
X128625000Y-117376228D01*
X128625000Y-116763772D01*
X133735606Y-116763772D01*
X133796000Y-116945000D01*
X134745000Y-116945000D01*
X134745000Y-115995412D01*
X134995000Y-115995412D01*
X134995000Y-116945000D01*
X135944000Y-116945000D01*
X136004394Y-116763772D01*
X135983351Y-116694381D01*
X135888679Y-116484394D01*
X135827108Y-116398132D01*
X137074909Y-116398132D01*
X137750000Y-117073223D01*
X138425091Y-116398132D01*
X138338961Y-116226701D01*
X138128009Y-116131463D01*
X137902530Y-116079209D01*
X137671189Y-116071949D01*
X137442877Y-116109960D01*
X137226368Y-116191782D01*
X137161039Y-116226701D01*
X137074909Y-116398132D01*
X135827108Y-116398132D01*
X135754859Y-116296912D01*
X135587035Y-116139139D01*
X135391655Y-116017139D01*
X135176229Y-115935600D01*
X134995000Y-115995412D01*
X134745000Y-115995412D01*
X134563771Y-115935600D01*
X134348345Y-116017139D01*
X134152965Y-116139139D01*
X133985141Y-116296912D01*
X133851321Y-116484394D01*
X133756649Y-116694381D01*
X133735606Y-116763772D01*
X128625000Y-116763772D01*
X128625000Y-113250000D01*
X128622598Y-113225614D01*
X128615485Y-113202165D01*
X128603934Y-113180554D01*
X128588388Y-113161612D01*
X128569446Y-113146066D01*
X128547835Y-113134515D01*
X128524386Y-113127402D01*
X128500000Y-113125000D01*
X127375002Y-113125000D01*
X127375002Y-113064589D01*
X127556229Y-113124400D01*
X127771655Y-113042861D01*
X127967035Y-112920861D01*
X128134859Y-112763088D01*
X128268679Y-112575606D01*
X128363351Y-112365619D01*
X128384394Y-112296228D01*
X128324000Y-112115000D01*
X127375000Y-112115000D01*
X127375000Y-112135000D01*
X127125000Y-112135000D01*
X127125000Y-112115000D01*
X126176000Y-112115000D01*
X126115606Y-112296228D01*
X126136649Y-112365619D01*
X126231321Y-112575606D01*
X126365141Y-112763088D01*
X126532965Y-112920861D01*
X126728345Y-113042861D01*
X126943771Y-113124400D01*
X127124998Y-113064589D01*
X127124998Y-113125000D01*
X117250000Y-113125000D01*
X117225614Y-113127402D01*
X117202165Y-113134515D01*
X117180554Y-113146066D01*
X117161612Y-113161612D01*
X117146066Y-113180554D01*
X117134515Y-113202165D01*
X117127402Y-113225614D01*
X117125000Y-113250000D01*
X117125000Y-125125000D01*
X113000000Y-125125000D01*
X112975614Y-125127402D01*
X112952165Y-125134515D01*
X112930554Y-125146066D01*
X112911612Y-125161612D01*
X112896066Y-125180554D01*
X112884515Y-125202165D01*
X112877402Y-125225614D01*
X112875000Y-125250000D01*
X112875000Y-136600000D01*
X98400000Y-136600000D01*
X98400000Y-132634273D01*
X99825000Y-132634273D01*
X99825000Y-132865727D01*
X99870155Y-133092735D01*
X99958729Y-133306571D01*
X100087318Y-133499019D01*
X100250981Y-133662682D01*
X100443429Y-133791271D01*
X100657265Y-133879845D01*
X100884273Y-133925000D01*
X101115727Y-133925000D01*
X101342735Y-133879845D01*
X101556571Y-133791271D01*
X101749019Y-133662682D01*
X101912682Y-133499019D01*
X102041271Y-133306571D01*
X102129845Y-133092735D01*
X102175000Y-132865727D01*
X102175000Y-132634273D01*
X102129845Y-132407265D01*
X102041271Y-132193429D01*
X101912682Y-132000981D01*
X101749019Y-131837318D01*
X101556571Y-131708729D01*
X101342735Y-131620155D01*
X101115727Y-131575000D01*
X100884273Y-131575000D01*
X100657265Y-131620155D01*
X100443429Y-131708729D01*
X100250981Y-131837318D01*
X100087318Y-132000981D01*
X99958729Y-132193429D01*
X99870155Y-132407265D01*
X99825000Y-132634273D01*
X98400000Y-132634273D01*
X98400000Y-121634273D01*
X99665000Y-121634273D01*
X99665000Y-121865727D01*
X99710155Y-122092735D01*
X99798729Y-122306571D01*
X99927318Y-122499019D01*
X100090981Y-122662682D01*
X100283429Y-122791271D01*
X100497265Y-122879845D01*
X100724273Y-122925000D01*
X100955727Y-122925000D01*
X101182735Y-122879845D01*
X101239306Y-122856412D01*
X101969079Y-123586186D01*
X101984736Y-123605264D01*
X102060871Y-123667746D01*
X102147733Y-123714175D01*
X102241983Y-123742765D01*
X102315440Y-123750000D01*
X102315449Y-123750000D01*
X102339999Y-123752418D01*
X102364549Y-123750000D01*
X106292895Y-123750000D01*
X107050001Y-124507108D01*
X107050001Y-125363036D01*
X106989281Y-125249437D01*
X106886185Y-125123815D01*
X106760563Y-125020719D01*
X106617241Y-124944112D01*
X106461728Y-124896938D01*
X106340521Y-124885000D01*
X105259479Y-124885000D01*
X105138272Y-124896938D01*
X104982759Y-124944112D01*
X104839437Y-125020719D01*
X104713815Y-125123815D01*
X104610719Y-125249437D01*
X104534112Y-125392759D01*
X104486938Y-125548272D01*
X104471009Y-125710000D01*
X104486938Y-125871728D01*
X104534112Y-126027241D01*
X104610719Y-126170563D01*
X104713815Y-126296185D01*
X104839437Y-126399281D01*
X104982759Y-126475888D01*
X105116164Y-126516356D01*
X105100940Y-126553110D01*
X105075000Y-126683518D01*
X105075000Y-126816482D01*
X105088985Y-126886791D01*
X104980268Y-126931823D01*
X104869713Y-127005693D01*
X104775693Y-127099713D01*
X104701823Y-127210268D01*
X104650940Y-127333110D01*
X104625000Y-127463518D01*
X104625000Y-127596482D01*
X104650940Y-127726890D01*
X104701823Y-127849732D01*
X104763932Y-127942685D01*
X104713815Y-127983815D01*
X104610719Y-128109437D01*
X104534112Y-128252759D01*
X104486938Y-128408272D01*
X104471009Y-128570000D01*
X104486938Y-128731728D01*
X104534112Y-128887241D01*
X104610719Y-129030563D01*
X104713815Y-129156185D01*
X104839437Y-129259281D01*
X104982759Y-129335888D01*
X105138272Y-129383062D01*
X105259479Y-129395000D01*
X106340521Y-129395000D01*
X106461728Y-129383062D01*
X106617241Y-129335888D01*
X106760563Y-129259281D01*
X106886185Y-129156185D01*
X106989281Y-129030563D01*
X107065888Y-128887241D01*
X107113062Y-128731728D01*
X107128991Y-128570000D01*
X107113062Y-128408272D01*
X107065888Y-128252759D01*
X107040360Y-128205000D01*
X107166482Y-128205000D01*
X107296890Y-128179060D01*
X107419732Y-128128177D01*
X107530287Y-128054307D01*
X107550000Y-128034594D01*
X107569713Y-128054307D01*
X107680268Y-128128177D01*
X107803110Y-128179060D01*
X107933518Y-128205000D01*
X108066482Y-128205000D01*
X108100002Y-128198332D01*
X108100001Y-129825441D01*
X108097582Y-129850001D01*
X108101101Y-129885727D01*
X108107236Y-129948017D01*
X108135826Y-130042267D01*
X108182255Y-130129130D01*
X108244737Y-130205265D01*
X108263825Y-130220930D01*
X110165830Y-132122937D01*
X110118729Y-132193429D01*
X110030155Y-132407265D01*
X109985000Y-132634273D01*
X109985000Y-132865727D01*
X110030155Y-133092735D01*
X110118729Y-133306571D01*
X110247318Y-133499019D01*
X110410981Y-133662682D01*
X110603429Y-133791271D01*
X110817265Y-133879845D01*
X111044273Y-133925000D01*
X111275727Y-133925000D01*
X111502735Y-133879845D01*
X111716571Y-133791271D01*
X111909019Y-133662682D01*
X112072682Y-133499019D01*
X112201271Y-133306571D01*
X112289845Y-133092735D01*
X112335000Y-132865727D01*
X112335000Y-132634273D01*
X112289845Y-132407265D01*
X112201271Y-132193429D01*
X112072682Y-132000981D01*
X111909019Y-131837318D01*
X111716571Y-131708729D01*
X111502735Y-131620155D01*
X111479738Y-131615581D01*
X111439129Y-131582254D01*
X111352268Y-131535826D01*
X111258017Y-131507235D01*
X111160000Y-131497581D01*
X111061983Y-131507235D01*
X110987067Y-131529961D01*
X109100001Y-129642896D01*
X109100001Y-128177771D01*
X109219732Y-128128177D01*
X109330287Y-128054307D01*
X109348119Y-128036476D01*
X109409211Y-128097568D01*
X109471942Y-128034837D01*
X109410719Y-128109437D01*
X109334112Y-128252759D01*
X109286938Y-128408272D01*
X109271009Y-128570000D01*
X109286938Y-128731728D01*
X109334112Y-128887241D01*
X109410719Y-129030563D01*
X109513815Y-129156185D01*
X109639437Y-129259281D01*
X109782759Y-129335888D01*
X109938272Y-129383062D01*
X110059479Y-129395000D01*
X111140521Y-129395000D01*
X111261728Y-129383062D01*
X111417241Y-129335888D01*
X111560563Y-129259281D01*
X111686185Y-129156185D01*
X111789281Y-129030563D01*
X111865888Y-128887241D01*
X111913062Y-128731728D01*
X111928991Y-128570000D01*
X111913062Y-128408272D01*
X111865888Y-128252759D01*
X111789281Y-128109437D01*
X111686185Y-127983815D01*
X111560563Y-127880719D01*
X111417241Y-127804112D01*
X111328255Y-127777118D01*
X111349060Y-127726890D01*
X111375000Y-127596482D01*
X111375000Y-127463518D01*
X111361015Y-127393209D01*
X111469732Y-127348177D01*
X111580287Y-127274307D01*
X111674307Y-127180287D01*
X111748177Y-127069732D01*
X111799060Y-126946890D01*
X111825000Y-126816482D01*
X111825000Y-126683518D01*
X111799060Y-126553110D01*
X111748177Y-126430268D01*
X111674307Y-126319713D01*
X111666738Y-126312144D01*
X111686185Y-126296185D01*
X111789281Y-126170563D01*
X111865888Y-126027241D01*
X111913062Y-125871728D01*
X111928991Y-125710000D01*
X111913062Y-125548272D01*
X111865888Y-125392759D01*
X111789281Y-125249437D01*
X111686185Y-125123815D01*
X111560563Y-125020719D01*
X111417241Y-124944112D01*
X111261728Y-124896938D01*
X111140521Y-124885000D01*
X110059479Y-124885000D01*
X109938272Y-124896938D01*
X109782759Y-124944112D01*
X109639437Y-125020719D01*
X109513815Y-125123815D01*
X109410719Y-125249437D01*
X109334112Y-125392759D01*
X109286938Y-125548272D01*
X109271009Y-125710000D01*
X109286938Y-125871728D01*
X109334112Y-126027241D01*
X109359640Y-126075000D01*
X109283518Y-126075000D01*
X109153110Y-126100940D01*
X109030268Y-126151823D01*
X108919713Y-126225693D01*
X108900000Y-126245406D01*
X108880287Y-126225693D01*
X108769732Y-126151823D01*
X108646890Y-126100940D01*
X108516482Y-126075000D01*
X108383518Y-126075000D01*
X108253110Y-126100940D01*
X108130268Y-126151823D01*
X108050000Y-126205456D01*
X108050000Y-124324549D01*
X108052418Y-124299999D01*
X108050000Y-124275449D01*
X108050000Y-124275440D01*
X108042765Y-124201983D01*
X108014175Y-124107733D01*
X107967746Y-124020871D01*
X107905264Y-123944736D01*
X107886187Y-123929080D01*
X106870929Y-122913824D01*
X106855264Y-122894736D01*
X106779129Y-122832254D01*
X106692267Y-122785825D01*
X106598017Y-122757235D01*
X106524560Y-122750000D01*
X106500000Y-122747581D01*
X106475440Y-122750000D01*
X102547107Y-122750000D01*
X101946412Y-122149306D01*
X101969845Y-122092735D01*
X102015000Y-121865727D01*
X102015000Y-121634273D01*
X109825000Y-121634273D01*
X109825000Y-121865727D01*
X109870155Y-122092735D01*
X109958729Y-122306571D01*
X110087318Y-122499019D01*
X110250981Y-122662682D01*
X110443429Y-122791271D01*
X110657265Y-122879845D01*
X110884273Y-122925000D01*
X111115727Y-122925000D01*
X111342735Y-122879845D01*
X111556571Y-122791271D01*
X111749019Y-122662682D01*
X111912682Y-122499019D01*
X112041271Y-122306571D01*
X112129845Y-122092735D01*
X112175000Y-121865727D01*
X112175000Y-121634273D01*
X112129845Y-121407265D01*
X112041271Y-121193429D01*
X111912682Y-121000981D01*
X111749019Y-120837318D01*
X111556571Y-120708729D01*
X111342735Y-120620155D01*
X111115727Y-120575000D01*
X110884273Y-120575000D01*
X110657265Y-120620155D01*
X110443429Y-120708729D01*
X110250981Y-120837318D01*
X110087318Y-121000981D01*
X109958729Y-121193429D01*
X109870155Y-121407265D01*
X109825000Y-121634273D01*
X102015000Y-121634273D01*
X101969845Y-121407265D01*
X101881271Y-121193429D01*
X101752682Y-121000981D01*
X101589019Y-120837318D01*
X101396571Y-120708729D01*
X101182735Y-120620155D01*
X100955727Y-120575000D01*
X100724273Y-120575000D01*
X100497265Y-120620155D01*
X100283429Y-120708729D01*
X100090981Y-120837318D01*
X99927318Y-121000981D01*
X99798729Y-121193429D01*
X99710155Y-121407265D01*
X99665000Y-121634273D01*
X98400000Y-121634273D01*
X98400000Y-117375000D01*
X103000000Y-117375000D01*
X103024386Y-117372598D01*
X103047835Y-117365485D01*
X103069446Y-117353934D01*
X103088388Y-117338388D01*
X103103934Y-117319446D01*
X103115485Y-117297835D01*
X103122598Y-117274386D01*
X103125000Y-117250000D01*
X103125000Y-112300000D01*
X114573186Y-112300000D01*
X114580426Y-112373513D01*
X114601869Y-112444200D01*
X114636691Y-112509347D01*
X114683552Y-112566448D01*
X114740653Y-112613309D01*
X114805800Y-112648131D01*
X114876487Y-112669574D01*
X114950000Y-112676814D01*
X115531250Y-112675000D01*
X115625000Y-112581250D01*
X115625000Y-111625000D01*
X115875000Y-111625000D01*
X115875000Y-112581250D01*
X115968750Y-112675000D01*
X116550000Y-112676814D01*
X116623513Y-112669574D01*
X116694200Y-112648131D01*
X116759347Y-112613309D01*
X116773288Y-112601868D01*
X123574909Y-112601868D01*
X123661039Y-112773299D01*
X123871991Y-112868537D01*
X124097470Y-112920791D01*
X124328811Y-112928051D01*
X124557123Y-112890040D01*
X124773632Y-112808218D01*
X124838961Y-112773299D01*
X124925091Y-112601868D01*
X124250000Y-111926777D01*
X123574909Y-112601868D01*
X116773288Y-112601868D01*
X116816448Y-112566448D01*
X116863309Y-112509347D01*
X116898131Y-112444200D01*
X116919574Y-112373513D01*
X116926814Y-112300000D01*
X116925344Y-111828811D01*
X123071949Y-111828811D01*
X123109960Y-112057123D01*
X123191782Y-112273632D01*
X123226701Y-112338961D01*
X123398132Y-112425091D01*
X124073223Y-111750000D01*
X124426777Y-111750000D01*
X125101868Y-112425091D01*
X125273299Y-112338961D01*
X125368537Y-112128009D01*
X125420791Y-111902530D01*
X125427656Y-111683772D01*
X126115606Y-111683772D01*
X126176000Y-111865000D01*
X127125000Y-111865000D01*
X127125000Y-110915412D01*
X127375000Y-110915412D01*
X127375000Y-111865000D01*
X128324000Y-111865000D01*
X128384394Y-111683772D01*
X128363351Y-111614381D01*
X128268679Y-111404394D01*
X128134859Y-111216912D01*
X127967035Y-111059139D01*
X127771655Y-110937139D01*
X127556229Y-110855600D01*
X127375000Y-110915412D01*
X127125000Y-110915412D01*
X126943771Y-110855600D01*
X126728345Y-110937139D01*
X126532965Y-111059139D01*
X126365141Y-111216912D01*
X126231321Y-111404394D01*
X126136649Y-111614381D01*
X126115606Y-111683772D01*
X125427656Y-111683772D01*
X125428051Y-111671189D01*
X125390040Y-111442877D01*
X125308218Y-111226368D01*
X125273299Y-111161039D01*
X125101868Y-111074909D01*
X124426777Y-111750000D01*
X124073223Y-111750000D01*
X123398132Y-111074909D01*
X123226701Y-111161039D01*
X123131463Y-111371991D01*
X123079209Y-111597470D01*
X123071949Y-111828811D01*
X116925344Y-111828811D01*
X116925000Y-111718750D01*
X116831250Y-111625000D01*
X115875000Y-111625000D01*
X115625000Y-111625000D01*
X114668750Y-111625000D01*
X114575000Y-111718750D01*
X114573186Y-112300000D01*
X103125000Y-112300000D01*
X103125000Y-110625000D01*
X114580877Y-110625000D01*
X114580426Y-110626487D01*
X114573186Y-110700000D01*
X114575000Y-111281250D01*
X114668750Y-111375000D01*
X115625000Y-111375000D01*
X115625000Y-111355000D01*
X115875000Y-111355000D01*
X115875000Y-111375000D01*
X116831250Y-111375000D01*
X116925000Y-111281250D01*
X116926814Y-110700000D01*
X116919574Y-110626487D01*
X116919123Y-110625000D01*
X118750000Y-110625000D01*
X118774386Y-110622598D01*
X118797835Y-110615485D01*
X118819446Y-110603934D01*
X118838388Y-110588388D01*
X118853934Y-110569446D01*
X118865485Y-110547835D01*
X118872598Y-110524386D01*
X118875000Y-110500000D01*
X118875000Y-107601868D01*
X120074909Y-107601868D01*
X120161039Y-107773299D01*
X120371991Y-107868537D01*
X120597470Y-107920791D01*
X120828811Y-107928051D01*
X121057123Y-107890040D01*
X121273632Y-107808218D01*
X121338961Y-107773299D01*
X121425091Y-107601868D01*
X120750000Y-106926777D01*
X120074909Y-107601868D01*
X118875000Y-107601868D01*
X118875000Y-106828811D01*
X119571949Y-106828811D01*
X119609960Y-107057123D01*
X119691782Y-107273632D01*
X119726701Y-107338961D01*
X119898132Y-107425091D01*
X120573223Y-106750000D01*
X120926777Y-106750000D01*
X121601868Y-107425091D01*
X121773299Y-107338961D01*
X121868537Y-107128009D01*
X121920791Y-106902530D01*
X121928051Y-106671189D01*
X121890040Y-106442877D01*
X121808218Y-106226368D01*
X121773299Y-106161039D01*
X121601868Y-106074909D01*
X120926777Y-106750000D01*
X120573223Y-106750000D01*
X119898132Y-106074909D01*
X119726701Y-106161039D01*
X119631463Y-106371991D01*
X119579209Y-106597470D01*
X119571949Y-106828811D01*
X118875000Y-106828811D01*
X118875000Y-105898132D01*
X120074909Y-105898132D01*
X120750000Y-106573223D01*
X121425091Y-105898132D01*
X121338961Y-105726701D01*
X121128009Y-105631463D01*
X120902530Y-105579209D01*
X120671189Y-105571949D01*
X120442877Y-105609960D01*
X120226368Y-105691782D01*
X120161039Y-105726701D01*
X120074909Y-105898132D01*
X118875000Y-105898132D01*
X118875000Y-104625000D01*
X122625000Y-104625000D01*
X122625000Y-110500000D01*
G37*
X122625000Y-110500000D02*
X122627402Y-110524386D01*
X122634515Y-110547835D01*
X122646066Y-110569446D01*
X122661612Y-110588388D01*
X122680554Y-110603934D01*
X122702165Y-110615485D01*
X122725614Y-110622598D01*
X122750000Y-110625000D01*
X123903080Y-110625000D01*
X123726368Y-110691782D01*
X123661039Y-110726701D01*
X123574909Y-110898132D01*
X124250000Y-111573223D01*
X124925091Y-110898132D01*
X124838961Y-110726701D01*
X124628009Y-110631463D01*
X124600121Y-110625000D01*
X133125000Y-110625000D01*
X133125000Y-115750000D01*
X133127402Y-115774386D01*
X133134515Y-115797835D01*
X133146066Y-115819446D01*
X133161612Y-115838388D01*
X133180554Y-115853934D01*
X133202165Y-115865485D01*
X133225614Y-115872598D01*
X133250000Y-115875000D01*
X139375000Y-115875000D01*
X139375000Y-118875000D01*
X135792049Y-118875000D01*
X135782682Y-118860981D01*
X135619019Y-118697318D01*
X135426571Y-118568729D01*
X135212735Y-118480155D01*
X134985727Y-118435000D01*
X134754273Y-118435000D01*
X134527265Y-118480155D01*
X134313429Y-118568729D01*
X134120981Y-118697318D01*
X133957318Y-118860981D01*
X133947951Y-118875000D01*
X128625000Y-118875000D01*
X128625000Y-117376228D01*
X133735606Y-117376228D01*
X133756649Y-117445619D01*
X133851321Y-117655606D01*
X133985141Y-117843088D01*
X134152965Y-118000861D01*
X134348345Y-118122861D01*
X134563771Y-118204400D01*
X134745000Y-118144588D01*
X134745000Y-117195000D01*
X134995000Y-117195000D01*
X134995000Y-118144588D01*
X135176229Y-118204400D01*
X135391655Y-118122861D01*
X135425274Y-118101868D01*
X137074909Y-118101868D01*
X137161039Y-118273299D01*
X137371991Y-118368537D01*
X137597470Y-118420791D01*
X137828811Y-118428051D01*
X138057123Y-118390040D01*
X138273632Y-118308218D01*
X138338961Y-118273299D01*
X138425091Y-118101868D01*
X137750000Y-117426777D01*
X137074909Y-118101868D01*
X135425274Y-118101868D01*
X135587035Y-118000861D01*
X135754859Y-117843088D01*
X135888679Y-117655606D01*
X135983351Y-117445619D01*
X136004394Y-117376228D01*
X135988593Y-117328811D01*
X136571949Y-117328811D01*
X136609960Y-117557123D01*
X136691782Y-117773632D01*
X136726701Y-117838961D01*
X136898132Y-117925091D01*
X137573223Y-117250000D01*
X137926777Y-117250000D01*
X138601868Y-117925091D01*
X138773299Y-117838961D01*
X138868537Y-117628009D01*
X138920791Y-117402530D01*
X138928051Y-117171189D01*
X138890040Y-116942877D01*
X138808218Y-116726368D01*
X138773299Y-116661039D01*
X138601868Y-116574909D01*
X137926777Y-117250000D01*
X137573223Y-117250000D01*
X136898132Y-116574909D01*
X136726701Y-116661039D01*
X136631463Y-116871991D01*
X136579209Y-117097470D01*
X136571949Y-117328811D01*
X135988593Y-117328811D01*
X135944000Y-117195000D01*
X134995000Y-117195000D01*
X134745000Y-117195000D01*
X133796000Y-117195000D01*
X133735606Y-117376228D01*
X128625000Y-117376228D01*
X128625000Y-116763772D01*
X133735606Y-116763772D01*
X133796000Y-116945000D01*
X134745000Y-116945000D01*
X134745000Y-115995412D01*
X134995000Y-115995412D01*
X134995000Y-116945000D01*
X135944000Y-116945000D01*
X136004394Y-116763772D01*
X135983351Y-116694381D01*
X135888679Y-116484394D01*
X135827108Y-116398132D01*
X137074909Y-116398132D01*
X137750000Y-117073223D01*
X138425091Y-116398132D01*
X138338961Y-116226701D01*
X138128009Y-116131463D01*
X137902530Y-116079209D01*
X137671189Y-116071949D01*
X137442877Y-116109960D01*
X137226368Y-116191782D01*
X137161039Y-116226701D01*
X137074909Y-116398132D01*
X135827108Y-116398132D01*
X135754859Y-116296912D01*
X135587035Y-116139139D01*
X135391655Y-116017139D01*
X135176229Y-115935600D01*
X134995000Y-115995412D01*
X134745000Y-115995412D01*
X134563771Y-115935600D01*
X134348345Y-116017139D01*
X134152965Y-116139139D01*
X133985141Y-116296912D01*
X133851321Y-116484394D01*
X133756649Y-116694381D01*
X133735606Y-116763772D01*
X128625000Y-116763772D01*
X128625000Y-113250000D01*
X128622598Y-113225614D01*
X128615485Y-113202165D01*
X128603934Y-113180554D01*
X128588388Y-113161612D01*
X128569446Y-113146066D01*
X128547835Y-113134515D01*
X128524386Y-113127402D01*
X128500000Y-113125000D01*
X127375002Y-113125000D01*
X127375002Y-113064589D01*
X127556229Y-113124400D01*
X127771655Y-113042861D01*
X127967035Y-112920861D01*
X128134859Y-112763088D01*
X128268679Y-112575606D01*
X128363351Y-112365619D01*
X128384394Y-112296228D01*
X128324000Y-112115000D01*
X127375000Y-112115000D01*
X127375000Y-112135000D01*
X127125000Y-112135000D01*
X127125000Y-112115000D01*
X126176000Y-112115000D01*
X126115606Y-112296228D01*
X126136649Y-112365619D01*
X126231321Y-112575606D01*
X126365141Y-112763088D01*
X126532965Y-112920861D01*
X126728345Y-113042861D01*
X126943771Y-113124400D01*
X127124998Y-113064589D01*
X127124998Y-113125000D01*
X117250000Y-113125000D01*
X117225614Y-113127402D01*
X117202165Y-113134515D01*
X117180554Y-113146066D01*
X117161612Y-113161612D01*
X117146066Y-113180554D01*
X117134515Y-113202165D01*
X117127402Y-113225614D01*
X117125000Y-113250000D01*
X117125000Y-125125000D01*
X113000000Y-125125000D01*
X112975614Y-125127402D01*
X112952165Y-125134515D01*
X112930554Y-125146066D01*
X112911612Y-125161612D01*
X112896066Y-125180554D01*
X112884515Y-125202165D01*
X112877402Y-125225614D01*
X112875000Y-125250000D01*
X112875000Y-136600000D01*
X98400000Y-136600000D01*
X98400000Y-132634273D01*
X99825000Y-132634273D01*
X99825000Y-132865727D01*
X99870155Y-133092735D01*
X99958729Y-133306571D01*
X100087318Y-133499019D01*
X100250981Y-133662682D01*
X100443429Y-133791271D01*
X100657265Y-133879845D01*
X100884273Y-133925000D01*
X101115727Y-133925000D01*
X101342735Y-133879845D01*
X101556571Y-133791271D01*
X101749019Y-133662682D01*
X101912682Y-133499019D01*
X102041271Y-133306571D01*
X102129845Y-133092735D01*
X102175000Y-132865727D01*
X102175000Y-132634273D01*
X102129845Y-132407265D01*
X102041271Y-132193429D01*
X101912682Y-132000981D01*
X101749019Y-131837318D01*
X101556571Y-131708729D01*
X101342735Y-131620155D01*
X101115727Y-131575000D01*
X100884273Y-131575000D01*
X100657265Y-131620155D01*
X100443429Y-131708729D01*
X100250981Y-131837318D01*
X100087318Y-132000981D01*
X99958729Y-132193429D01*
X99870155Y-132407265D01*
X99825000Y-132634273D01*
X98400000Y-132634273D01*
X98400000Y-121634273D01*
X99665000Y-121634273D01*
X99665000Y-121865727D01*
X99710155Y-122092735D01*
X99798729Y-122306571D01*
X99927318Y-122499019D01*
X100090981Y-122662682D01*
X100283429Y-122791271D01*
X100497265Y-122879845D01*
X100724273Y-122925000D01*
X100955727Y-122925000D01*
X101182735Y-122879845D01*
X101239306Y-122856412D01*
X101969079Y-123586186D01*
X101984736Y-123605264D01*
X102060871Y-123667746D01*
X102147733Y-123714175D01*
X102241983Y-123742765D01*
X102315440Y-123750000D01*
X102315449Y-123750000D01*
X102339999Y-123752418D01*
X102364549Y-123750000D01*
X106292895Y-123750000D01*
X107050001Y-124507108D01*
X107050001Y-125363036D01*
X106989281Y-125249437D01*
X106886185Y-125123815D01*
X106760563Y-125020719D01*
X106617241Y-124944112D01*
X106461728Y-124896938D01*
X106340521Y-124885000D01*
X105259479Y-124885000D01*
X105138272Y-124896938D01*
X104982759Y-124944112D01*
X104839437Y-125020719D01*
X104713815Y-125123815D01*
X104610719Y-125249437D01*
X104534112Y-125392759D01*
X104486938Y-125548272D01*
X104471009Y-125710000D01*
X104486938Y-125871728D01*
X104534112Y-126027241D01*
X104610719Y-126170563D01*
X104713815Y-126296185D01*
X104839437Y-126399281D01*
X104982759Y-126475888D01*
X105116164Y-126516356D01*
X105100940Y-126553110D01*
X105075000Y-126683518D01*
X105075000Y-126816482D01*
X105088985Y-126886791D01*
X104980268Y-126931823D01*
X104869713Y-127005693D01*
X104775693Y-127099713D01*
X104701823Y-127210268D01*
X104650940Y-127333110D01*
X104625000Y-127463518D01*
X104625000Y-127596482D01*
X104650940Y-127726890D01*
X104701823Y-127849732D01*
X104763932Y-127942685D01*
X104713815Y-127983815D01*
X104610719Y-128109437D01*
X104534112Y-128252759D01*
X104486938Y-128408272D01*
X104471009Y-128570000D01*
X104486938Y-128731728D01*
X104534112Y-128887241D01*
X104610719Y-129030563D01*
X104713815Y-129156185D01*
X104839437Y-129259281D01*
X104982759Y-129335888D01*
X105138272Y-129383062D01*
X105259479Y-129395000D01*
X106340521Y-129395000D01*
X106461728Y-129383062D01*
X106617241Y-129335888D01*
X106760563Y-129259281D01*
X106886185Y-129156185D01*
X106989281Y-129030563D01*
X107065888Y-128887241D01*
X107113062Y-128731728D01*
X107128991Y-128570000D01*
X107113062Y-128408272D01*
X107065888Y-128252759D01*
X107040360Y-128205000D01*
X107166482Y-128205000D01*
X107296890Y-128179060D01*
X107419732Y-128128177D01*
X107530287Y-128054307D01*
X107550000Y-128034594D01*
X107569713Y-128054307D01*
X107680268Y-128128177D01*
X107803110Y-128179060D01*
X107933518Y-128205000D01*
X108066482Y-128205000D01*
X108100002Y-128198332D01*
X108100001Y-129825441D01*
X108097582Y-129850001D01*
X108101101Y-129885727D01*
X108107236Y-129948017D01*
X108135826Y-130042267D01*
X108182255Y-130129130D01*
X108244737Y-130205265D01*
X108263825Y-130220930D01*
X110165830Y-132122937D01*
X110118729Y-132193429D01*
X110030155Y-132407265D01*
X109985000Y-132634273D01*
X109985000Y-132865727D01*
X110030155Y-133092735D01*
X110118729Y-133306571D01*
X110247318Y-133499019D01*
X110410981Y-133662682D01*
X110603429Y-133791271D01*
X110817265Y-133879845D01*
X111044273Y-133925000D01*
X111275727Y-133925000D01*
X111502735Y-133879845D01*
X111716571Y-133791271D01*
X111909019Y-133662682D01*
X112072682Y-133499019D01*
X112201271Y-133306571D01*
X112289845Y-133092735D01*
X112335000Y-132865727D01*
X112335000Y-132634273D01*
X112289845Y-132407265D01*
X112201271Y-132193429D01*
X112072682Y-132000981D01*
X111909019Y-131837318D01*
X111716571Y-131708729D01*
X111502735Y-131620155D01*
X111479738Y-131615581D01*
X111439129Y-131582254D01*
X111352268Y-131535826D01*
X111258017Y-131507235D01*
X111160000Y-131497581D01*
X111061983Y-131507235D01*
X110987067Y-131529961D01*
X109100001Y-129642896D01*
X109100001Y-128177771D01*
X109219732Y-128128177D01*
X109330287Y-128054307D01*
X109348119Y-128036476D01*
X109409211Y-128097568D01*
X109471942Y-128034837D01*
X109410719Y-128109437D01*
X109334112Y-128252759D01*
X109286938Y-128408272D01*
X109271009Y-128570000D01*
X109286938Y-128731728D01*
X109334112Y-128887241D01*
X109410719Y-129030563D01*
X109513815Y-129156185D01*
X109639437Y-129259281D01*
X109782759Y-129335888D01*
X109938272Y-129383062D01*
X110059479Y-129395000D01*
X111140521Y-129395000D01*
X111261728Y-129383062D01*
X111417241Y-129335888D01*
X111560563Y-129259281D01*
X111686185Y-129156185D01*
X111789281Y-129030563D01*
X111865888Y-128887241D01*
X111913062Y-128731728D01*
X111928991Y-128570000D01*
X111913062Y-128408272D01*
X111865888Y-128252759D01*
X111789281Y-128109437D01*
X111686185Y-127983815D01*
X111560563Y-127880719D01*
X111417241Y-127804112D01*
X111328255Y-127777118D01*
X111349060Y-127726890D01*
X111375000Y-127596482D01*
X111375000Y-127463518D01*
X111361015Y-127393209D01*
X111469732Y-127348177D01*
X111580287Y-127274307D01*
X111674307Y-127180287D01*
X111748177Y-127069732D01*
X111799060Y-126946890D01*
X111825000Y-126816482D01*
X111825000Y-126683518D01*
X111799060Y-126553110D01*
X111748177Y-126430268D01*
X111674307Y-126319713D01*
X111666738Y-126312144D01*
X111686185Y-126296185D01*
X111789281Y-126170563D01*
X111865888Y-126027241D01*
X111913062Y-125871728D01*
X111928991Y-125710000D01*
X111913062Y-125548272D01*
X111865888Y-125392759D01*
X111789281Y-125249437D01*
X111686185Y-125123815D01*
X111560563Y-125020719D01*
X111417241Y-124944112D01*
X111261728Y-124896938D01*
X111140521Y-124885000D01*
X110059479Y-124885000D01*
X109938272Y-124896938D01*
X109782759Y-124944112D01*
X109639437Y-125020719D01*
X109513815Y-125123815D01*
X109410719Y-125249437D01*
X109334112Y-125392759D01*
X109286938Y-125548272D01*
X109271009Y-125710000D01*
X109286938Y-125871728D01*
X109334112Y-126027241D01*
X109359640Y-126075000D01*
X109283518Y-126075000D01*
X109153110Y-126100940D01*
X109030268Y-126151823D01*
X108919713Y-126225693D01*
X108900000Y-126245406D01*
X108880287Y-126225693D01*
X108769732Y-126151823D01*
X108646890Y-126100940D01*
X108516482Y-126075000D01*
X108383518Y-126075000D01*
X108253110Y-126100940D01*
X108130268Y-126151823D01*
X108050000Y-126205456D01*
X108050000Y-124324549D01*
X108052418Y-124299999D01*
X108050000Y-124275449D01*
X108050000Y-124275440D01*
X108042765Y-124201983D01*
X108014175Y-124107733D01*
X107967746Y-124020871D01*
X107905264Y-123944736D01*
X107886187Y-123929080D01*
X106870929Y-122913824D01*
X106855264Y-122894736D01*
X106779129Y-122832254D01*
X106692267Y-122785825D01*
X106598017Y-122757235D01*
X106524560Y-122750000D01*
X106500000Y-122747581D01*
X106475440Y-122750000D01*
X102547107Y-122750000D01*
X101946412Y-122149306D01*
X101969845Y-122092735D01*
X102015000Y-121865727D01*
X102015000Y-121634273D01*
X109825000Y-121634273D01*
X109825000Y-121865727D01*
X109870155Y-122092735D01*
X109958729Y-122306571D01*
X110087318Y-122499019D01*
X110250981Y-122662682D01*
X110443429Y-122791271D01*
X110657265Y-122879845D01*
X110884273Y-122925000D01*
X111115727Y-122925000D01*
X111342735Y-122879845D01*
X111556571Y-122791271D01*
X111749019Y-122662682D01*
X111912682Y-122499019D01*
X112041271Y-122306571D01*
X112129845Y-122092735D01*
X112175000Y-121865727D01*
X112175000Y-121634273D01*
X112129845Y-121407265D01*
X112041271Y-121193429D01*
X111912682Y-121000981D01*
X111749019Y-120837318D01*
X111556571Y-120708729D01*
X111342735Y-120620155D01*
X111115727Y-120575000D01*
X110884273Y-120575000D01*
X110657265Y-120620155D01*
X110443429Y-120708729D01*
X110250981Y-120837318D01*
X110087318Y-121000981D01*
X109958729Y-121193429D01*
X109870155Y-121407265D01*
X109825000Y-121634273D01*
X102015000Y-121634273D01*
X101969845Y-121407265D01*
X101881271Y-121193429D01*
X101752682Y-121000981D01*
X101589019Y-120837318D01*
X101396571Y-120708729D01*
X101182735Y-120620155D01*
X100955727Y-120575000D01*
X100724273Y-120575000D01*
X100497265Y-120620155D01*
X100283429Y-120708729D01*
X100090981Y-120837318D01*
X99927318Y-121000981D01*
X99798729Y-121193429D01*
X99710155Y-121407265D01*
X99665000Y-121634273D01*
X98400000Y-121634273D01*
X98400000Y-117375000D01*
X103000000Y-117375000D01*
X103024386Y-117372598D01*
X103047835Y-117365485D01*
X103069446Y-117353934D01*
X103088388Y-117338388D01*
X103103934Y-117319446D01*
X103115485Y-117297835D01*
X103122598Y-117274386D01*
X103125000Y-117250000D01*
X103125000Y-112300000D01*
X114573186Y-112300000D01*
X114580426Y-112373513D01*
X114601869Y-112444200D01*
X114636691Y-112509347D01*
X114683552Y-112566448D01*
X114740653Y-112613309D01*
X114805800Y-112648131D01*
X114876487Y-112669574D01*
X114950000Y-112676814D01*
X115531250Y-112675000D01*
X115625000Y-112581250D01*
X115625000Y-111625000D01*
X115875000Y-111625000D01*
X115875000Y-112581250D01*
X115968750Y-112675000D01*
X116550000Y-112676814D01*
X116623513Y-112669574D01*
X116694200Y-112648131D01*
X116759347Y-112613309D01*
X116773288Y-112601868D01*
X123574909Y-112601868D01*
X123661039Y-112773299D01*
X123871991Y-112868537D01*
X124097470Y-112920791D01*
X124328811Y-112928051D01*
X124557123Y-112890040D01*
X124773632Y-112808218D01*
X124838961Y-112773299D01*
X124925091Y-112601868D01*
X124250000Y-111926777D01*
X123574909Y-112601868D01*
X116773288Y-112601868D01*
X116816448Y-112566448D01*
X116863309Y-112509347D01*
X116898131Y-112444200D01*
X116919574Y-112373513D01*
X116926814Y-112300000D01*
X116925344Y-111828811D01*
X123071949Y-111828811D01*
X123109960Y-112057123D01*
X123191782Y-112273632D01*
X123226701Y-112338961D01*
X123398132Y-112425091D01*
X124073223Y-111750000D01*
X124426777Y-111750000D01*
X125101868Y-112425091D01*
X125273299Y-112338961D01*
X125368537Y-112128009D01*
X125420791Y-111902530D01*
X125427656Y-111683772D01*
X126115606Y-111683772D01*
X126176000Y-111865000D01*
X127125000Y-111865000D01*
X127125000Y-110915412D01*
X127375000Y-110915412D01*
X127375000Y-111865000D01*
X128324000Y-111865000D01*
X128384394Y-111683772D01*
X128363351Y-111614381D01*
X128268679Y-111404394D01*
X128134859Y-111216912D01*
X127967035Y-111059139D01*
X127771655Y-110937139D01*
X127556229Y-110855600D01*
X127375000Y-110915412D01*
X127125000Y-110915412D01*
X126943771Y-110855600D01*
X126728345Y-110937139D01*
X126532965Y-111059139D01*
X126365141Y-111216912D01*
X126231321Y-111404394D01*
X126136649Y-111614381D01*
X126115606Y-111683772D01*
X125427656Y-111683772D01*
X125428051Y-111671189D01*
X125390040Y-111442877D01*
X125308218Y-111226368D01*
X125273299Y-111161039D01*
X125101868Y-111074909D01*
X124426777Y-111750000D01*
X124073223Y-111750000D01*
X123398132Y-111074909D01*
X123226701Y-111161039D01*
X123131463Y-111371991D01*
X123079209Y-111597470D01*
X123071949Y-111828811D01*
X116925344Y-111828811D01*
X116925000Y-111718750D01*
X116831250Y-111625000D01*
X115875000Y-111625000D01*
X115625000Y-111625000D01*
X114668750Y-111625000D01*
X114575000Y-111718750D01*
X114573186Y-112300000D01*
X103125000Y-112300000D01*
X103125000Y-110625000D01*
X114580877Y-110625000D01*
X114580426Y-110626487D01*
X114573186Y-110700000D01*
X114575000Y-111281250D01*
X114668750Y-111375000D01*
X115625000Y-111375000D01*
X115625000Y-111355000D01*
X115875000Y-111355000D01*
X115875000Y-111375000D01*
X116831250Y-111375000D01*
X116925000Y-111281250D01*
X116926814Y-110700000D01*
X116919574Y-110626487D01*
X116919123Y-110625000D01*
X118750000Y-110625000D01*
X118774386Y-110622598D01*
X118797835Y-110615485D01*
X118819446Y-110603934D01*
X118838388Y-110588388D01*
X118853934Y-110569446D01*
X118865485Y-110547835D01*
X118872598Y-110524386D01*
X118875000Y-110500000D01*
X118875000Y-107601868D01*
X120074909Y-107601868D01*
X120161039Y-107773299D01*
X120371991Y-107868537D01*
X120597470Y-107920791D01*
X120828811Y-107928051D01*
X121057123Y-107890040D01*
X121273632Y-107808218D01*
X121338961Y-107773299D01*
X121425091Y-107601868D01*
X120750000Y-106926777D01*
X120074909Y-107601868D01*
X118875000Y-107601868D01*
X118875000Y-106828811D01*
X119571949Y-106828811D01*
X119609960Y-107057123D01*
X119691782Y-107273632D01*
X119726701Y-107338961D01*
X119898132Y-107425091D01*
X120573223Y-106750000D01*
X120926777Y-106750000D01*
X121601868Y-107425091D01*
X121773299Y-107338961D01*
X121868537Y-107128009D01*
X121920791Y-106902530D01*
X121928051Y-106671189D01*
X121890040Y-106442877D01*
X121808218Y-106226368D01*
X121773299Y-106161039D01*
X121601868Y-106074909D01*
X120926777Y-106750000D01*
X120573223Y-106750000D01*
X119898132Y-106074909D01*
X119726701Y-106161039D01*
X119631463Y-106371991D01*
X119579209Y-106597470D01*
X119571949Y-106828811D01*
X118875000Y-106828811D01*
X118875000Y-105898132D01*
X120074909Y-105898132D01*
X120750000Y-106573223D01*
X121425091Y-105898132D01*
X121338961Y-105726701D01*
X121128009Y-105631463D01*
X120902530Y-105579209D01*
X120671189Y-105571949D01*
X120442877Y-105609960D01*
X120226368Y-105691782D01*
X120161039Y-105726701D01*
X120074909Y-105898132D01*
X118875000Y-105898132D01*
X118875000Y-104625000D01*
X122625000Y-104625000D01*
X122625000Y-110500000D01*
G36*
X106390919Y-127515858D02*
G01*
X106376777Y-127530000D01*
X106390919Y-127544142D01*
X106214142Y-127720919D01*
X106200000Y-127706777D01*
X106185858Y-127720919D01*
X106009081Y-127544142D01*
X106023223Y-127530000D01*
X106009081Y-127515858D01*
X106185858Y-127339081D01*
X106200000Y-127353223D01*
X106214142Y-127339081D01*
X106390919Y-127515858D01*
G37*
X106390919Y-127515858D02*
X106376777Y-127530000D01*
X106390919Y-127544142D01*
X106214142Y-127720919D01*
X106200000Y-127706777D01*
X106185858Y-127720919D01*
X106009081Y-127544142D01*
X106023223Y-127530000D01*
X106009081Y-127515858D01*
X106185858Y-127339081D01*
X106200000Y-127353223D01*
X106214142Y-127339081D01*
X106390919Y-127515858D01*
G36*
X109990919Y-127515858D02*
G01*
X109976777Y-127530000D01*
X109990919Y-127544142D01*
X109814142Y-127720919D01*
X109800000Y-127706777D01*
X109785858Y-127720919D01*
X109609081Y-127544142D01*
X109623223Y-127530000D01*
X109609081Y-127515858D01*
X109785858Y-127339081D01*
X109800000Y-127353223D01*
X109814142Y-127339081D01*
X109990919Y-127515858D01*
G37*
X109990919Y-127515858D02*
X109976777Y-127530000D01*
X109990919Y-127544142D01*
X109814142Y-127720919D01*
X109800000Y-127706777D01*
X109785858Y-127720919D01*
X109609081Y-127544142D01*
X109623223Y-127530000D01*
X109609081Y-127515858D01*
X109785858Y-127339081D01*
X109800000Y-127353223D01*
X109814142Y-127339081D01*
X109990919Y-127515858D01*
G36*
X106840919Y-126735858D02*
G01*
X106826777Y-126750000D01*
X106840919Y-126764142D01*
X106664142Y-126940919D01*
X106650000Y-126926777D01*
X106635858Y-126940919D01*
X106459081Y-126764142D01*
X106473223Y-126750000D01*
X106459081Y-126735858D01*
X106635858Y-126559081D01*
X106650000Y-126573223D01*
X106664142Y-126559081D01*
X106840919Y-126735858D01*
G37*
X106840919Y-126735858D02*
X106826777Y-126750000D01*
X106840919Y-126764142D01*
X106664142Y-126940919D01*
X106650000Y-126926777D01*
X106635858Y-126940919D01*
X106459081Y-126764142D01*
X106473223Y-126750000D01*
X106459081Y-126735858D01*
X106635858Y-126559081D01*
X106650000Y-126573223D01*
X106664142Y-126559081D01*
X106840919Y-126735858D01*
G36*
X110440919Y-126735858D02*
G01*
X110426777Y-126750000D01*
X110440919Y-126764142D01*
X110264142Y-126940919D01*
X110250000Y-126926777D01*
X110235858Y-126940919D01*
X110059081Y-126764142D01*
X110073223Y-126750000D01*
X110059081Y-126735858D01*
X110235858Y-126559081D01*
X110250000Y-126573223D01*
X110264142Y-126559081D01*
X110440919Y-126735858D01*
G37*
X110440919Y-126735858D02*
X110426777Y-126750000D01*
X110440919Y-126764142D01*
X110264142Y-126940919D01*
X110250000Y-126926777D01*
X110235858Y-126940919D01*
X110059081Y-126764142D01*
X110073223Y-126750000D01*
X110059081Y-126735858D01*
X110235858Y-126559081D01*
X110250000Y-126573223D01*
X110264142Y-126559081D01*
X110440919Y-126735858D01*
%TD*%
M02*
