M48
; DRILL file {KiCad (5.1.6)-1} date 05/26/20 20:51:28
; FORMAT={-:-/ absolute / inch / decimal}
; #@! TF.CreationDate,2020-05-26T20:51:28-04:00
; #@! TF.GenerationSoftware,Kicad,Pcbnew,(5.1.6)-1
FMAT,2
INCH
T1C0.0157
T2C0.0197
T3C0.0236
T4C0.0295
T5C0.0315
T6C0.0394
T7C0.0433
%
G90
G05
T1
X4.1457Y-5.0209
X4.1634Y-4.9902
X4.1811Y-5.0209
X4.1988Y-4.9902
X4.2165Y-5.0209
X4.2343Y-4.9902
X4.252Y-5.0209
X4.2697Y-4.9902
X4.2874Y-5.0209
X4.3051Y-4.9902
X4.3228Y-5.0209
X4.3406Y-4.9902
X4.3583Y-5.0209
X4.376Y-4.9902
T2
X4.872Y-4.6161
X4.872Y-4.7146
T4
X6.0039Y-3.8386
X6.0539Y-3.8386
X6.1039Y-3.8386
X6.0039Y-3.4449
X6.0539Y-3.4449
X6.1039Y-3.4449
X6.0039Y-3.6417
X6.0539Y-3.6417
X6.1039Y-3.6417
X6.0039Y-4.626
X6.0539Y-4.626
X6.1039Y-4.626
X6.0039Y-4.8228
X6.0539Y-4.8228
X6.1039Y-4.8228
X6.0039Y-4.2323
X6.0539Y-4.2323
X6.1039Y-4.2323
X6.0039Y-4.4291
X6.0539Y-4.4291
X6.1039Y-4.4291
X6.0039Y-4.0354
X6.0539Y-4.0354
X6.1039Y-4.0354
T5
X5.7087Y-4.311
X5.7087Y-4.711
X4.5177Y-5.0197
X4.9177Y-5.0197
X5.4232Y-4.6161
X5.4232Y-4.813
X4.6752Y-4.8819
X4.872Y-4.8819
X4.8031Y-3.1496
X4.8031Y-3.5496
X4.8917Y-4.2028
X4.8917Y-4.3996
X4.7244Y-4.5768
X4.7244Y-4.7736
X5.5709Y-3.9075
X5.5709Y-4.3075
X5.0787Y-3.1496
X5.0787Y-3.5496
X4.5571Y-4.2913
X4.5571Y-4.3898
X5.6299Y-3.1496
X5.6299Y-3.5496
X4.9409Y-3.1496
X4.9409Y-3.5496
X5.4232Y-4.311
X5.4232Y-4.5079
X3.9701Y-4.7933
X4.3701Y-4.7933
X4.5177Y-5.1575
X4.9177Y-5.1575
X3.9764Y-5.2264
X4.3764Y-5.2264
X5.4921Y-3.1496
X5.4921Y-3.5496
X4.6654Y-3.1496
X4.6654Y-3.5496
X5.0098Y-3.8091
X5.0098Y-3.9091
X5.0098Y-4.0091
X5.0098Y-4.1091
X5.0098Y-4.2091
X5.0098Y-4.3091
X5.0098Y-4.4091
X5.0098Y-4.5091
X5.0098Y-4.6091
X5.0098Y-4.7091
X5.0098Y-4.8091
X5.0098Y-4.9091
X5.0098Y-5.0091
X5.0098Y-5.1091
X5.3098Y-3.8091
X5.3098Y-3.9091
X5.3098Y-4.0091
X5.3098Y-4.1091
X5.3098Y-4.2091
X5.3098Y-4.3091
X5.3098Y-4.4091
X5.3098Y-4.5091
X5.3098Y-4.6091
X5.3098Y-4.7091
X5.3098Y-4.8091
X5.3098Y-4.9091
X5.3098Y-5.0091
X5.3098Y-5.1091
X5.6039Y-5.2165
X6.0039Y-5.2165
X5.4957Y-4.9311
X5.8957Y-4.9311
X5.3543Y-3.1496
X5.3543Y-3.5496
X5.4957Y-5.0689
X5.8957Y-5.0689
X5.8465Y-4.311
X5.8465Y-4.711
X5.2165Y-3.1496
X5.2165Y-3.5496
X4.7539Y-3.8028
X4.7539Y-4.2028
T6
X4.7638Y-3.0315
X4.8638Y-3.0315
X4.9638Y-3.0315
X5.0638Y-3.0315
X5.1638Y-3.0315
X5.2638Y-3.0315
X5.3638Y-3.0315
X5.4638Y-3.0315
X5.5638Y-3.0315
X4.7528Y-5.2953
X4.8528Y-5.2953
X4.9528Y-5.2953
X5.0528Y-5.2953
X5.1528Y-5.2953
X5.2528Y-5.2953
X5.3528Y-5.2953
X5.4528Y-5.2953
X4.2815Y-3.4417
X4.2815Y-3.5417
X4.2815Y-3.6417
X3.9567Y-3.8276
X3.9567Y-3.9276
X3.9567Y-4.0276
X3.9567Y-4.1276
X3.9567Y-4.2276
X3.9567Y-4.3276
X3.9567Y-4.4276
X3.9567Y-4.5276
X6.2402Y-3.7598
X6.2402Y-3.8598
X6.2402Y-3.9598
X6.2402Y-4.0598
X6.2402Y-4.1598
X6.2402Y-4.2598
X6.2402Y-4.3598
X6.2402Y-4.4598
T7
X3.9567Y-3.0118
X3.9567Y-3.2677
X4.1339Y-3.0118
X4.1339Y-3.2677
T3
G00X4.185Y-4.9492
M15
G01X4.1457Y-4.9492
M16
G05
G00X4.185Y-5.0618
M15
G01X4.1457Y-5.0618
M16
G05
G00X4.374Y-4.9492
M15
G01X4.3346Y-4.9492
M16
G05
G00X4.374Y-5.0618
M15
G01X4.3346Y-5.0618
M16
G05
T0
M30
