%TF.GenerationSoftware,KiCad,Pcbnew,(5.1.6)-1*%
%TF.CreationDate,2020-05-26T20:54:03-04:00*%
%TF.ProjectId,ArduinoLife2-CPU,41726475-696e-46f4-9c69-6665322d4350,rev?*%
%TF.SameCoordinates,Original*%
%TF.FileFunction,Legend,Top*%
%TF.FilePolarity,Positive*%
%FSLAX46Y46*%
G04 Gerber Fmt 4.6, Leading zero omitted, Abs format (unit mm)*
G04 Created by KiCad (PCBNEW (5.1.6)-1) date 2020-05-26 20:54:03*
%MOMM*%
%LPD*%
G01*
G04 APERTURE LIST*
%ADD10C,0.150000*%
%ADD11C,0.120000*%
G04 APERTURE END LIST*
D10*
X110942738Y-89452380D02*
X111514166Y-89452380D01*
X111228452Y-90452380D02*
X111228452Y-89452380D01*
X111752261Y-89452380D02*
X112418928Y-90452380D01*
X112418928Y-89452380D02*
X111752261Y-90452380D01*
X111657023Y-87952380D02*
X111323690Y-87476190D01*
X111085595Y-87952380D02*
X111085595Y-86952380D01*
X111466547Y-86952380D01*
X111561785Y-87000000D01*
X111609404Y-87047619D01*
X111657023Y-87142857D01*
X111657023Y-87285714D01*
X111609404Y-87380952D01*
X111561785Y-87428571D01*
X111466547Y-87476190D01*
X111085595Y-87476190D01*
X111990357Y-86952380D02*
X112657023Y-87952380D01*
X112657023Y-86952380D02*
X111990357Y-87952380D01*
X111609404Y-92000000D02*
X111514166Y-91952380D01*
X111371309Y-91952380D01*
X111228452Y-92000000D01*
X111133214Y-92095238D01*
X111085595Y-92190476D01*
X111037976Y-92380952D01*
X111037976Y-92523809D01*
X111085595Y-92714285D01*
X111133214Y-92809523D01*
X111228452Y-92904761D01*
X111371309Y-92952380D01*
X111466547Y-92952380D01*
X111609404Y-92904761D01*
X111657023Y-92857142D01*
X111657023Y-92523809D01*
X111466547Y-92523809D01*
X112085595Y-92952380D02*
X112085595Y-91952380D01*
X112657023Y-92952380D01*
X112657023Y-91952380D01*
X113133214Y-92952380D02*
X113133214Y-91952380D01*
X113371309Y-91952380D01*
X113514166Y-92000000D01*
X113609404Y-92095238D01*
X113657023Y-92190476D01*
X113704642Y-92380952D01*
X113704642Y-92523809D01*
X113657023Y-92714285D01*
X113609404Y-92809523D01*
X113514166Y-92904761D01*
X113371309Y-92952380D01*
X113133214Y-92952380D01*
X110547619Y-136202380D02*
X110738095Y-136202380D01*
X110833333Y-136154761D01*
X110880952Y-136107142D01*
X110976190Y-135964285D01*
X111023809Y-135773809D01*
X111023809Y-135392857D01*
X110976190Y-135297619D01*
X110928571Y-135250000D01*
X110833333Y-135202380D01*
X110642857Y-135202380D01*
X110547619Y-135250000D01*
X110500000Y-135297619D01*
X110452380Y-135392857D01*
X110452380Y-135630952D01*
X110500000Y-135726190D01*
X110547619Y-135773809D01*
X110642857Y-135821428D01*
X110833333Y-135821428D01*
X110928571Y-135773809D01*
X110976190Y-135726190D01*
X111023809Y-135630952D01*
X111452380Y-135821428D02*
X112214285Y-135821428D01*
X113214285Y-136202380D02*
X112642857Y-136202380D01*
X112928571Y-136202380D02*
X112928571Y-135202380D01*
X112833333Y-135345238D01*
X112738095Y-135440476D01*
X112642857Y-135488095D01*
X113595238Y-135297619D02*
X113642857Y-135250000D01*
X113738095Y-135202380D01*
X113976190Y-135202380D01*
X114071428Y-135250000D01*
X114119047Y-135297619D01*
X114166666Y-135392857D01*
X114166666Y-135488095D01*
X114119047Y-135630952D01*
X113547619Y-136202380D01*
X114166666Y-136202380D01*
X115214285Y-135202380D02*
X115547619Y-136202380D01*
X115880952Y-135202380D01*
X116976190Y-136202380D02*
X116976190Y-135202380D01*
X117214285Y-135202380D01*
X117357142Y-135250000D01*
X117452380Y-135345238D01*
X117500000Y-135440476D01*
X117547619Y-135630952D01*
X117547619Y-135773809D01*
X117500000Y-135964285D01*
X117452380Y-136059523D01*
X117357142Y-136154761D01*
X117214285Y-136202380D01*
X116976190Y-136202380D01*
X118547619Y-136107142D02*
X118500000Y-136154761D01*
X118357142Y-136202380D01*
X118261904Y-136202380D01*
X118119047Y-136154761D01*
X118023809Y-136059523D01*
X117976190Y-135964285D01*
X117928571Y-135773809D01*
X117928571Y-135630952D01*
X117976190Y-135440476D01*
X118023809Y-135345238D01*
X118119047Y-135250000D01*
X118261904Y-135202380D01*
X118357142Y-135202380D01*
X118500000Y-135250000D01*
X118547619Y-135297619D01*
X113297619Y-87464285D02*
X114297619Y-87464285D01*
X114297619Y-87845238D01*
X114250000Y-87940476D01*
X114202380Y-87988095D01*
X114107142Y-88035714D01*
X113964285Y-88035714D01*
X113869047Y-87988095D01*
X113821428Y-87940476D01*
X113773809Y-87845238D01*
X113773809Y-87464285D01*
X113297619Y-89035714D02*
X113773809Y-88702380D01*
X113297619Y-88464285D02*
X114297619Y-88464285D01*
X114297619Y-88845238D01*
X114250000Y-88940476D01*
X114202380Y-88988095D01*
X114107142Y-89035714D01*
X113964285Y-89035714D01*
X113869047Y-88988095D01*
X113821428Y-88940476D01*
X113773809Y-88845238D01*
X113773809Y-88464285D01*
X114297619Y-89654761D02*
X114297619Y-89845238D01*
X114250000Y-89940476D01*
X114154761Y-90035714D01*
X113964285Y-90083333D01*
X113630952Y-90083333D01*
X113440476Y-90035714D01*
X113345238Y-89940476D01*
X113297619Y-89845238D01*
X113297619Y-89654761D01*
X113345238Y-89559523D01*
X113440476Y-89464285D01*
X113630952Y-89416666D01*
X113964285Y-89416666D01*
X114154761Y-89464285D01*
X114250000Y-89559523D01*
X114297619Y-89654761D01*
X114250000Y-91035714D02*
X114297619Y-90940476D01*
X114297619Y-90797619D01*
X114250000Y-90654761D01*
X114154761Y-90559523D01*
X114059523Y-90511904D01*
X113869047Y-90464285D01*
X113726190Y-90464285D01*
X113535714Y-90511904D01*
X113440476Y-90559523D01*
X113345238Y-90654761D01*
X113297619Y-90797619D01*
X113297619Y-90892857D01*
X113345238Y-91035714D01*
X113392857Y-91083333D01*
X113726190Y-91083333D01*
X113726190Y-90892857D01*
X107047619Y-78047619D02*
X107523809Y-77714285D01*
X107047619Y-77476190D02*
X108047619Y-77476190D01*
X108047619Y-77857142D01*
X108000000Y-77952380D01*
X107952380Y-78000000D01*
X107857142Y-78047619D01*
X107714285Y-78047619D01*
X107619047Y-78000000D01*
X107571428Y-77952380D01*
X107523809Y-77857142D01*
X107523809Y-77476190D01*
X107571428Y-78476190D02*
X107571428Y-78809523D01*
X107047619Y-78952380D02*
X107047619Y-78476190D01*
X108047619Y-78476190D01*
X108047619Y-78952380D01*
X107095238Y-79333333D02*
X107047619Y-79476190D01*
X107047619Y-79714285D01*
X107095238Y-79809523D01*
X107142857Y-79857142D01*
X107238095Y-79904761D01*
X107333333Y-79904761D01*
X107428571Y-79857142D01*
X107476190Y-79809523D01*
X107523809Y-79714285D01*
X107571428Y-79523809D01*
X107619047Y-79428571D01*
X107666666Y-79380952D01*
X107761904Y-79333333D01*
X107857142Y-79333333D01*
X107952380Y-79380952D01*
X108000000Y-79428571D01*
X108047619Y-79523809D01*
X108047619Y-79761904D01*
X108000000Y-79904761D01*
X107571428Y-80333333D02*
X107571428Y-80666666D01*
X107047619Y-80809523D02*
X107047619Y-80333333D01*
X108047619Y-80333333D01*
X108047619Y-80809523D01*
X108047619Y-81095238D02*
X108047619Y-81666666D01*
X107047619Y-81380952D02*
X108047619Y-81380952D01*
%TO.C,J6*%
X112250000Y-128950000D02*
X97700000Y-128950000D01*
X112250000Y-125350000D02*
X97700000Y-125350000D01*
X112250000Y-125350000D02*
X112250000Y-128950000D01*
X97700000Y-125350000D02*
X97700000Y-128950000D01*
D11*
%TO.C,R17*%
X109190000Y-123120000D02*
X109190000Y-120380000D01*
X109190000Y-120380000D02*
X102650000Y-120380000D01*
X102650000Y-120380000D02*
X102650000Y-123120000D01*
X102650000Y-123120000D02*
X109190000Y-123120000D01*
X109960000Y-121750000D02*
X109190000Y-121750000D01*
X101880000Y-121750000D02*
X102650000Y-121750000D01*
%TO.C,R18*%
X110120000Y-132750000D02*
X109350000Y-132750000D01*
X102040000Y-132750000D02*
X102810000Y-132750000D01*
X109350000Y-131380000D02*
X102810000Y-131380000D01*
X109350000Y-134120000D02*
X109350000Y-131380000D01*
X102810000Y-134120000D02*
X109350000Y-134120000D01*
X102810000Y-131380000D02*
X102810000Y-134120000D01*
D10*
%TO.C,Y1*%
X121750000Y-117200000D02*
X121750000Y-119800000D01*
X125750000Y-117200000D02*
X125750000Y-119800000D01*
X121750000Y-117200000D02*
G75*
G02*
X125750000Y-117200000I2000000J0D01*
G01*
X125750000Y-119800000D02*
G75*
G02*
X121750000Y-119800000I-2000000J0D01*
G01*
D11*
%TO.C,R1*%
X141500000Y-108370000D02*
X141500000Y-107600000D01*
X141500000Y-100290000D02*
X141500000Y-101060000D01*
X142870000Y-107600000D02*
X142870000Y-101060000D01*
X140130000Y-107600000D02*
X142870000Y-107600000D01*
X140130000Y-101060000D02*
X140130000Y-107600000D01*
X142870000Y-101060000D02*
X140130000Y-101060000D01*
%TO.C,J5*%
X107310000Y-93830000D02*
X107310000Y-86090000D01*
X107310000Y-86090000D02*
X104650000Y-86090000D01*
X104650000Y-86090000D02*
X104650000Y-93830000D01*
X104650000Y-93830000D02*
X107310000Y-93830000D01*
X104650000Y-92880000D02*
X98650000Y-92880000D01*
X98650000Y-92880000D02*
X98650000Y-92120000D01*
X98650000Y-92120000D02*
X104650000Y-92120000D01*
X104650000Y-92820000D02*
X98650000Y-92820000D01*
X104650000Y-92700000D02*
X98650000Y-92700000D01*
X104650000Y-92580000D02*
X98650000Y-92580000D01*
X104650000Y-92460000D02*
X98650000Y-92460000D01*
X104650000Y-92340000D02*
X98650000Y-92340000D01*
X104650000Y-92220000D02*
X98650000Y-92220000D01*
X107640000Y-92880000D02*
X107310000Y-92880000D01*
X107640000Y-92120000D02*
X107310000Y-92120000D01*
X107310000Y-91230000D02*
X104650000Y-91230000D01*
X104650000Y-90340000D02*
X98650000Y-90340000D01*
X98650000Y-90340000D02*
X98650000Y-89580000D01*
X98650000Y-89580000D02*
X104650000Y-89580000D01*
X107707071Y-90340000D02*
X107310000Y-90340000D01*
X107707071Y-89580000D02*
X107310000Y-89580000D01*
X107310000Y-88690000D02*
X104650000Y-88690000D01*
X104650000Y-87800000D02*
X98650000Y-87800000D01*
X98650000Y-87800000D02*
X98650000Y-87040000D01*
X98650000Y-87040000D02*
X104650000Y-87040000D01*
X107707071Y-87800000D02*
X107310000Y-87800000D01*
X107707071Y-87040000D02*
X107310000Y-87040000D01*
X110020000Y-92500000D02*
X110020000Y-93770000D01*
X110020000Y-93770000D02*
X108750000Y-93770000D01*
%TO.C,C3*%
X136754000Y-114560000D02*
X136440000Y-114560000D01*
X139060000Y-114560000D02*
X138746000Y-114560000D01*
X136754000Y-109440000D02*
X136440000Y-109440000D01*
X139060000Y-109440000D02*
X138746000Y-109440000D01*
X136440000Y-109440000D02*
X136440000Y-114560000D01*
X139060000Y-109440000D02*
X139060000Y-114560000D01*
%TO.C,C1*%
X125560000Y-106690000D02*
X125560000Y-111810000D01*
X122940000Y-106690000D02*
X122940000Y-111810000D01*
X125560000Y-106690000D02*
X125246000Y-106690000D01*
X123254000Y-106690000D02*
X122940000Y-106690000D01*
X125560000Y-111810000D02*
X125246000Y-111810000D01*
X123254000Y-111810000D02*
X122940000Y-111810000D01*
%TO.C,C2*%
X138746000Y-117190000D02*
X139060000Y-117190000D01*
X136440000Y-117190000D02*
X136754000Y-117190000D01*
X138746000Y-122310000D02*
X139060000Y-122310000D01*
X136440000Y-122310000D02*
X136754000Y-122310000D01*
X139060000Y-122310000D02*
X139060000Y-117190000D01*
X136440000Y-122310000D02*
X136440000Y-117190000D01*
%TO.C,C4*%
X120996000Y-116190000D02*
X121310000Y-116190000D01*
X118690000Y-116190000D02*
X119004000Y-116190000D01*
X120996000Y-121310000D02*
X121310000Y-121310000D01*
X118690000Y-121310000D02*
X119004000Y-121310000D01*
X121310000Y-121310000D02*
X121310000Y-116190000D01*
X118690000Y-121310000D02*
X118690000Y-116190000D01*
%TO.C,C5*%
X118690000Y-122690000D02*
X123810000Y-122690000D01*
X118690000Y-125310000D02*
X123810000Y-125310000D01*
X118690000Y-122690000D02*
X118690000Y-123004000D01*
X118690000Y-124996000D02*
X118690000Y-125310000D01*
X123810000Y-122690000D02*
X123810000Y-123004000D01*
X123810000Y-124996000D02*
X123810000Y-125310000D01*
%TO.C,C6*%
X119020000Y-110250000D02*
G75*
G03*
X119020000Y-110250000I-3270000J0D01*
G01*
X112520000Y-110250000D02*
X118980000Y-110250000D01*
X112520000Y-110210000D02*
X118980000Y-110210000D01*
X112520000Y-110170000D02*
X118980000Y-110170000D01*
X112522000Y-110130000D02*
X118978000Y-110130000D01*
X112523000Y-110090000D02*
X118977000Y-110090000D01*
X112526000Y-110050000D02*
X118974000Y-110050000D01*
X112528000Y-110010000D02*
X114710000Y-110010000D01*
X116790000Y-110010000D02*
X118972000Y-110010000D01*
X112532000Y-109970000D02*
X114710000Y-109970000D01*
X116790000Y-109970000D02*
X118968000Y-109970000D01*
X112535000Y-109930000D02*
X114710000Y-109930000D01*
X116790000Y-109930000D02*
X118965000Y-109930000D01*
X112539000Y-109890000D02*
X114710000Y-109890000D01*
X116790000Y-109890000D02*
X118961000Y-109890000D01*
X112544000Y-109850000D02*
X114710000Y-109850000D01*
X116790000Y-109850000D02*
X118956000Y-109850000D01*
X112549000Y-109810000D02*
X114710000Y-109810000D01*
X116790000Y-109810000D02*
X118951000Y-109810000D01*
X112555000Y-109770000D02*
X114710000Y-109770000D01*
X116790000Y-109770000D02*
X118945000Y-109770000D01*
X112561000Y-109730000D02*
X114710000Y-109730000D01*
X116790000Y-109730000D02*
X118939000Y-109730000D01*
X112568000Y-109690000D02*
X114710000Y-109690000D01*
X116790000Y-109690000D02*
X118932000Y-109690000D01*
X112575000Y-109650000D02*
X114710000Y-109650000D01*
X116790000Y-109650000D02*
X118925000Y-109650000D01*
X112583000Y-109610000D02*
X114710000Y-109610000D01*
X116790000Y-109610000D02*
X118917000Y-109610000D01*
X112591000Y-109570000D02*
X114710000Y-109570000D01*
X116790000Y-109570000D02*
X118909000Y-109570000D01*
X112600000Y-109529000D02*
X114710000Y-109529000D01*
X116790000Y-109529000D02*
X118900000Y-109529000D01*
X112609000Y-109489000D02*
X114710000Y-109489000D01*
X116790000Y-109489000D02*
X118891000Y-109489000D01*
X112619000Y-109449000D02*
X114710000Y-109449000D01*
X116790000Y-109449000D02*
X118881000Y-109449000D01*
X112629000Y-109409000D02*
X114710000Y-109409000D01*
X116790000Y-109409000D02*
X118871000Y-109409000D01*
X112640000Y-109369000D02*
X114710000Y-109369000D01*
X116790000Y-109369000D02*
X118860000Y-109369000D01*
X112652000Y-109329000D02*
X114710000Y-109329000D01*
X116790000Y-109329000D02*
X118848000Y-109329000D01*
X112664000Y-109289000D02*
X114710000Y-109289000D01*
X116790000Y-109289000D02*
X118836000Y-109289000D01*
X112676000Y-109249000D02*
X114710000Y-109249000D01*
X116790000Y-109249000D02*
X118824000Y-109249000D01*
X112689000Y-109209000D02*
X114710000Y-109209000D01*
X116790000Y-109209000D02*
X118811000Y-109209000D01*
X112703000Y-109169000D02*
X114710000Y-109169000D01*
X116790000Y-109169000D02*
X118797000Y-109169000D01*
X112717000Y-109129000D02*
X114710000Y-109129000D01*
X116790000Y-109129000D02*
X118783000Y-109129000D01*
X112732000Y-109089000D02*
X114710000Y-109089000D01*
X116790000Y-109089000D02*
X118768000Y-109089000D01*
X112748000Y-109049000D02*
X114710000Y-109049000D01*
X116790000Y-109049000D02*
X118752000Y-109049000D01*
X112764000Y-109009000D02*
X114710000Y-109009000D01*
X116790000Y-109009000D02*
X118736000Y-109009000D01*
X112780000Y-108969000D02*
X114710000Y-108969000D01*
X116790000Y-108969000D02*
X118720000Y-108969000D01*
X112798000Y-108929000D02*
X114710000Y-108929000D01*
X116790000Y-108929000D02*
X118702000Y-108929000D01*
X112816000Y-108889000D02*
X114710000Y-108889000D01*
X116790000Y-108889000D02*
X118684000Y-108889000D01*
X112834000Y-108849000D02*
X114710000Y-108849000D01*
X116790000Y-108849000D02*
X118666000Y-108849000D01*
X112854000Y-108809000D02*
X114710000Y-108809000D01*
X116790000Y-108809000D02*
X118646000Y-108809000D01*
X112874000Y-108769000D02*
X114710000Y-108769000D01*
X116790000Y-108769000D02*
X118626000Y-108769000D01*
X112894000Y-108729000D02*
X114710000Y-108729000D01*
X116790000Y-108729000D02*
X118606000Y-108729000D01*
X112916000Y-108689000D02*
X114710000Y-108689000D01*
X116790000Y-108689000D02*
X118584000Y-108689000D01*
X112938000Y-108649000D02*
X114710000Y-108649000D01*
X116790000Y-108649000D02*
X118562000Y-108649000D01*
X112960000Y-108609000D02*
X114710000Y-108609000D01*
X116790000Y-108609000D02*
X118540000Y-108609000D01*
X112984000Y-108569000D02*
X114710000Y-108569000D01*
X116790000Y-108569000D02*
X118516000Y-108569000D01*
X113008000Y-108529000D02*
X114710000Y-108529000D01*
X116790000Y-108529000D02*
X118492000Y-108529000D01*
X113034000Y-108489000D02*
X114710000Y-108489000D01*
X116790000Y-108489000D02*
X118466000Y-108489000D01*
X113060000Y-108449000D02*
X114710000Y-108449000D01*
X116790000Y-108449000D02*
X118440000Y-108449000D01*
X113086000Y-108409000D02*
X114710000Y-108409000D01*
X116790000Y-108409000D02*
X118414000Y-108409000D01*
X113114000Y-108369000D02*
X114710000Y-108369000D01*
X116790000Y-108369000D02*
X118386000Y-108369000D01*
X113143000Y-108329000D02*
X114710000Y-108329000D01*
X116790000Y-108329000D02*
X118357000Y-108329000D01*
X113172000Y-108289000D02*
X114710000Y-108289000D01*
X116790000Y-108289000D02*
X118328000Y-108289000D01*
X113202000Y-108249000D02*
X114710000Y-108249000D01*
X116790000Y-108249000D02*
X118298000Y-108249000D01*
X113234000Y-108209000D02*
X114710000Y-108209000D01*
X116790000Y-108209000D02*
X118266000Y-108209000D01*
X113266000Y-108169000D02*
X114710000Y-108169000D01*
X116790000Y-108169000D02*
X118234000Y-108169000D01*
X113300000Y-108129000D02*
X114710000Y-108129000D01*
X116790000Y-108129000D02*
X118200000Y-108129000D01*
X113334000Y-108089000D02*
X114710000Y-108089000D01*
X116790000Y-108089000D02*
X118166000Y-108089000D01*
X113370000Y-108049000D02*
X114710000Y-108049000D01*
X116790000Y-108049000D02*
X118130000Y-108049000D01*
X113407000Y-108009000D02*
X114710000Y-108009000D01*
X116790000Y-108009000D02*
X118093000Y-108009000D01*
X113445000Y-107969000D02*
X114710000Y-107969000D01*
X116790000Y-107969000D02*
X118055000Y-107969000D01*
X113485000Y-107929000D02*
X118015000Y-107929000D01*
X113526000Y-107889000D02*
X117974000Y-107889000D01*
X113568000Y-107849000D02*
X117932000Y-107849000D01*
X113613000Y-107809000D02*
X117887000Y-107809000D01*
X113658000Y-107769000D02*
X117842000Y-107769000D01*
X113706000Y-107729000D02*
X117794000Y-107729000D01*
X113755000Y-107689000D02*
X117745000Y-107689000D01*
X113806000Y-107649000D02*
X117694000Y-107649000D01*
X113860000Y-107609000D02*
X117640000Y-107609000D01*
X113916000Y-107569000D02*
X117584000Y-107569000D01*
X113974000Y-107529000D02*
X117526000Y-107529000D01*
X114036000Y-107489000D02*
X117464000Y-107489000D01*
X114100000Y-107449000D02*
X117400000Y-107449000D01*
X114169000Y-107409000D02*
X117331000Y-107409000D01*
X114241000Y-107369000D02*
X117259000Y-107369000D01*
X114318000Y-107329000D02*
X117182000Y-107329000D01*
X114400000Y-107289000D02*
X117100000Y-107289000D01*
X114488000Y-107249000D02*
X117012000Y-107249000D01*
X114585000Y-107209000D02*
X116915000Y-107209000D01*
X114691000Y-107169000D02*
X116809000Y-107169000D01*
X114810000Y-107129000D02*
X116690000Y-107129000D01*
X114948000Y-107089000D02*
X116552000Y-107089000D01*
X115117000Y-107049000D02*
X116383000Y-107049000D01*
X115348000Y-107009000D02*
X116152000Y-107009000D01*
X113911000Y-113750241D02*
X113911000Y-113120241D01*
X113596000Y-113435241D02*
X114226000Y-113435241D01*
%TO.C,R20*%
X119380000Y-104940000D02*
X122120000Y-104940000D01*
X122120000Y-104940000D02*
X122120000Y-98400000D01*
X122120000Y-98400000D02*
X119380000Y-98400000D01*
X119380000Y-98400000D02*
X119380000Y-104940000D01*
X120750000Y-105710000D02*
X120750000Y-104940000D01*
X120750000Y-97630000D02*
X120750000Y-98400000D01*
%TO.C,SW1*%
X99500000Y-77500000D02*
X99500000Y-82000000D01*
X103500000Y-76250000D02*
X102000000Y-76250000D01*
X106000000Y-82000000D02*
X106000000Y-77500000D01*
X102000000Y-83250000D02*
X103500000Y-83250000D01*
%TO.C,U1*%
X130060000Y-95420000D02*
X128410000Y-95420000D01*
X128410000Y-95420000D02*
X128410000Y-131100000D01*
X128410000Y-131100000D02*
X133710000Y-131100000D01*
X133710000Y-131100000D02*
X133710000Y-95420000D01*
X133710000Y-95420000D02*
X132060000Y-95420000D01*
X132060000Y-95420000D02*
G75*
G02*
X130060000Y-95420000I-1000000J0D01*
G01*
%TO.C,J1*%
X119670000Y-77000000D02*
X119670000Y-75670000D01*
X119670000Y-75670000D02*
X121000000Y-75670000D01*
X122270000Y-75670000D02*
X142650000Y-75670000D01*
X142650000Y-78330000D02*
X142650000Y-75670000D01*
X122270000Y-78330000D02*
X142650000Y-78330000D01*
X122270000Y-78330000D02*
X122270000Y-75670000D01*
%TO.C,J2*%
X158500000Y-94170000D02*
X159830000Y-94170000D01*
X159830000Y-94170000D02*
X159830000Y-95500000D01*
X159830000Y-96770000D02*
X159830000Y-114610000D01*
X157170000Y-114610000D02*
X159830000Y-114610000D01*
X157170000Y-96770000D02*
X157170000Y-114610000D01*
X157170000Y-96770000D02*
X159830000Y-96770000D01*
%TO.C,J3*%
X100500000Y-116330000D02*
X99170000Y-116330000D01*
X99170000Y-116330000D02*
X99170000Y-115000000D01*
X99170000Y-113730000D02*
X99170000Y-95890000D01*
X101830000Y-95890000D02*
X99170000Y-95890000D01*
X101830000Y-113730000D02*
X101830000Y-95890000D01*
X101830000Y-113730000D02*
X99170000Y-113730000D01*
%TO.C,J4*%
X137230000Y-133170000D02*
X137230000Y-135830000D01*
X137230000Y-133170000D02*
X119390000Y-133170000D01*
X119390000Y-133170000D02*
X119390000Y-135830000D01*
X137230000Y-135830000D02*
X119390000Y-135830000D01*
X139830000Y-135830000D02*
X138500000Y-135830000D01*
X139830000Y-134500000D02*
X139830000Y-135830000D01*
%TO.C,Q1*%
X151970000Y-89350000D02*
X155570000Y-89350000D01*
X155608478Y-89338478D02*
G75*
G03*
X153770000Y-84900000I-1838478J1838478D01*
G01*
X151931522Y-89338478D02*
G75*
G02*
X153770000Y-84900000I1838478J1838478D01*
G01*
%TO.C,Q2*%
X151970000Y-94350000D02*
X155570000Y-94350000D01*
X155608478Y-94338478D02*
G75*
G03*
X153770000Y-89900000I-1838478J1838478D01*
G01*
X151931522Y-94338478D02*
G75*
G02*
X153770000Y-89900000I1838478J1838478D01*
G01*
%TO.C,Q3*%
X151970000Y-99350000D02*
X155570000Y-99350000D01*
X151931522Y-99338478D02*
G75*
G02*
X153770000Y-94900000I1838478J1838478D01*
G01*
X155608478Y-99338478D02*
G75*
G03*
X153770000Y-94900000I-1838478J1838478D01*
G01*
%TO.C,Q4*%
X151970000Y-104350000D02*
X155570000Y-104350000D01*
X151931522Y-104338478D02*
G75*
G02*
X153770000Y-99900000I1838478J1838478D01*
G01*
X155608478Y-104338478D02*
G75*
G03*
X153770000Y-99900000I-1838478J1838478D01*
G01*
%TO.C,Q5*%
X151970000Y-109350000D02*
X155570000Y-109350000D01*
X155608478Y-109338478D02*
G75*
G03*
X153770000Y-104900000I-1838478J1838478D01*
G01*
X151931522Y-109338478D02*
G75*
G02*
X153770000Y-104900000I1838478J1838478D01*
G01*
%TO.C,Q6*%
X151970000Y-114350000D02*
X155570000Y-114350000D01*
X155608478Y-114338478D02*
G75*
G03*
X153770000Y-109900000I-1838478J1838478D01*
G01*
X151931522Y-114338478D02*
G75*
G02*
X153770000Y-109900000I1838478J1838478D01*
G01*
%TO.C,Q7*%
X151970000Y-119350000D02*
X155570000Y-119350000D01*
X151931522Y-119338478D02*
G75*
G02*
X153770000Y-114900000I1838478J1838478D01*
G01*
X155608478Y-119338478D02*
G75*
G03*
X153770000Y-114900000I-1838478J1838478D01*
G01*
%TO.C,Q8*%
X151970000Y-124350000D02*
X155570000Y-124350000D01*
X151931522Y-124338478D02*
G75*
G02*
X153770000Y-119900000I1838478J1838478D01*
G01*
X155608478Y-124338478D02*
G75*
G03*
X153770000Y-119900000I-1838478J1838478D01*
G01*
%TO.C,R2*%
X145000000Y-118620000D02*
X145000000Y-117850000D01*
X145000000Y-110540000D02*
X145000000Y-111310000D01*
X146370000Y-117850000D02*
X146370000Y-111310000D01*
X143630000Y-117850000D02*
X146370000Y-117850000D01*
X143630000Y-111310000D02*
X143630000Y-117850000D01*
X146370000Y-111310000D02*
X143630000Y-111310000D01*
%TO.C,R3*%
X149870000Y-111310000D02*
X147130000Y-111310000D01*
X147130000Y-111310000D02*
X147130000Y-117850000D01*
X147130000Y-117850000D02*
X149870000Y-117850000D01*
X149870000Y-117850000D02*
X149870000Y-111310000D01*
X148500000Y-110540000D02*
X148500000Y-111310000D01*
X148500000Y-118620000D02*
X148500000Y-117850000D01*
%TO.C,R4*%
X147940000Y-126620000D02*
X147940000Y-123880000D01*
X147940000Y-123880000D02*
X141400000Y-123880000D01*
X141400000Y-123880000D02*
X141400000Y-126620000D01*
X141400000Y-126620000D02*
X147940000Y-126620000D01*
X148710000Y-125250000D02*
X147940000Y-125250000D01*
X140630000Y-125250000D02*
X141400000Y-125250000D01*
%TO.C,R5*%
X140630000Y-128750000D02*
X141400000Y-128750000D01*
X148710000Y-128750000D02*
X147940000Y-128750000D01*
X141400000Y-130120000D02*
X147940000Y-130120000D01*
X141400000Y-127380000D02*
X141400000Y-130120000D01*
X147940000Y-127380000D02*
X141400000Y-127380000D01*
X147940000Y-130120000D02*
X147940000Y-127380000D01*
%TO.C,R6*%
X143380000Y-132500000D02*
X144150000Y-132500000D01*
X151460000Y-132500000D02*
X150690000Y-132500000D01*
X144150000Y-133870000D02*
X150690000Y-133870000D01*
X144150000Y-131130000D02*
X144150000Y-133870000D01*
X150690000Y-131130000D02*
X144150000Y-131130000D01*
X150690000Y-133870000D02*
X150690000Y-131130000D01*
%TO.C,R7*%
X116560000Y-129630000D02*
X116560000Y-132370000D01*
X116560000Y-132370000D02*
X123100000Y-132370000D01*
X123100000Y-132370000D02*
X123100000Y-129630000D01*
X123100000Y-129630000D02*
X116560000Y-129630000D01*
X115790000Y-131000000D02*
X116560000Y-131000000D01*
X123870000Y-131000000D02*
X123100000Y-131000000D01*
%TO.C,R8*%
X116560000Y-126130000D02*
X116560000Y-128870000D01*
X116560000Y-128870000D02*
X123100000Y-128870000D01*
X123100000Y-128870000D02*
X123100000Y-126130000D01*
X123100000Y-126130000D02*
X116560000Y-126130000D01*
X115790000Y-127500000D02*
X116560000Y-127500000D01*
X123870000Y-127500000D02*
X123100000Y-127500000D01*
%TO.C,R9*%
X119870000Y-81810000D02*
X117130000Y-81810000D01*
X117130000Y-81810000D02*
X117130000Y-88350000D01*
X117130000Y-88350000D02*
X119870000Y-88350000D01*
X119870000Y-88350000D02*
X119870000Y-81810000D01*
X118500000Y-81040000D02*
X118500000Y-81810000D01*
X118500000Y-89120000D02*
X118500000Y-88350000D01*
%TO.C,R10*%
X122000000Y-89120000D02*
X122000000Y-88350000D01*
X122000000Y-81040000D02*
X122000000Y-81810000D01*
X123370000Y-88350000D02*
X123370000Y-81810000D01*
X120630000Y-88350000D02*
X123370000Y-88350000D01*
X120630000Y-81810000D02*
X120630000Y-88350000D01*
X123370000Y-81810000D02*
X120630000Y-81810000D01*
%TO.C,R11*%
X126870000Y-81810000D02*
X124130000Y-81810000D01*
X124130000Y-81810000D02*
X124130000Y-88350000D01*
X124130000Y-88350000D02*
X126870000Y-88350000D01*
X126870000Y-88350000D02*
X126870000Y-81810000D01*
X125500000Y-81040000D02*
X125500000Y-81810000D01*
X125500000Y-89120000D02*
X125500000Y-88350000D01*
%TO.C,R12*%
X129000000Y-89120000D02*
X129000000Y-88350000D01*
X129000000Y-81040000D02*
X129000000Y-81810000D01*
X130370000Y-88350000D02*
X130370000Y-81810000D01*
X127630000Y-88350000D02*
X130370000Y-88350000D01*
X127630000Y-81810000D02*
X127630000Y-88350000D01*
X130370000Y-81810000D02*
X127630000Y-81810000D01*
%TO.C,R13*%
X132500000Y-89120000D02*
X132500000Y-88350000D01*
X132500000Y-81040000D02*
X132500000Y-81810000D01*
X133870000Y-88350000D02*
X133870000Y-81810000D01*
X131130000Y-88350000D02*
X133870000Y-88350000D01*
X131130000Y-81810000D02*
X131130000Y-88350000D01*
X133870000Y-81810000D02*
X131130000Y-81810000D01*
%TO.C,R14*%
X137370000Y-81810000D02*
X134630000Y-81810000D01*
X134630000Y-81810000D02*
X134630000Y-88350000D01*
X134630000Y-88350000D02*
X137370000Y-88350000D01*
X137370000Y-88350000D02*
X137370000Y-81810000D01*
X136000000Y-81040000D02*
X136000000Y-81810000D01*
X136000000Y-89120000D02*
X136000000Y-88350000D01*
%TO.C,R15*%
X139500000Y-89120000D02*
X139500000Y-88350000D01*
X139500000Y-81040000D02*
X139500000Y-81810000D01*
X140870000Y-88350000D02*
X140870000Y-81810000D01*
X138130000Y-88350000D02*
X140870000Y-88350000D01*
X138130000Y-81810000D02*
X138130000Y-88350000D01*
X140870000Y-81810000D02*
X138130000Y-81810000D01*
%TO.C,R16*%
X144370000Y-81810000D02*
X141630000Y-81810000D01*
X141630000Y-81810000D02*
X141630000Y-88350000D01*
X141630000Y-88350000D02*
X144370000Y-88350000D01*
X144370000Y-88350000D02*
X144370000Y-81810000D01*
X143000000Y-81040000D02*
X143000000Y-81810000D01*
X143000000Y-89120000D02*
X143000000Y-88350000D01*
%TO.C,J6*%
D10*
X99166666Y-129202380D02*
X99166666Y-129916666D01*
X99119047Y-130059523D01*
X99023809Y-130154761D01*
X98880952Y-130202380D01*
X98785714Y-130202380D01*
X100071428Y-129202380D02*
X99880952Y-129202380D01*
X99785714Y-129250000D01*
X99738095Y-129297619D01*
X99642857Y-129440476D01*
X99595238Y-129630952D01*
X99595238Y-130011904D01*
X99642857Y-130107142D01*
X99690476Y-130154761D01*
X99785714Y-130202380D01*
X99976190Y-130202380D01*
X100071428Y-130154761D01*
X100119047Y-130107142D01*
X100166666Y-130011904D01*
X100166666Y-129773809D01*
X100119047Y-129678571D01*
X100071428Y-129630952D01*
X99976190Y-129583333D01*
X99785714Y-129583333D01*
X99690476Y-129630952D01*
X99642857Y-129678571D01*
X99595238Y-129773809D01*
%TO.C,R17*%
X105277142Y-124572380D02*
X104943809Y-124096190D01*
X104705714Y-124572380D02*
X104705714Y-123572380D01*
X105086666Y-123572380D01*
X105181904Y-123620000D01*
X105229523Y-123667619D01*
X105277142Y-123762857D01*
X105277142Y-123905714D01*
X105229523Y-124000952D01*
X105181904Y-124048571D01*
X105086666Y-124096190D01*
X104705714Y-124096190D01*
X106229523Y-124572380D02*
X105658095Y-124572380D01*
X105943809Y-124572380D02*
X105943809Y-123572380D01*
X105848571Y-123715238D01*
X105753333Y-123810476D01*
X105658095Y-123858095D01*
X106562857Y-123572380D02*
X107229523Y-123572380D01*
X106800952Y-124572380D01*
%TO.C,R18*%
X105437142Y-130832380D02*
X105103809Y-130356190D01*
X104865714Y-130832380D02*
X104865714Y-129832380D01*
X105246666Y-129832380D01*
X105341904Y-129880000D01*
X105389523Y-129927619D01*
X105437142Y-130022857D01*
X105437142Y-130165714D01*
X105389523Y-130260952D01*
X105341904Y-130308571D01*
X105246666Y-130356190D01*
X104865714Y-130356190D01*
X106389523Y-130832380D02*
X105818095Y-130832380D01*
X106103809Y-130832380D02*
X106103809Y-129832380D01*
X106008571Y-129975238D01*
X105913333Y-130070476D01*
X105818095Y-130118095D01*
X106960952Y-130260952D02*
X106865714Y-130213333D01*
X106818095Y-130165714D01*
X106770476Y-130070476D01*
X106770476Y-130022857D01*
X106818095Y-129927619D01*
X106865714Y-129880000D01*
X106960952Y-129832380D01*
X107151428Y-129832380D01*
X107246666Y-129880000D01*
X107294285Y-129927619D01*
X107341904Y-130022857D01*
X107341904Y-130070476D01*
X107294285Y-130165714D01*
X107246666Y-130213333D01*
X107151428Y-130260952D01*
X106960952Y-130260952D01*
X106865714Y-130308571D01*
X106818095Y-130356190D01*
X106770476Y-130451428D01*
X106770476Y-130641904D01*
X106818095Y-130737142D01*
X106865714Y-130784761D01*
X106960952Y-130832380D01*
X107151428Y-130832380D01*
X107246666Y-130784761D01*
X107294285Y-130737142D01*
X107341904Y-130641904D01*
X107341904Y-130451428D01*
X107294285Y-130356190D01*
X107246666Y-130308571D01*
X107151428Y-130260952D01*
%TO.C,Y1*%
X123273809Y-114226190D02*
X123273809Y-114702380D01*
X122940476Y-113702380D02*
X123273809Y-114226190D01*
X123607142Y-113702380D01*
X124464285Y-114702380D02*
X123892857Y-114702380D01*
X124178571Y-114702380D02*
X124178571Y-113702380D01*
X124083333Y-113845238D01*
X123988095Y-113940476D01*
X123892857Y-113988095D01*
%TO.C,R1*%
X144322380Y-104496666D02*
X143846190Y-104830000D01*
X144322380Y-105068095D02*
X143322380Y-105068095D01*
X143322380Y-104687142D01*
X143370000Y-104591904D01*
X143417619Y-104544285D01*
X143512857Y-104496666D01*
X143655714Y-104496666D01*
X143750952Y-104544285D01*
X143798571Y-104591904D01*
X143846190Y-104687142D01*
X143846190Y-105068095D01*
X144322380Y-103544285D02*
X144322380Y-104115714D01*
X144322380Y-103830000D02*
X143322380Y-103830000D01*
X143465238Y-103925238D01*
X143560476Y-104020476D01*
X143608095Y-104115714D01*
%TO.C,J5*%
X110916666Y-84452380D02*
X110916666Y-85166666D01*
X110869047Y-85309523D01*
X110773809Y-85404761D01*
X110630952Y-85452380D01*
X110535714Y-85452380D01*
X111869047Y-84452380D02*
X111392857Y-84452380D01*
X111345238Y-84928571D01*
X111392857Y-84880952D01*
X111488095Y-84833333D01*
X111726190Y-84833333D01*
X111821428Y-84880952D01*
X111869047Y-84928571D01*
X111916666Y-85023809D01*
X111916666Y-85261904D01*
X111869047Y-85357142D01*
X111821428Y-85404761D01*
X111726190Y-85452380D01*
X111488095Y-85452380D01*
X111392857Y-85404761D01*
X111345238Y-85357142D01*
%TO.C,C3*%
X137583333Y-107857142D02*
X137535714Y-107904761D01*
X137392857Y-107952380D01*
X137297619Y-107952380D01*
X137154761Y-107904761D01*
X137059523Y-107809523D01*
X137011904Y-107714285D01*
X136964285Y-107523809D01*
X136964285Y-107380952D01*
X137011904Y-107190476D01*
X137059523Y-107095238D01*
X137154761Y-107000000D01*
X137297619Y-106952380D01*
X137392857Y-106952380D01*
X137535714Y-107000000D01*
X137583333Y-107047619D01*
X137916666Y-106952380D02*
X138535714Y-106952380D01*
X138202380Y-107333333D01*
X138345238Y-107333333D01*
X138440476Y-107380952D01*
X138488095Y-107428571D01*
X138535714Y-107523809D01*
X138535714Y-107761904D01*
X138488095Y-107857142D01*
X138440476Y-107904761D01*
X138345238Y-107952380D01*
X138059523Y-107952380D01*
X137964285Y-107904761D01*
X137916666Y-107857142D01*
%TO.C,C1*%
X127167142Y-109416666D02*
X127214761Y-109464285D01*
X127262380Y-109607142D01*
X127262380Y-109702380D01*
X127214761Y-109845238D01*
X127119523Y-109940476D01*
X127024285Y-109988095D01*
X126833809Y-110035714D01*
X126690952Y-110035714D01*
X126500476Y-109988095D01*
X126405238Y-109940476D01*
X126310000Y-109845238D01*
X126262380Y-109702380D01*
X126262380Y-109607142D01*
X126310000Y-109464285D01*
X126357619Y-109416666D01*
X127262380Y-108464285D02*
X127262380Y-109035714D01*
X127262380Y-108750000D02*
X126262380Y-108750000D01*
X126405238Y-108845238D01*
X126500476Y-108940476D01*
X126548095Y-109035714D01*
%TO.C,C2*%
X137583333Y-124357142D02*
X137535714Y-124404761D01*
X137392857Y-124452380D01*
X137297619Y-124452380D01*
X137154761Y-124404761D01*
X137059523Y-124309523D01*
X137011904Y-124214285D01*
X136964285Y-124023809D01*
X136964285Y-123880952D01*
X137011904Y-123690476D01*
X137059523Y-123595238D01*
X137154761Y-123500000D01*
X137297619Y-123452380D01*
X137392857Y-123452380D01*
X137535714Y-123500000D01*
X137583333Y-123547619D01*
X137964285Y-123547619D02*
X138011904Y-123500000D01*
X138107142Y-123452380D01*
X138345238Y-123452380D01*
X138440476Y-123500000D01*
X138488095Y-123547619D01*
X138535714Y-123642857D01*
X138535714Y-123738095D01*
X138488095Y-123880952D01*
X137916666Y-124452380D01*
X138535714Y-124452380D01*
%TO.C,C4*%
X117797142Y-118916666D02*
X117844761Y-118964285D01*
X117892380Y-119107142D01*
X117892380Y-119202380D01*
X117844761Y-119345238D01*
X117749523Y-119440476D01*
X117654285Y-119488095D01*
X117463809Y-119535714D01*
X117320952Y-119535714D01*
X117130476Y-119488095D01*
X117035238Y-119440476D01*
X116940000Y-119345238D01*
X116892380Y-119202380D01*
X116892380Y-119107142D01*
X116940000Y-118964285D01*
X116987619Y-118916666D01*
X117225714Y-118059523D02*
X117892380Y-118059523D01*
X116844761Y-118297619D02*
X117559047Y-118535714D01*
X117559047Y-117916666D01*
%TO.C,C5*%
X120583333Y-122357142D02*
X120535714Y-122404761D01*
X120392857Y-122452380D01*
X120297619Y-122452380D01*
X120154761Y-122404761D01*
X120059523Y-122309523D01*
X120011904Y-122214285D01*
X119964285Y-122023809D01*
X119964285Y-121880952D01*
X120011904Y-121690476D01*
X120059523Y-121595238D01*
X120154761Y-121500000D01*
X120297619Y-121452380D01*
X120392857Y-121452380D01*
X120535714Y-121500000D01*
X120583333Y-121547619D01*
X121488095Y-121452380D02*
X121011904Y-121452380D01*
X120964285Y-121928571D01*
X121011904Y-121880952D01*
X121107142Y-121833333D01*
X121345238Y-121833333D01*
X121440476Y-121880952D01*
X121488095Y-121928571D01*
X121535714Y-122023809D01*
X121535714Y-122261904D01*
X121488095Y-122357142D01*
X121440476Y-122404761D01*
X121345238Y-122452380D01*
X121107142Y-122452380D01*
X121011904Y-122404761D01*
X120964285Y-122357142D01*
%TO.C,C6*%
X111587142Y-110416666D02*
X111634761Y-110464285D01*
X111682380Y-110607142D01*
X111682380Y-110702380D01*
X111634761Y-110845238D01*
X111539523Y-110940476D01*
X111444285Y-110988095D01*
X111253809Y-111035714D01*
X111110952Y-111035714D01*
X110920476Y-110988095D01*
X110825238Y-110940476D01*
X110730000Y-110845238D01*
X110682380Y-110702380D01*
X110682380Y-110607142D01*
X110730000Y-110464285D01*
X110777619Y-110416666D01*
X110682380Y-109559523D02*
X110682380Y-109750000D01*
X110730000Y-109845238D01*
X110777619Y-109892857D01*
X110920476Y-109988095D01*
X111110952Y-110035714D01*
X111491904Y-110035714D01*
X111587142Y-109988095D01*
X111634761Y-109940476D01*
X111682380Y-109845238D01*
X111682380Y-109654761D01*
X111634761Y-109559523D01*
X111587142Y-109511904D01*
X111491904Y-109464285D01*
X111253809Y-109464285D01*
X111158571Y-109511904D01*
X111110952Y-109559523D01*
X111063333Y-109654761D01*
X111063333Y-109845238D01*
X111110952Y-109940476D01*
X111158571Y-109988095D01*
X111253809Y-110035714D01*
%TO.C,R20*%
X118832380Y-102312857D02*
X118356190Y-102646190D01*
X118832380Y-102884285D02*
X117832380Y-102884285D01*
X117832380Y-102503333D01*
X117880000Y-102408095D01*
X117927619Y-102360476D01*
X118022857Y-102312857D01*
X118165714Y-102312857D01*
X118260952Y-102360476D01*
X118308571Y-102408095D01*
X118356190Y-102503333D01*
X118356190Y-102884285D01*
X117927619Y-101931904D02*
X117880000Y-101884285D01*
X117832380Y-101789047D01*
X117832380Y-101550952D01*
X117880000Y-101455714D01*
X117927619Y-101408095D01*
X118022857Y-101360476D01*
X118118095Y-101360476D01*
X118260952Y-101408095D01*
X118832380Y-101979523D01*
X118832380Y-101360476D01*
X117832380Y-100741428D02*
X117832380Y-100646190D01*
X117880000Y-100550952D01*
X117927619Y-100503333D01*
X118022857Y-100455714D01*
X118213333Y-100408095D01*
X118451428Y-100408095D01*
X118641904Y-100455714D01*
X118737142Y-100503333D01*
X118784761Y-100550952D01*
X118832380Y-100646190D01*
X118832380Y-100741428D01*
X118784761Y-100836666D01*
X118737142Y-100884285D01*
X118641904Y-100931904D01*
X118451428Y-100979523D01*
X118213333Y-100979523D01*
X118022857Y-100931904D01*
X117927619Y-100884285D01*
X117880000Y-100836666D01*
X117832380Y-100741428D01*
%TO.C,SW1*%
X106666666Y-83654761D02*
X106809523Y-83702380D01*
X107047619Y-83702380D01*
X107142857Y-83654761D01*
X107190476Y-83607142D01*
X107238095Y-83511904D01*
X107238095Y-83416666D01*
X107190476Y-83321428D01*
X107142857Y-83273809D01*
X107047619Y-83226190D01*
X106857142Y-83178571D01*
X106761904Y-83130952D01*
X106714285Y-83083333D01*
X106666666Y-82988095D01*
X106666666Y-82892857D01*
X106714285Y-82797619D01*
X106761904Y-82750000D01*
X106857142Y-82702380D01*
X107095238Y-82702380D01*
X107238095Y-82750000D01*
X107571428Y-82702380D02*
X107809523Y-83702380D01*
X108000000Y-82988095D01*
X108190476Y-83702380D01*
X108428571Y-82702380D01*
X109333333Y-83702380D02*
X108761904Y-83702380D01*
X109047619Y-83702380D02*
X109047619Y-82702380D01*
X108952380Y-82845238D01*
X108857142Y-82940476D01*
X108761904Y-82988095D01*
%TO.C,U1*%
X130298095Y-93872380D02*
X130298095Y-94681904D01*
X130345714Y-94777142D01*
X130393333Y-94824761D01*
X130488571Y-94872380D01*
X130679047Y-94872380D01*
X130774285Y-94824761D01*
X130821904Y-94777142D01*
X130869523Y-94681904D01*
X130869523Y-93872380D01*
X131869523Y-94872380D02*
X131298095Y-94872380D01*
X131583809Y-94872380D02*
X131583809Y-93872380D01*
X131488571Y-94015238D01*
X131393333Y-94110476D01*
X131298095Y-94158095D01*
%TO.C,J1*%
X117896666Y-76452380D02*
X117896666Y-77166666D01*
X117849047Y-77309523D01*
X117753809Y-77404761D01*
X117610952Y-77452380D01*
X117515714Y-77452380D01*
X118896666Y-77452380D02*
X118325238Y-77452380D01*
X118610952Y-77452380D02*
X118610952Y-76452380D01*
X118515714Y-76595238D01*
X118420476Y-76690476D01*
X118325238Y-76738095D01*
%TO.C,J2*%
X158166666Y-92182380D02*
X158166666Y-92896666D01*
X158119047Y-93039523D01*
X158023809Y-93134761D01*
X157880952Y-93182380D01*
X157785714Y-93182380D01*
X158595238Y-92277619D02*
X158642857Y-92230000D01*
X158738095Y-92182380D01*
X158976190Y-92182380D01*
X159071428Y-92230000D01*
X159119047Y-92277619D01*
X159166666Y-92372857D01*
X159166666Y-92468095D01*
X159119047Y-92610952D01*
X158547619Y-93182380D01*
X159166666Y-93182380D01*
%TO.C,J3*%
X100166666Y-117222380D02*
X100166666Y-117936666D01*
X100119047Y-118079523D01*
X100023809Y-118174761D01*
X99880952Y-118222380D01*
X99785714Y-118222380D01*
X100547619Y-117222380D02*
X101166666Y-117222380D01*
X100833333Y-117603333D01*
X100976190Y-117603333D01*
X101071428Y-117650952D01*
X101119047Y-117698571D01*
X101166666Y-117793809D01*
X101166666Y-118031904D01*
X101119047Y-118127142D01*
X101071428Y-118174761D01*
X100976190Y-118222380D01*
X100690476Y-118222380D01*
X100595238Y-118174761D01*
X100547619Y-118127142D01*
%TO.C,J4*%
X140666666Y-134452380D02*
X140666666Y-135166666D01*
X140619047Y-135309523D01*
X140523809Y-135404761D01*
X140380952Y-135452380D01*
X140285714Y-135452380D01*
X141571428Y-134785714D02*
X141571428Y-135452380D01*
X141333333Y-134404761D02*
X141095238Y-135119047D01*
X141714285Y-135119047D01*
%TO.C,Q1*%
X151154761Y-85547619D02*
X151059523Y-85500000D01*
X150964285Y-85404761D01*
X150821428Y-85261904D01*
X150726190Y-85214285D01*
X150630952Y-85214285D01*
X150678571Y-85452380D02*
X150583333Y-85404761D01*
X150488095Y-85309523D01*
X150440476Y-85119047D01*
X150440476Y-84785714D01*
X150488095Y-84595238D01*
X150583333Y-84500000D01*
X150678571Y-84452380D01*
X150869047Y-84452380D01*
X150964285Y-84500000D01*
X151059523Y-84595238D01*
X151107142Y-84785714D01*
X151107142Y-85119047D01*
X151059523Y-85309523D01*
X150964285Y-85404761D01*
X150869047Y-85452380D01*
X150678571Y-85452380D01*
X152059523Y-85452380D02*
X151488095Y-85452380D01*
X151773809Y-85452380D02*
X151773809Y-84452380D01*
X151678571Y-84595238D01*
X151583333Y-84690476D01*
X151488095Y-84738095D01*
%TO.C,Q2*%
X151154761Y-90547619D02*
X151059523Y-90500000D01*
X150964285Y-90404761D01*
X150821428Y-90261904D01*
X150726190Y-90214285D01*
X150630952Y-90214285D01*
X150678571Y-90452380D02*
X150583333Y-90404761D01*
X150488095Y-90309523D01*
X150440476Y-90119047D01*
X150440476Y-89785714D01*
X150488095Y-89595238D01*
X150583333Y-89500000D01*
X150678571Y-89452380D01*
X150869047Y-89452380D01*
X150964285Y-89500000D01*
X151059523Y-89595238D01*
X151107142Y-89785714D01*
X151107142Y-90119047D01*
X151059523Y-90309523D01*
X150964285Y-90404761D01*
X150869047Y-90452380D01*
X150678571Y-90452380D01*
X151488095Y-89547619D02*
X151535714Y-89500000D01*
X151630952Y-89452380D01*
X151869047Y-89452380D01*
X151964285Y-89500000D01*
X152011904Y-89547619D01*
X152059523Y-89642857D01*
X152059523Y-89738095D01*
X152011904Y-89880952D01*
X151440476Y-90452380D01*
X152059523Y-90452380D01*
%TO.C,Q3*%
X151154761Y-95547619D02*
X151059523Y-95500000D01*
X150964285Y-95404761D01*
X150821428Y-95261904D01*
X150726190Y-95214285D01*
X150630952Y-95214285D01*
X150678571Y-95452380D02*
X150583333Y-95404761D01*
X150488095Y-95309523D01*
X150440476Y-95119047D01*
X150440476Y-94785714D01*
X150488095Y-94595238D01*
X150583333Y-94500000D01*
X150678571Y-94452380D01*
X150869047Y-94452380D01*
X150964285Y-94500000D01*
X151059523Y-94595238D01*
X151107142Y-94785714D01*
X151107142Y-95119047D01*
X151059523Y-95309523D01*
X150964285Y-95404761D01*
X150869047Y-95452380D01*
X150678571Y-95452380D01*
X151440476Y-94452380D02*
X152059523Y-94452380D01*
X151726190Y-94833333D01*
X151869047Y-94833333D01*
X151964285Y-94880952D01*
X152011904Y-94928571D01*
X152059523Y-95023809D01*
X152059523Y-95261904D01*
X152011904Y-95357142D01*
X151964285Y-95404761D01*
X151869047Y-95452380D01*
X151583333Y-95452380D01*
X151488095Y-95404761D01*
X151440476Y-95357142D01*
%TO.C,Q4*%
X151154761Y-100547619D02*
X151059523Y-100500000D01*
X150964285Y-100404761D01*
X150821428Y-100261904D01*
X150726190Y-100214285D01*
X150630952Y-100214285D01*
X150678571Y-100452380D02*
X150583333Y-100404761D01*
X150488095Y-100309523D01*
X150440476Y-100119047D01*
X150440476Y-99785714D01*
X150488095Y-99595238D01*
X150583333Y-99500000D01*
X150678571Y-99452380D01*
X150869047Y-99452380D01*
X150964285Y-99500000D01*
X151059523Y-99595238D01*
X151107142Y-99785714D01*
X151107142Y-100119047D01*
X151059523Y-100309523D01*
X150964285Y-100404761D01*
X150869047Y-100452380D01*
X150678571Y-100452380D01*
X151964285Y-99785714D02*
X151964285Y-100452380D01*
X151726190Y-99404761D02*
X151488095Y-100119047D01*
X152107142Y-100119047D01*
%TO.C,Q5*%
X151154761Y-105547619D02*
X151059523Y-105500000D01*
X150964285Y-105404761D01*
X150821428Y-105261904D01*
X150726190Y-105214285D01*
X150630952Y-105214285D01*
X150678571Y-105452380D02*
X150583333Y-105404761D01*
X150488095Y-105309523D01*
X150440476Y-105119047D01*
X150440476Y-104785714D01*
X150488095Y-104595238D01*
X150583333Y-104500000D01*
X150678571Y-104452380D01*
X150869047Y-104452380D01*
X150964285Y-104500000D01*
X151059523Y-104595238D01*
X151107142Y-104785714D01*
X151107142Y-105119047D01*
X151059523Y-105309523D01*
X150964285Y-105404761D01*
X150869047Y-105452380D01*
X150678571Y-105452380D01*
X152011904Y-104452380D02*
X151535714Y-104452380D01*
X151488095Y-104928571D01*
X151535714Y-104880952D01*
X151630952Y-104833333D01*
X151869047Y-104833333D01*
X151964285Y-104880952D01*
X152011904Y-104928571D01*
X152059523Y-105023809D01*
X152059523Y-105261904D01*
X152011904Y-105357142D01*
X151964285Y-105404761D01*
X151869047Y-105452380D01*
X151630952Y-105452380D01*
X151535714Y-105404761D01*
X151488095Y-105357142D01*
%TO.C,Q6*%
X151154761Y-110547619D02*
X151059523Y-110500000D01*
X150964285Y-110404761D01*
X150821428Y-110261904D01*
X150726190Y-110214285D01*
X150630952Y-110214285D01*
X150678571Y-110452380D02*
X150583333Y-110404761D01*
X150488095Y-110309523D01*
X150440476Y-110119047D01*
X150440476Y-109785714D01*
X150488095Y-109595238D01*
X150583333Y-109500000D01*
X150678571Y-109452380D01*
X150869047Y-109452380D01*
X150964285Y-109500000D01*
X151059523Y-109595238D01*
X151107142Y-109785714D01*
X151107142Y-110119047D01*
X151059523Y-110309523D01*
X150964285Y-110404761D01*
X150869047Y-110452380D01*
X150678571Y-110452380D01*
X151964285Y-109452380D02*
X151773809Y-109452380D01*
X151678571Y-109500000D01*
X151630952Y-109547619D01*
X151535714Y-109690476D01*
X151488095Y-109880952D01*
X151488095Y-110261904D01*
X151535714Y-110357142D01*
X151583333Y-110404761D01*
X151678571Y-110452380D01*
X151869047Y-110452380D01*
X151964285Y-110404761D01*
X152011904Y-110357142D01*
X152059523Y-110261904D01*
X152059523Y-110023809D01*
X152011904Y-109928571D01*
X151964285Y-109880952D01*
X151869047Y-109833333D01*
X151678571Y-109833333D01*
X151583333Y-109880952D01*
X151535714Y-109928571D01*
X151488095Y-110023809D01*
%TO.C,Q7*%
X151154761Y-115547619D02*
X151059523Y-115500000D01*
X150964285Y-115404761D01*
X150821428Y-115261904D01*
X150726190Y-115214285D01*
X150630952Y-115214285D01*
X150678571Y-115452380D02*
X150583333Y-115404761D01*
X150488095Y-115309523D01*
X150440476Y-115119047D01*
X150440476Y-114785714D01*
X150488095Y-114595238D01*
X150583333Y-114500000D01*
X150678571Y-114452380D01*
X150869047Y-114452380D01*
X150964285Y-114500000D01*
X151059523Y-114595238D01*
X151107142Y-114785714D01*
X151107142Y-115119047D01*
X151059523Y-115309523D01*
X150964285Y-115404761D01*
X150869047Y-115452380D01*
X150678571Y-115452380D01*
X151440476Y-114452380D02*
X152107142Y-114452380D01*
X151678571Y-115452380D01*
%TO.C,Q8*%
X151154761Y-120547619D02*
X151059523Y-120500000D01*
X150964285Y-120404761D01*
X150821428Y-120261904D01*
X150726190Y-120214285D01*
X150630952Y-120214285D01*
X150678571Y-120452380D02*
X150583333Y-120404761D01*
X150488095Y-120309523D01*
X150440476Y-120119047D01*
X150440476Y-119785714D01*
X150488095Y-119595238D01*
X150583333Y-119500000D01*
X150678571Y-119452380D01*
X150869047Y-119452380D01*
X150964285Y-119500000D01*
X151059523Y-119595238D01*
X151107142Y-119785714D01*
X151107142Y-120119047D01*
X151059523Y-120309523D01*
X150964285Y-120404761D01*
X150869047Y-120452380D01*
X150678571Y-120452380D01*
X151678571Y-119880952D02*
X151583333Y-119833333D01*
X151535714Y-119785714D01*
X151488095Y-119690476D01*
X151488095Y-119642857D01*
X151535714Y-119547619D01*
X151583333Y-119500000D01*
X151678571Y-119452380D01*
X151869047Y-119452380D01*
X151964285Y-119500000D01*
X152011904Y-119547619D01*
X152059523Y-119642857D01*
X152059523Y-119690476D01*
X152011904Y-119785714D01*
X151964285Y-119833333D01*
X151869047Y-119880952D01*
X151678571Y-119880952D01*
X151583333Y-119928571D01*
X151535714Y-119976190D01*
X151488095Y-120071428D01*
X151488095Y-120261904D01*
X151535714Y-120357142D01*
X151583333Y-120404761D01*
X151678571Y-120452380D01*
X151869047Y-120452380D01*
X151964285Y-120404761D01*
X152011904Y-120357142D01*
X152059523Y-120261904D01*
X152059523Y-120071428D01*
X152011904Y-119976190D01*
X151964285Y-119928571D01*
X151869047Y-119880952D01*
%TO.C,R2*%
X144833333Y-121952380D02*
X144500000Y-121476190D01*
X144261904Y-121952380D02*
X144261904Y-120952380D01*
X144642857Y-120952380D01*
X144738095Y-121000000D01*
X144785714Y-121047619D01*
X144833333Y-121142857D01*
X144833333Y-121285714D01*
X144785714Y-121380952D01*
X144738095Y-121428571D01*
X144642857Y-121476190D01*
X144261904Y-121476190D01*
X145214285Y-121047619D02*
X145261904Y-121000000D01*
X145357142Y-120952380D01*
X145595238Y-120952380D01*
X145690476Y-121000000D01*
X145738095Y-121047619D01*
X145785714Y-121142857D01*
X145785714Y-121238095D01*
X145738095Y-121380952D01*
X145166666Y-121952380D01*
X145785714Y-121952380D01*
%TO.C,R3*%
X148333333Y-121952380D02*
X148000000Y-121476190D01*
X147761904Y-121952380D02*
X147761904Y-120952380D01*
X148142857Y-120952380D01*
X148238095Y-121000000D01*
X148285714Y-121047619D01*
X148333333Y-121142857D01*
X148333333Y-121285714D01*
X148285714Y-121380952D01*
X148238095Y-121428571D01*
X148142857Y-121476190D01*
X147761904Y-121476190D01*
X148666666Y-120952380D02*
X149285714Y-120952380D01*
X148952380Y-121333333D01*
X149095238Y-121333333D01*
X149190476Y-121380952D01*
X149238095Y-121428571D01*
X149285714Y-121523809D01*
X149285714Y-121761904D01*
X149238095Y-121857142D01*
X149190476Y-121904761D01*
X149095238Y-121952380D01*
X148809523Y-121952380D01*
X148714285Y-121904761D01*
X148666666Y-121857142D01*
%TO.C,R4*%
X151583333Y-125702380D02*
X151250000Y-125226190D01*
X151011904Y-125702380D02*
X151011904Y-124702380D01*
X151392857Y-124702380D01*
X151488095Y-124750000D01*
X151535714Y-124797619D01*
X151583333Y-124892857D01*
X151583333Y-125035714D01*
X151535714Y-125130952D01*
X151488095Y-125178571D01*
X151392857Y-125226190D01*
X151011904Y-125226190D01*
X152440476Y-125035714D02*
X152440476Y-125702380D01*
X152202380Y-124654761D02*
X151964285Y-125369047D01*
X152583333Y-125369047D01*
%TO.C,R5*%
X151833333Y-129202380D02*
X151500000Y-128726190D01*
X151261904Y-129202380D02*
X151261904Y-128202380D01*
X151642857Y-128202380D01*
X151738095Y-128250000D01*
X151785714Y-128297619D01*
X151833333Y-128392857D01*
X151833333Y-128535714D01*
X151785714Y-128630952D01*
X151738095Y-128678571D01*
X151642857Y-128726190D01*
X151261904Y-128726190D01*
X152738095Y-128202380D02*
X152261904Y-128202380D01*
X152214285Y-128678571D01*
X152261904Y-128630952D01*
X152357142Y-128583333D01*
X152595238Y-128583333D01*
X152690476Y-128630952D01*
X152738095Y-128678571D01*
X152785714Y-128773809D01*
X152785714Y-129011904D01*
X152738095Y-129107142D01*
X152690476Y-129154761D01*
X152595238Y-129202380D01*
X152357142Y-129202380D01*
X152261904Y-129154761D01*
X152214285Y-129107142D01*
%TO.C,R6*%
X154583333Y-133202380D02*
X154250000Y-132726190D01*
X154011904Y-133202380D02*
X154011904Y-132202380D01*
X154392857Y-132202380D01*
X154488095Y-132250000D01*
X154535714Y-132297619D01*
X154583333Y-132392857D01*
X154583333Y-132535714D01*
X154535714Y-132630952D01*
X154488095Y-132678571D01*
X154392857Y-132726190D01*
X154011904Y-132726190D01*
X155440476Y-132202380D02*
X155250000Y-132202380D01*
X155154761Y-132250000D01*
X155107142Y-132297619D01*
X155011904Y-132440476D01*
X154964285Y-132630952D01*
X154964285Y-133011904D01*
X155011904Y-133107142D01*
X155059523Y-133154761D01*
X155154761Y-133202380D01*
X155345238Y-133202380D01*
X155440476Y-133154761D01*
X155488095Y-133107142D01*
X155535714Y-133011904D01*
X155535714Y-132773809D01*
X155488095Y-132678571D01*
X155440476Y-132630952D01*
X155345238Y-132583333D01*
X155154761Y-132583333D01*
X155059523Y-132630952D01*
X155011904Y-132678571D01*
X154964285Y-132773809D01*
%TO.C,R7*%
X117083333Y-133702380D02*
X116750000Y-133226190D01*
X116511904Y-133702380D02*
X116511904Y-132702380D01*
X116892857Y-132702380D01*
X116988095Y-132750000D01*
X117035714Y-132797619D01*
X117083333Y-132892857D01*
X117083333Y-133035714D01*
X117035714Y-133130952D01*
X116988095Y-133178571D01*
X116892857Y-133226190D01*
X116511904Y-133226190D01*
X117416666Y-132702380D02*
X118083333Y-132702380D01*
X117654761Y-133702380D01*
%TO.C,R8*%
X116583333Y-125702380D02*
X116250000Y-125226190D01*
X116011904Y-125702380D02*
X116011904Y-124702380D01*
X116392857Y-124702380D01*
X116488095Y-124750000D01*
X116535714Y-124797619D01*
X116583333Y-124892857D01*
X116583333Y-125035714D01*
X116535714Y-125130952D01*
X116488095Y-125178571D01*
X116392857Y-125226190D01*
X116011904Y-125226190D01*
X117154761Y-125130952D02*
X117059523Y-125083333D01*
X117011904Y-125035714D01*
X116964285Y-124940476D01*
X116964285Y-124892857D01*
X117011904Y-124797619D01*
X117059523Y-124750000D01*
X117154761Y-124702380D01*
X117345238Y-124702380D01*
X117440476Y-124750000D01*
X117488095Y-124797619D01*
X117535714Y-124892857D01*
X117535714Y-124940476D01*
X117488095Y-125035714D01*
X117440476Y-125083333D01*
X117345238Y-125130952D01*
X117154761Y-125130952D01*
X117059523Y-125178571D01*
X117011904Y-125226190D01*
X116964285Y-125321428D01*
X116964285Y-125511904D01*
X117011904Y-125607142D01*
X117059523Y-125654761D01*
X117154761Y-125702380D01*
X117345238Y-125702380D01*
X117440476Y-125654761D01*
X117488095Y-125607142D01*
X117535714Y-125511904D01*
X117535714Y-125321428D01*
X117488095Y-125226190D01*
X117440476Y-125178571D01*
X117345238Y-125130952D01*
%TO.C,R9*%
X118333333Y-92702380D02*
X118000000Y-92226190D01*
X117761904Y-92702380D02*
X117761904Y-91702380D01*
X118142857Y-91702380D01*
X118238095Y-91750000D01*
X118285714Y-91797619D01*
X118333333Y-91892857D01*
X118333333Y-92035714D01*
X118285714Y-92130952D01*
X118238095Y-92178571D01*
X118142857Y-92226190D01*
X117761904Y-92226190D01*
X118809523Y-92702380D02*
X119000000Y-92702380D01*
X119095238Y-92654761D01*
X119142857Y-92607142D01*
X119238095Y-92464285D01*
X119285714Y-92273809D01*
X119285714Y-91892857D01*
X119238095Y-91797619D01*
X119190476Y-91750000D01*
X119095238Y-91702380D01*
X118904761Y-91702380D01*
X118809523Y-91750000D01*
X118761904Y-91797619D01*
X118714285Y-91892857D01*
X118714285Y-92130952D01*
X118761904Y-92226190D01*
X118809523Y-92273809D01*
X118904761Y-92321428D01*
X119095238Y-92321428D01*
X119190476Y-92273809D01*
X119238095Y-92226190D01*
X119285714Y-92130952D01*
%TO.C,R10*%
X121357142Y-92702380D02*
X121023809Y-92226190D01*
X120785714Y-92702380D02*
X120785714Y-91702380D01*
X121166666Y-91702380D01*
X121261904Y-91750000D01*
X121309523Y-91797619D01*
X121357142Y-91892857D01*
X121357142Y-92035714D01*
X121309523Y-92130952D01*
X121261904Y-92178571D01*
X121166666Y-92226190D01*
X120785714Y-92226190D01*
X122309523Y-92702380D02*
X121738095Y-92702380D01*
X122023809Y-92702380D02*
X122023809Y-91702380D01*
X121928571Y-91845238D01*
X121833333Y-91940476D01*
X121738095Y-91988095D01*
X122928571Y-91702380D02*
X123023809Y-91702380D01*
X123119047Y-91750000D01*
X123166666Y-91797619D01*
X123214285Y-91892857D01*
X123261904Y-92083333D01*
X123261904Y-92321428D01*
X123214285Y-92511904D01*
X123166666Y-92607142D01*
X123119047Y-92654761D01*
X123023809Y-92702380D01*
X122928571Y-92702380D01*
X122833333Y-92654761D01*
X122785714Y-92607142D01*
X122738095Y-92511904D01*
X122690476Y-92321428D01*
X122690476Y-92083333D01*
X122738095Y-91892857D01*
X122785714Y-91797619D01*
X122833333Y-91750000D01*
X122928571Y-91702380D01*
%TO.C,R11*%
X124857142Y-92702380D02*
X124523809Y-92226190D01*
X124285714Y-92702380D02*
X124285714Y-91702380D01*
X124666666Y-91702380D01*
X124761904Y-91750000D01*
X124809523Y-91797619D01*
X124857142Y-91892857D01*
X124857142Y-92035714D01*
X124809523Y-92130952D01*
X124761904Y-92178571D01*
X124666666Y-92226190D01*
X124285714Y-92226190D01*
X125809523Y-92702380D02*
X125238095Y-92702380D01*
X125523809Y-92702380D02*
X125523809Y-91702380D01*
X125428571Y-91845238D01*
X125333333Y-91940476D01*
X125238095Y-91988095D01*
X126761904Y-92702380D02*
X126190476Y-92702380D01*
X126476190Y-92702380D02*
X126476190Y-91702380D01*
X126380952Y-91845238D01*
X126285714Y-91940476D01*
X126190476Y-91988095D01*
%TO.C,R12*%
X128357142Y-92702380D02*
X128023809Y-92226190D01*
X127785714Y-92702380D02*
X127785714Y-91702380D01*
X128166666Y-91702380D01*
X128261904Y-91750000D01*
X128309523Y-91797619D01*
X128357142Y-91892857D01*
X128357142Y-92035714D01*
X128309523Y-92130952D01*
X128261904Y-92178571D01*
X128166666Y-92226190D01*
X127785714Y-92226190D01*
X129309523Y-92702380D02*
X128738095Y-92702380D01*
X129023809Y-92702380D02*
X129023809Y-91702380D01*
X128928571Y-91845238D01*
X128833333Y-91940476D01*
X128738095Y-91988095D01*
X129690476Y-91797619D02*
X129738095Y-91750000D01*
X129833333Y-91702380D01*
X130071428Y-91702380D01*
X130166666Y-91750000D01*
X130214285Y-91797619D01*
X130261904Y-91892857D01*
X130261904Y-91988095D01*
X130214285Y-92130952D01*
X129642857Y-92702380D01*
X130261904Y-92702380D01*
%TO.C,R13*%
X131607142Y-92702380D02*
X131273809Y-92226190D01*
X131035714Y-92702380D02*
X131035714Y-91702380D01*
X131416666Y-91702380D01*
X131511904Y-91750000D01*
X131559523Y-91797619D01*
X131607142Y-91892857D01*
X131607142Y-92035714D01*
X131559523Y-92130952D01*
X131511904Y-92178571D01*
X131416666Y-92226190D01*
X131035714Y-92226190D01*
X132559523Y-92702380D02*
X131988095Y-92702380D01*
X132273809Y-92702380D02*
X132273809Y-91702380D01*
X132178571Y-91845238D01*
X132083333Y-91940476D01*
X131988095Y-91988095D01*
X132892857Y-91702380D02*
X133511904Y-91702380D01*
X133178571Y-92083333D01*
X133321428Y-92083333D01*
X133416666Y-92130952D01*
X133464285Y-92178571D01*
X133511904Y-92273809D01*
X133511904Y-92511904D01*
X133464285Y-92607142D01*
X133416666Y-92654761D01*
X133321428Y-92702380D01*
X133035714Y-92702380D01*
X132940476Y-92654761D01*
X132892857Y-92607142D01*
%TO.C,R14*%
X135357142Y-92702380D02*
X135023809Y-92226190D01*
X134785714Y-92702380D02*
X134785714Y-91702380D01*
X135166666Y-91702380D01*
X135261904Y-91750000D01*
X135309523Y-91797619D01*
X135357142Y-91892857D01*
X135357142Y-92035714D01*
X135309523Y-92130952D01*
X135261904Y-92178571D01*
X135166666Y-92226190D01*
X134785714Y-92226190D01*
X136309523Y-92702380D02*
X135738095Y-92702380D01*
X136023809Y-92702380D02*
X136023809Y-91702380D01*
X135928571Y-91845238D01*
X135833333Y-91940476D01*
X135738095Y-91988095D01*
X137166666Y-92035714D02*
X137166666Y-92702380D01*
X136928571Y-91654761D02*
X136690476Y-92369047D01*
X137309523Y-92369047D01*
%TO.C,R15*%
X138857142Y-92702380D02*
X138523809Y-92226190D01*
X138285714Y-92702380D02*
X138285714Y-91702380D01*
X138666666Y-91702380D01*
X138761904Y-91750000D01*
X138809523Y-91797619D01*
X138857142Y-91892857D01*
X138857142Y-92035714D01*
X138809523Y-92130952D01*
X138761904Y-92178571D01*
X138666666Y-92226190D01*
X138285714Y-92226190D01*
X139809523Y-92702380D02*
X139238095Y-92702380D01*
X139523809Y-92702380D02*
X139523809Y-91702380D01*
X139428571Y-91845238D01*
X139333333Y-91940476D01*
X139238095Y-91988095D01*
X140714285Y-91702380D02*
X140238095Y-91702380D01*
X140190476Y-92178571D01*
X140238095Y-92130952D01*
X140333333Y-92083333D01*
X140571428Y-92083333D01*
X140666666Y-92130952D01*
X140714285Y-92178571D01*
X140761904Y-92273809D01*
X140761904Y-92511904D01*
X140714285Y-92607142D01*
X140666666Y-92654761D01*
X140571428Y-92702380D01*
X140333333Y-92702380D01*
X140238095Y-92654761D01*
X140190476Y-92607142D01*
%TO.C,R16*%
X142357142Y-92702380D02*
X142023809Y-92226190D01*
X141785714Y-92702380D02*
X141785714Y-91702380D01*
X142166666Y-91702380D01*
X142261904Y-91750000D01*
X142309523Y-91797619D01*
X142357142Y-91892857D01*
X142357142Y-92035714D01*
X142309523Y-92130952D01*
X142261904Y-92178571D01*
X142166666Y-92226190D01*
X141785714Y-92226190D01*
X143309523Y-92702380D02*
X142738095Y-92702380D01*
X143023809Y-92702380D02*
X143023809Y-91702380D01*
X142928571Y-91845238D01*
X142833333Y-91940476D01*
X142738095Y-91988095D01*
X144166666Y-91702380D02*
X143976190Y-91702380D01*
X143880952Y-91750000D01*
X143833333Y-91797619D01*
X143738095Y-91940476D01*
X143690476Y-92130952D01*
X143690476Y-92511904D01*
X143738095Y-92607142D01*
X143785714Y-92654761D01*
X143880952Y-92702380D01*
X144071428Y-92702380D01*
X144166666Y-92654761D01*
X144214285Y-92607142D01*
X144261904Y-92511904D01*
X144261904Y-92273809D01*
X144214285Y-92178571D01*
X144166666Y-92130952D01*
X144071428Y-92083333D01*
X143880952Y-92083333D01*
X143785714Y-92130952D01*
X143738095Y-92178571D01*
X143690476Y-92273809D01*
%TD*%
M02*
