%TF.GenerationSoftware,KiCad,Pcbnew,(5.1.6)-1*%
%TF.CreationDate,2020-05-26T21:01:59-04:00*%
%TF.ProjectId,ArduinoLife2_Display,41726475-696e-46f4-9c69-6665325f4469,rev?*%
%TF.SameCoordinates,Original*%
%TF.FileFunction,Soldermask,Bot*%
%TF.FilePolarity,Negative*%
%FSLAX46Y46*%
G04 Gerber Fmt 4.6, Leading zero omitted, Abs format (unit mm)*
G04 Created by KiCad (PCBNEW (5.1.6)-1) date 2020-05-26 21:01:59*
%MOMM*%
%LPD*%
G01*
G04 APERTURE LIST*
%ADD10O,1.800000X1.800000*%
%ADD11R,1.800000X1.800000*%
%ADD12C,0.100000*%
%ADD13C,1.900000*%
G04 APERTURE END LIST*
D10*
%TO.C,J1*%
X141320000Y-77000000D03*
X138780000Y-77000000D03*
X136240000Y-77000000D03*
X133700000Y-77000000D03*
X131160000Y-77000000D03*
X128620000Y-77000000D03*
X126080000Y-77000000D03*
X123540000Y-77000000D03*
D11*
X121000000Y-77000000D03*
%TD*%
D12*
%TO.C,D1*%
G36*
X104000000Y-83343503D02*
G01*
X102656497Y-82000000D01*
X104000000Y-80656497D01*
X105343503Y-82000000D01*
X104000000Y-83343503D01*
G37*
D13*
X105796051Y-80203949D03*
%TD*%
%TO.C,D2*%
X112796051Y-80203949D03*
D12*
G36*
X111000000Y-83343503D02*
G01*
X109656497Y-82000000D01*
X111000000Y-80656497D01*
X112343503Y-82000000D01*
X111000000Y-83343503D01*
G37*
%TD*%
%TO.C,D3*%
G36*
X118000000Y-83343503D02*
G01*
X116656497Y-82000000D01*
X118000000Y-80656497D01*
X119343503Y-82000000D01*
X118000000Y-83343503D01*
G37*
D13*
X119796051Y-80203949D03*
%TD*%
%TO.C,D4*%
X126796051Y-80203949D03*
D12*
G36*
X125000000Y-83343503D02*
G01*
X123656497Y-82000000D01*
X125000000Y-80656497D01*
X126343503Y-82000000D01*
X125000000Y-83343503D01*
G37*
%TD*%
D13*
%TO.C,D5*%
X133796051Y-80203949D03*
D12*
G36*
X132000000Y-83343503D02*
G01*
X130656497Y-82000000D01*
X132000000Y-80656497D01*
X133343503Y-82000000D01*
X132000000Y-83343503D01*
G37*
%TD*%
%TO.C,D6*%
G36*
X139000000Y-83343503D02*
G01*
X137656497Y-82000000D01*
X139000000Y-80656497D01*
X140343503Y-82000000D01*
X139000000Y-83343503D01*
G37*
D13*
X140796051Y-80203949D03*
%TD*%
D12*
%TO.C,D7*%
G36*
X146000000Y-83343503D02*
G01*
X144656497Y-82000000D01*
X146000000Y-80656497D01*
X147343503Y-82000000D01*
X146000000Y-83343503D01*
G37*
D13*
X147796051Y-80203949D03*
%TD*%
%TO.C,D8*%
X154796051Y-80203949D03*
D12*
G36*
X153000000Y-83343503D02*
G01*
X151656497Y-82000000D01*
X153000000Y-80656497D01*
X154343503Y-82000000D01*
X153000000Y-83343503D01*
G37*
%TD*%
%TO.C,D9*%
G36*
X104000000Y-90343503D02*
G01*
X102656497Y-89000000D01*
X104000000Y-87656497D01*
X105343503Y-89000000D01*
X104000000Y-90343503D01*
G37*
D13*
X105796051Y-87203949D03*
%TD*%
%TO.C,D10*%
X112796051Y-87203949D03*
D12*
G36*
X111000000Y-90343503D02*
G01*
X109656497Y-89000000D01*
X111000000Y-87656497D01*
X112343503Y-89000000D01*
X111000000Y-90343503D01*
G37*
%TD*%
%TO.C,D11*%
G36*
X118000000Y-90343503D02*
G01*
X116656497Y-89000000D01*
X118000000Y-87656497D01*
X119343503Y-89000000D01*
X118000000Y-90343503D01*
G37*
D13*
X119796051Y-87203949D03*
%TD*%
%TO.C,D12*%
X126796051Y-87203949D03*
D12*
G36*
X125000000Y-90343503D02*
G01*
X123656497Y-89000000D01*
X125000000Y-87656497D01*
X126343503Y-89000000D01*
X125000000Y-90343503D01*
G37*
%TD*%
%TO.C,D13*%
G36*
X132000000Y-90343503D02*
G01*
X130656497Y-89000000D01*
X132000000Y-87656497D01*
X133343503Y-89000000D01*
X132000000Y-90343503D01*
G37*
D13*
X133796051Y-87203949D03*
%TD*%
%TO.C,D14*%
X140796051Y-87203949D03*
D12*
G36*
X139000000Y-90343503D02*
G01*
X137656497Y-89000000D01*
X139000000Y-87656497D01*
X140343503Y-89000000D01*
X139000000Y-90343503D01*
G37*
%TD*%
%TO.C,D15*%
G36*
X146000000Y-90343503D02*
G01*
X144656497Y-89000000D01*
X146000000Y-87656497D01*
X147343503Y-89000000D01*
X146000000Y-90343503D01*
G37*
D13*
X147796051Y-87203949D03*
%TD*%
%TO.C,D16*%
X154796051Y-87203949D03*
D12*
G36*
X153000000Y-90343503D02*
G01*
X151656497Y-89000000D01*
X153000000Y-87656497D01*
X154343503Y-89000000D01*
X153000000Y-90343503D01*
G37*
%TD*%
%TO.C,D17*%
G36*
X104000000Y-97343503D02*
G01*
X102656497Y-96000000D01*
X104000000Y-94656497D01*
X105343503Y-96000000D01*
X104000000Y-97343503D01*
G37*
D13*
X105796051Y-94203949D03*
%TD*%
%TO.C,D18*%
X112796051Y-94203949D03*
D12*
G36*
X111000000Y-97343503D02*
G01*
X109656497Y-96000000D01*
X111000000Y-94656497D01*
X112343503Y-96000000D01*
X111000000Y-97343503D01*
G37*
%TD*%
%TO.C,D19*%
G36*
X118000000Y-97343503D02*
G01*
X116656497Y-96000000D01*
X118000000Y-94656497D01*
X119343503Y-96000000D01*
X118000000Y-97343503D01*
G37*
D13*
X119796051Y-94203949D03*
%TD*%
%TO.C,D20*%
X126796051Y-94203949D03*
D12*
G36*
X125000000Y-97343503D02*
G01*
X123656497Y-96000000D01*
X125000000Y-94656497D01*
X126343503Y-96000000D01*
X125000000Y-97343503D01*
G37*
%TD*%
D13*
%TO.C,D21*%
X133796051Y-94203949D03*
D12*
G36*
X132000000Y-97343503D02*
G01*
X130656497Y-96000000D01*
X132000000Y-94656497D01*
X133343503Y-96000000D01*
X132000000Y-97343503D01*
G37*
%TD*%
%TO.C,D22*%
G36*
X139000000Y-97343503D02*
G01*
X137656497Y-96000000D01*
X139000000Y-94656497D01*
X140343503Y-96000000D01*
X139000000Y-97343503D01*
G37*
D13*
X140796051Y-94203949D03*
%TD*%
D12*
%TO.C,D23*%
G36*
X146000000Y-97343503D02*
G01*
X144656497Y-96000000D01*
X146000000Y-94656497D01*
X147343503Y-96000000D01*
X146000000Y-97343503D01*
G37*
D13*
X147796051Y-94203949D03*
%TD*%
%TO.C,D24*%
X154796051Y-94203949D03*
D12*
G36*
X153000000Y-97343503D02*
G01*
X151656497Y-96000000D01*
X153000000Y-94656497D01*
X154343503Y-96000000D01*
X153000000Y-97343503D01*
G37*
%TD*%
%TO.C,D25*%
G36*
X104000000Y-104343503D02*
G01*
X102656497Y-103000000D01*
X104000000Y-101656497D01*
X105343503Y-103000000D01*
X104000000Y-104343503D01*
G37*
D13*
X105796051Y-101203949D03*
%TD*%
%TO.C,D26*%
X112796051Y-101203949D03*
D12*
G36*
X111000000Y-104343503D02*
G01*
X109656497Y-103000000D01*
X111000000Y-101656497D01*
X112343503Y-103000000D01*
X111000000Y-104343503D01*
G37*
%TD*%
%TO.C,D27*%
G36*
X118000000Y-104343503D02*
G01*
X116656497Y-103000000D01*
X118000000Y-101656497D01*
X119343503Y-103000000D01*
X118000000Y-104343503D01*
G37*
D13*
X119796051Y-101203949D03*
%TD*%
D12*
%TO.C,D28*%
G36*
X125000000Y-104343503D02*
G01*
X123656497Y-103000000D01*
X125000000Y-101656497D01*
X126343503Y-103000000D01*
X125000000Y-104343503D01*
G37*
D13*
X126796051Y-101203949D03*
%TD*%
D12*
%TO.C,D29*%
G36*
X132000000Y-104343503D02*
G01*
X130656497Y-103000000D01*
X132000000Y-101656497D01*
X133343503Y-103000000D01*
X132000000Y-104343503D01*
G37*
D13*
X133796051Y-101203949D03*
%TD*%
%TO.C,D30*%
X140796051Y-101203949D03*
D12*
G36*
X139000000Y-104343503D02*
G01*
X137656497Y-103000000D01*
X139000000Y-101656497D01*
X140343503Y-103000000D01*
X139000000Y-104343503D01*
G37*
%TD*%
%TO.C,D31*%
G36*
X146000000Y-104343503D02*
G01*
X144656497Y-103000000D01*
X146000000Y-101656497D01*
X147343503Y-103000000D01*
X146000000Y-104343503D01*
G37*
D13*
X147796051Y-101203949D03*
%TD*%
%TO.C,D32*%
X154796051Y-101203949D03*
D12*
G36*
X153000000Y-104343503D02*
G01*
X151656497Y-103000000D01*
X153000000Y-101656497D01*
X154343503Y-103000000D01*
X153000000Y-104343503D01*
G37*
%TD*%
%TO.C,D33*%
G36*
X104000000Y-111343503D02*
G01*
X102656497Y-110000000D01*
X104000000Y-108656497D01*
X105343503Y-110000000D01*
X104000000Y-111343503D01*
G37*
D13*
X105796051Y-108203949D03*
%TD*%
%TO.C,D34*%
X112796051Y-108203949D03*
D12*
G36*
X111000000Y-111343503D02*
G01*
X109656497Y-110000000D01*
X111000000Y-108656497D01*
X112343503Y-110000000D01*
X111000000Y-111343503D01*
G37*
%TD*%
%TO.C,D35*%
G36*
X118000000Y-111343503D02*
G01*
X116656497Y-110000000D01*
X118000000Y-108656497D01*
X119343503Y-110000000D01*
X118000000Y-111343503D01*
G37*
D13*
X119796051Y-108203949D03*
%TD*%
%TO.C,D36*%
X126796051Y-108203949D03*
D12*
G36*
X125000000Y-111343503D02*
G01*
X123656497Y-110000000D01*
X125000000Y-108656497D01*
X126343503Y-110000000D01*
X125000000Y-111343503D01*
G37*
%TD*%
D13*
%TO.C,D37*%
X133796051Y-108203949D03*
D12*
G36*
X132000000Y-111343503D02*
G01*
X130656497Y-110000000D01*
X132000000Y-108656497D01*
X133343503Y-110000000D01*
X132000000Y-111343503D01*
G37*
%TD*%
D13*
%TO.C,D38*%
X140796051Y-108203949D03*
D12*
G36*
X139000000Y-111343503D02*
G01*
X137656497Y-110000000D01*
X139000000Y-108656497D01*
X140343503Y-110000000D01*
X139000000Y-111343503D01*
G37*
%TD*%
%TO.C,D39*%
G36*
X146000000Y-111343503D02*
G01*
X144656497Y-110000000D01*
X146000000Y-108656497D01*
X147343503Y-110000000D01*
X146000000Y-111343503D01*
G37*
D13*
X147796051Y-108203949D03*
%TD*%
%TO.C,D40*%
X154796051Y-108203949D03*
D12*
G36*
X153000000Y-111343503D02*
G01*
X151656497Y-110000000D01*
X153000000Y-108656497D01*
X154343503Y-110000000D01*
X153000000Y-111343503D01*
G37*
%TD*%
%TO.C,D41*%
G36*
X104000000Y-118343503D02*
G01*
X102656497Y-117000000D01*
X104000000Y-115656497D01*
X105343503Y-117000000D01*
X104000000Y-118343503D01*
G37*
D13*
X105796051Y-115203949D03*
%TD*%
%TO.C,D42*%
X112796051Y-115203949D03*
D12*
G36*
X111000000Y-118343503D02*
G01*
X109656497Y-117000000D01*
X111000000Y-115656497D01*
X112343503Y-117000000D01*
X111000000Y-118343503D01*
G37*
%TD*%
%TO.C,D43*%
G36*
X118000000Y-118343503D02*
G01*
X116656497Y-117000000D01*
X118000000Y-115656497D01*
X119343503Y-117000000D01*
X118000000Y-118343503D01*
G37*
D13*
X119796051Y-115203949D03*
%TD*%
%TO.C,D44*%
X126796051Y-115203949D03*
D12*
G36*
X125000000Y-118343503D02*
G01*
X123656497Y-117000000D01*
X125000000Y-115656497D01*
X126343503Y-117000000D01*
X125000000Y-118343503D01*
G37*
%TD*%
%TO.C,D45*%
G36*
X132000000Y-118343503D02*
G01*
X130656497Y-117000000D01*
X132000000Y-115656497D01*
X133343503Y-117000000D01*
X132000000Y-118343503D01*
G37*
D13*
X133796051Y-115203949D03*
%TD*%
%TO.C,D46*%
X140796051Y-115203949D03*
D12*
G36*
X139000000Y-118343503D02*
G01*
X137656497Y-117000000D01*
X139000000Y-115656497D01*
X140343503Y-117000000D01*
X139000000Y-118343503D01*
G37*
%TD*%
%TO.C,D47*%
G36*
X146000000Y-118343503D02*
G01*
X144656497Y-117000000D01*
X146000000Y-115656497D01*
X147343503Y-117000000D01*
X146000000Y-118343503D01*
G37*
D13*
X147796051Y-115203949D03*
%TD*%
%TO.C,D48*%
X154796051Y-115203949D03*
D12*
G36*
X153000000Y-118343503D02*
G01*
X151656497Y-117000000D01*
X153000000Y-115656497D01*
X154343503Y-117000000D01*
X153000000Y-118343503D01*
G37*
%TD*%
%TO.C,D49*%
G36*
X104000000Y-125343503D02*
G01*
X102656497Y-124000000D01*
X104000000Y-122656497D01*
X105343503Y-124000000D01*
X104000000Y-125343503D01*
G37*
D13*
X105796051Y-122203949D03*
%TD*%
%TO.C,D50*%
X112796051Y-122203949D03*
D12*
G36*
X111000000Y-125343503D02*
G01*
X109656497Y-124000000D01*
X111000000Y-122656497D01*
X112343503Y-124000000D01*
X111000000Y-125343503D01*
G37*
%TD*%
%TO.C,D51*%
G36*
X118000000Y-125343503D02*
G01*
X116656497Y-124000000D01*
X118000000Y-122656497D01*
X119343503Y-124000000D01*
X118000000Y-125343503D01*
G37*
D13*
X119796051Y-122203949D03*
%TD*%
%TO.C,D52*%
X126796051Y-122203949D03*
D12*
G36*
X125000000Y-125343503D02*
G01*
X123656497Y-124000000D01*
X125000000Y-122656497D01*
X126343503Y-124000000D01*
X125000000Y-125343503D01*
G37*
%TD*%
%TO.C,D53*%
G36*
X132000000Y-125343503D02*
G01*
X130656497Y-124000000D01*
X132000000Y-122656497D01*
X133343503Y-124000000D01*
X132000000Y-125343503D01*
G37*
D13*
X133796051Y-122203949D03*
%TD*%
%TO.C,D54*%
X140796051Y-122203949D03*
D12*
G36*
X139000000Y-125343503D02*
G01*
X137656497Y-124000000D01*
X139000000Y-122656497D01*
X140343503Y-124000000D01*
X139000000Y-125343503D01*
G37*
%TD*%
%TO.C,D55*%
G36*
X146000000Y-125343503D02*
G01*
X144656497Y-124000000D01*
X146000000Y-122656497D01*
X147343503Y-124000000D01*
X146000000Y-125343503D01*
G37*
D13*
X147796051Y-122203949D03*
%TD*%
%TO.C,D56*%
X154796051Y-122203949D03*
D12*
G36*
X153000000Y-125343503D02*
G01*
X151656497Y-124000000D01*
X153000000Y-122656497D01*
X154343503Y-124000000D01*
X153000000Y-125343503D01*
G37*
%TD*%
%TO.C,D57*%
G36*
X104000000Y-132343503D02*
G01*
X102656497Y-131000000D01*
X104000000Y-129656497D01*
X105343503Y-131000000D01*
X104000000Y-132343503D01*
G37*
D13*
X105796051Y-129203949D03*
%TD*%
%TO.C,D58*%
X112796051Y-129203949D03*
D12*
G36*
X111000000Y-132343503D02*
G01*
X109656497Y-131000000D01*
X111000000Y-129656497D01*
X112343503Y-131000000D01*
X111000000Y-132343503D01*
G37*
%TD*%
%TO.C,D59*%
G36*
X118000000Y-132343503D02*
G01*
X116656497Y-131000000D01*
X118000000Y-129656497D01*
X119343503Y-131000000D01*
X118000000Y-132343503D01*
G37*
D13*
X119796051Y-129203949D03*
%TD*%
%TO.C,D60*%
X126796051Y-129203949D03*
D12*
G36*
X125000000Y-132343503D02*
G01*
X123656497Y-131000000D01*
X125000000Y-129656497D01*
X126343503Y-131000000D01*
X125000000Y-132343503D01*
G37*
%TD*%
%TO.C,D61*%
G36*
X132000000Y-132343503D02*
G01*
X130656497Y-131000000D01*
X132000000Y-129656497D01*
X133343503Y-131000000D01*
X132000000Y-132343503D01*
G37*
D13*
X133796051Y-129203949D03*
%TD*%
%TO.C,D62*%
X140796051Y-129203949D03*
D12*
G36*
X139000000Y-132343503D02*
G01*
X137656497Y-131000000D01*
X139000000Y-129656497D01*
X140343503Y-131000000D01*
X139000000Y-132343503D01*
G37*
%TD*%
%TO.C,D63*%
G36*
X146000000Y-132343503D02*
G01*
X144656497Y-131000000D01*
X146000000Y-129656497D01*
X147343503Y-131000000D01*
X146000000Y-132343503D01*
G37*
D13*
X147796051Y-129203949D03*
%TD*%
%TO.C,D64*%
X154796051Y-129203949D03*
D12*
G36*
X153000000Y-132343503D02*
G01*
X151656497Y-131000000D01*
X153000000Y-129656497D01*
X154343503Y-131000000D01*
X153000000Y-132343503D01*
G37*
%TD*%
D11*
%TO.C,J2*%
X158500000Y-95500000D03*
D10*
X158500000Y-98040000D03*
X158500000Y-100580000D03*
X158500000Y-103120000D03*
X158500000Y-105660000D03*
X158500000Y-108200000D03*
X158500000Y-110740000D03*
X158500000Y-113280000D03*
%TD*%
%TO.C,J3*%
X100500000Y-97220000D03*
X100500000Y-99760000D03*
X100500000Y-102300000D03*
X100500000Y-104840000D03*
X100500000Y-107380000D03*
X100500000Y-109920000D03*
X100500000Y-112460000D03*
D11*
X100500000Y-115000000D03*
%TD*%
D10*
%TO.C,J4*%
X120720000Y-134500000D03*
X123260000Y-134500000D03*
X125800000Y-134500000D03*
X128340000Y-134500000D03*
X130880000Y-134500000D03*
X133420000Y-134500000D03*
X135960000Y-134500000D03*
D11*
X138500000Y-134500000D03*
%TD*%
M02*
