%TF.GenerationSoftware,KiCad,Pcbnew,(5.1.6)-1*%
%TF.CreationDate,2020-05-26T21:01:59-04:00*%
%TF.ProjectId,ArduinoLife2_Display,41726475-696e-46f4-9c69-6665325f4469,rev?*%
%TF.SameCoordinates,Original*%
%TF.FileFunction,Legend,Bot*%
%TF.FilePolarity,Positive*%
%FSLAX46Y46*%
G04 Gerber Fmt 4.6, Leading zero omitted, Abs format (unit mm)*
G04 Created by KiCad (PCBNEW (5.1.6)-1) date 2020-05-26 21:01:59*
%MOMM*%
%LPD*%
G01*
G04 APERTURE LIST*
%ADD10C,0.120000*%
%ADD11C,0.150000*%
G04 APERTURE END LIST*
D10*
%TO.C,J1*%
X142650000Y-75670000D02*
X142650000Y-78330000D01*
X122270000Y-75670000D02*
X142650000Y-75670000D01*
X122270000Y-78330000D02*
X142650000Y-78330000D01*
X122270000Y-75670000D02*
X122270000Y-78330000D01*
X121000000Y-75670000D02*
X119670000Y-75670000D01*
X119670000Y-75670000D02*
X119670000Y-77000000D01*
%TO.C,J2*%
X159830000Y-94170000D02*
X158500000Y-94170000D01*
X159830000Y-95500000D02*
X159830000Y-94170000D01*
X159830000Y-96770000D02*
X157170000Y-96770000D01*
X157170000Y-96770000D02*
X157170000Y-114610000D01*
X159830000Y-96770000D02*
X159830000Y-114610000D01*
X159830000Y-114610000D02*
X157170000Y-114610000D01*
%TO.C,J3*%
X99170000Y-95890000D02*
X101830000Y-95890000D01*
X99170000Y-113730000D02*
X99170000Y-95890000D01*
X101830000Y-113730000D02*
X101830000Y-95890000D01*
X99170000Y-113730000D02*
X101830000Y-113730000D01*
X99170000Y-115000000D02*
X99170000Y-116330000D01*
X99170000Y-116330000D02*
X100500000Y-116330000D01*
%TO.C,J4*%
X119390000Y-135830000D02*
X119390000Y-133170000D01*
X137230000Y-135830000D02*
X119390000Y-135830000D01*
X137230000Y-133170000D02*
X119390000Y-133170000D01*
X137230000Y-135830000D02*
X137230000Y-133170000D01*
X138500000Y-135830000D02*
X139830000Y-135830000D01*
X139830000Y-135830000D02*
X139830000Y-134500000D01*
%TO.C,J1*%
D11*
X118122380Y-76666666D02*
X118836666Y-76666666D01*
X118979523Y-76619047D01*
X119074761Y-76523809D01*
X119122380Y-76380952D01*
X119122380Y-76285714D01*
X119122380Y-77666666D02*
X119122380Y-77095238D01*
X119122380Y-77380952D02*
X118122380Y-77380952D01*
X118265238Y-77285714D01*
X118360476Y-77190476D01*
X118408095Y-77095238D01*
%TO.C,D1*%
X104189676Y-79849801D02*
X103482570Y-79142694D01*
X103314211Y-79311053D01*
X103246867Y-79445740D01*
X103246867Y-79580427D01*
X103280539Y-79681442D01*
X103381554Y-79849801D01*
X103482570Y-79950816D01*
X103650928Y-80051832D01*
X103751944Y-80085503D01*
X103886631Y-80085503D01*
X104021318Y-80018160D01*
X104189676Y-79849801D01*
X103112180Y-80927297D02*
X103516241Y-80523236D01*
X103314211Y-80725267D02*
X102607104Y-80018160D01*
X102775463Y-80051832D01*
X102910150Y-80051832D01*
X103011165Y-80018160D01*
%TO.C,D2*%
X111189676Y-79849801D02*
X110482570Y-79142694D01*
X110314211Y-79311053D01*
X110246867Y-79445740D01*
X110246867Y-79580427D01*
X110280539Y-79681442D01*
X110381554Y-79849801D01*
X110482570Y-79950816D01*
X110650928Y-80051832D01*
X110751944Y-80085503D01*
X110886631Y-80085503D01*
X111021318Y-80018160D01*
X111189676Y-79849801D01*
X109876478Y-79883473D02*
X109809134Y-79883473D01*
X109708119Y-79917144D01*
X109539760Y-80085503D01*
X109506089Y-80186519D01*
X109506089Y-80253862D01*
X109539760Y-80354877D01*
X109607104Y-80422221D01*
X109741791Y-80489564D01*
X110549913Y-80489564D01*
X110112180Y-80927297D01*
%TO.C,D3*%
X118189676Y-79849801D02*
X117482570Y-79142694D01*
X117314211Y-79311053D01*
X117246867Y-79445740D01*
X117246867Y-79580427D01*
X117280539Y-79681442D01*
X117381554Y-79849801D01*
X117482570Y-79950816D01*
X117650928Y-80051832D01*
X117751944Y-80085503D01*
X117886631Y-80085503D01*
X118021318Y-80018160D01*
X118189676Y-79849801D01*
X116842806Y-79782457D02*
X116405073Y-80220190D01*
X116910150Y-80253862D01*
X116809134Y-80354877D01*
X116775463Y-80455893D01*
X116775463Y-80523236D01*
X116809134Y-80624251D01*
X116977493Y-80792610D01*
X117078508Y-80826282D01*
X117145852Y-80826282D01*
X117246867Y-80792610D01*
X117448898Y-80590580D01*
X117482570Y-80489564D01*
X117482570Y-80422221D01*
%TO.C,D4*%
X125091793Y-79547969D02*
X124384687Y-78840862D01*
X124216328Y-79009221D01*
X124148984Y-79143908D01*
X124148984Y-79278595D01*
X124182656Y-79379610D01*
X124283671Y-79547969D01*
X124384687Y-79648984D01*
X124553045Y-79750000D01*
X124654061Y-79783671D01*
X124788748Y-79783671D01*
X124923435Y-79716328D01*
X125091793Y-79547969D01*
X123610236Y-80086717D02*
X124081641Y-80558122D01*
X123509221Y-79648984D02*
X124182656Y-79985702D01*
X123744923Y-80423435D01*
%TO.C,D5*%
X132091793Y-79297969D02*
X131384687Y-78590862D01*
X131216328Y-78759221D01*
X131148984Y-78893908D01*
X131148984Y-79028595D01*
X131182656Y-79129610D01*
X131283671Y-79297969D01*
X131384687Y-79398984D01*
X131553045Y-79500000D01*
X131654061Y-79533671D01*
X131788748Y-79533671D01*
X131923435Y-79466328D01*
X132091793Y-79297969D01*
X130340862Y-79634687D02*
X130677580Y-79297969D01*
X131047969Y-79601015D01*
X130980625Y-79601015D01*
X130879610Y-79634687D01*
X130711251Y-79803045D01*
X130677580Y-79904061D01*
X130677580Y-79971404D01*
X130711251Y-80072419D01*
X130879610Y-80240778D01*
X130980625Y-80274450D01*
X131047969Y-80274450D01*
X131148984Y-80240778D01*
X131317343Y-80072419D01*
X131351015Y-79971404D01*
X131351015Y-79904061D01*
%TO.C,D6*%
X139341793Y-79547969D02*
X138634687Y-78840862D01*
X138466328Y-79009221D01*
X138398984Y-79143908D01*
X138398984Y-79278595D01*
X138432656Y-79379610D01*
X138533671Y-79547969D01*
X138634687Y-79648984D01*
X138803045Y-79750000D01*
X138904061Y-79783671D01*
X139038748Y-79783671D01*
X139173435Y-79716328D01*
X139341793Y-79547969D01*
X137624534Y-79851015D02*
X137759221Y-79716328D01*
X137860236Y-79682656D01*
X137927580Y-79682656D01*
X138095938Y-79716328D01*
X138264297Y-79817343D01*
X138533671Y-80086717D01*
X138567343Y-80187732D01*
X138567343Y-80255076D01*
X138533671Y-80356091D01*
X138398984Y-80490778D01*
X138297969Y-80524450D01*
X138230625Y-80524450D01*
X138129610Y-80490778D01*
X137961251Y-80322419D01*
X137927580Y-80221404D01*
X137927580Y-80154061D01*
X137961251Y-80053045D01*
X138095938Y-79918358D01*
X138196954Y-79884687D01*
X138264297Y-79884687D01*
X138365312Y-79918358D01*
%TO.C,D7*%
X146189676Y-79849801D02*
X145482570Y-79142694D01*
X145314211Y-79311053D01*
X145246867Y-79445740D01*
X145246867Y-79580427D01*
X145280539Y-79681442D01*
X145381554Y-79849801D01*
X145482570Y-79950816D01*
X145650928Y-80051832D01*
X145751944Y-80085503D01*
X145886631Y-80085503D01*
X146021318Y-80018160D01*
X146189676Y-79849801D01*
X144842806Y-79782457D02*
X144371402Y-80253862D01*
X145381554Y-80657923D01*
%TO.C,D8*%
X153189676Y-79849801D02*
X152482570Y-79142694D01*
X152314211Y-79311053D01*
X152246867Y-79445740D01*
X152246867Y-79580427D01*
X152280539Y-79681442D01*
X152381554Y-79849801D01*
X152482570Y-79950816D01*
X152650928Y-80051832D01*
X152751944Y-80085503D01*
X152886631Y-80085503D01*
X153021318Y-80018160D01*
X153189676Y-79849801D01*
X151977493Y-80253862D02*
X152011165Y-80152847D01*
X152011165Y-80085503D01*
X151977493Y-79984488D01*
X151943821Y-79950816D01*
X151842806Y-79917144D01*
X151775463Y-79917144D01*
X151674447Y-79950816D01*
X151539760Y-80085503D01*
X151506089Y-80186519D01*
X151506089Y-80253862D01*
X151539760Y-80354877D01*
X151573432Y-80388549D01*
X151674447Y-80422221D01*
X151741791Y-80422221D01*
X151842806Y-80388549D01*
X151977493Y-80253862D01*
X152078508Y-80220190D01*
X152145852Y-80220190D01*
X152246867Y-80253862D01*
X152381554Y-80388549D01*
X152415226Y-80489564D01*
X152415226Y-80556908D01*
X152381554Y-80657923D01*
X152246867Y-80792610D01*
X152145852Y-80826282D01*
X152078508Y-80826282D01*
X151977493Y-80792610D01*
X151842806Y-80657923D01*
X151809134Y-80556908D01*
X151809134Y-80489564D01*
X151842806Y-80388549D01*
%TO.C,D9*%
X104189676Y-86849801D02*
X103482570Y-86142694D01*
X103314211Y-86311053D01*
X103246867Y-86445740D01*
X103246867Y-86580427D01*
X103280539Y-86681442D01*
X103381554Y-86849801D01*
X103482570Y-86950816D01*
X103650928Y-87051832D01*
X103751944Y-87085503D01*
X103886631Y-87085503D01*
X104021318Y-87018160D01*
X104189676Y-86849801D01*
X103448898Y-87590580D02*
X103314211Y-87725267D01*
X103213195Y-87758938D01*
X103145852Y-87758938D01*
X102977493Y-87725267D01*
X102809134Y-87624251D01*
X102539760Y-87354877D01*
X102506089Y-87253862D01*
X102506089Y-87186519D01*
X102539760Y-87085503D01*
X102674447Y-86950816D01*
X102775463Y-86917144D01*
X102842806Y-86917144D01*
X102943821Y-86950816D01*
X103112180Y-87119175D01*
X103145852Y-87220190D01*
X103145852Y-87287534D01*
X103112180Y-87388549D01*
X102977493Y-87523236D01*
X102876478Y-87556908D01*
X102809134Y-87556908D01*
X102708119Y-87523236D01*
%TO.C,D10*%
X111526394Y-86513083D02*
X110819287Y-85805977D01*
X110650928Y-85974335D01*
X110583585Y-86109022D01*
X110583585Y-86243709D01*
X110617257Y-86344725D01*
X110718272Y-86513083D01*
X110819287Y-86614099D01*
X110987646Y-86715114D01*
X111088661Y-86748786D01*
X111223348Y-86748786D01*
X111358035Y-86681442D01*
X111526394Y-86513083D01*
X110448898Y-87590580D02*
X110852959Y-87186519D01*
X110650928Y-87388549D02*
X109943821Y-86681442D01*
X110112180Y-86715114D01*
X110246867Y-86715114D01*
X110347883Y-86681442D01*
X109304058Y-87321206D02*
X109236715Y-87388549D01*
X109203043Y-87489564D01*
X109203043Y-87556908D01*
X109236715Y-87657923D01*
X109337730Y-87826282D01*
X109506089Y-87994641D01*
X109674447Y-88095656D01*
X109775463Y-88129328D01*
X109842806Y-88129328D01*
X109943821Y-88095656D01*
X110011165Y-88028312D01*
X110044837Y-87927297D01*
X110044837Y-87859954D01*
X110011165Y-87758938D01*
X109910150Y-87590580D01*
X109741791Y-87422221D01*
X109573432Y-87321206D01*
X109472417Y-87287534D01*
X109405073Y-87287534D01*
X109304058Y-87321206D01*
%TO.C,D11*%
X118526394Y-86513083D02*
X117819287Y-85805977D01*
X117650928Y-85974335D01*
X117583585Y-86109022D01*
X117583585Y-86243709D01*
X117617257Y-86344725D01*
X117718272Y-86513083D01*
X117819287Y-86614099D01*
X117987646Y-86715114D01*
X118088661Y-86748786D01*
X118223348Y-86748786D01*
X118358035Y-86681442D01*
X118526394Y-86513083D01*
X117448898Y-87590580D02*
X117852959Y-87186519D01*
X117650928Y-87388549D02*
X116943821Y-86681442D01*
X117112180Y-86715114D01*
X117246867Y-86715114D01*
X117347883Y-86681442D01*
X116775463Y-88264015D02*
X117179524Y-87859954D01*
X116977493Y-88061984D02*
X116270386Y-87354877D01*
X116438745Y-87388549D01*
X116573432Y-87388549D01*
X116674447Y-87354877D01*
%TO.C,D12*%
X125526394Y-86513083D02*
X124819287Y-85805977D01*
X124650928Y-85974335D01*
X124583585Y-86109022D01*
X124583585Y-86243709D01*
X124617257Y-86344725D01*
X124718272Y-86513083D01*
X124819287Y-86614099D01*
X124987646Y-86715114D01*
X125088661Y-86748786D01*
X125223348Y-86748786D01*
X125358035Y-86681442D01*
X125526394Y-86513083D01*
X124448898Y-87590580D02*
X124852959Y-87186519D01*
X124650928Y-87388549D02*
X123943821Y-86681442D01*
X124112180Y-86715114D01*
X124246867Y-86715114D01*
X124347883Y-86681442D01*
X123539760Y-87220190D02*
X123472417Y-87220190D01*
X123371402Y-87253862D01*
X123203043Y-87422221D01*
X123169371Y-87523236D01*
X123169371Y-87590580D01*
X123203043Y-87691595D01*
X123270386Y-87758938D01*
X123405073Y-87826282D01*
X124213195Y-87826282D01*
X123775463Y-88264015D01*
%TO.C,D13*%
X132526394Y-86513083D02*
X131819287Y-85805977D01*
X131650928Y-85974335D01*
X131583585Y-86109022D01*
X131583585Y-86243709D01*
X131617257Y-86344725D01*
X131718272Y-86513083D01*
X131819287Y-86614099D01*
X131987646Y-86715114D01*
X132088661Y-86748786D01*
X132223348Y-86748786D01*
X132358035Y-86681442D01*
X132526394Y-86513083D01*
X131448898Y-87590580D02*
X131852959Y-87186519D01*
X131650928Y-87388549D02*
X130943821Y-86681442D01*
X131112180Y-86715114D01*
X131246867Y-86715114D01*
X131347883Y-86681442D01*
X130506089Y-87119175D02*
X130068356Y-87556908D01*
X130573432Y-87590580D01*
X130472417Y-87691595D01*
X130438745Y-87792610D01*
X130438745Y-87859954D01*
X130472417Y-87960969D01*
X130640776Y-88129328D01*
X130741791Y-88162999D01*
X130809134Y-88162999D01*
X130910150Y-88129328D01*
X131112180Y-87927297D01*
X131145852Y-87826282D01*
X131145852Y-87758938D01*
%TO.C,D14*%
X139526394Y-86513083D02*
X138819287Y-85805977D01*
X138650928Y-85974335D01*
X138583585Y-86109022D01*
X138583585Y-86243709D01*
X138617257Y-86344725D01*
X138718272Y-86513083D01*
X138819287Y-86614099D01*
X138987646Y-86715114D01*
X139088661Y-86748786D01*
X139223348Y-86748786D01*
X139358035Y-86681442D01*
X139526394Y-86513083D01*
X138448898Y-87590580D02*
X138852959Y-87186519D01*
X138650928Y-87388549D02*
X137943821Y-86681442D01*
X138112180Y-86715114D01*
X138246867Y-86715114D01*
X138347883Y-86681442D01*
X137371402Y-87725267D02*
X137842806Y-88196671D01*
X137270386Y-87287534D02*
X137943821Y-87624251D01*
X137506089Y-88061984D01*
%TO.C,D15*%
X146526394Y-86513083D02*
X145819287Y-85805977D01*
X145650928Y-85974335D01*
X145583585Y-86109022D01*
X145583585Y-86243709D01*
X145617257Y-86344725D01*
X145718272Y-86513083D01*
X145819287Y-86614099D01*
X145987646Y-86715114D01*
X146088661Y-86748786D01*
X146223348Y-86748786D01*
X146358035Y-86681442D01*
X146526394Y-86513083D01*
X145448898Y-87590580D02*
X145852959Y-87186519D01*
X145650928Y-87388549D02*
X144943821Y-86681442D01*
X145112180Y-86715114D01*
X145246867Y-86715114D01*
X145347883Y-86681442D01*
X144102028Y-87523236D02*
X144438745Y-87186519D01*
X144809134Y-87489564D01*
X144741791Y-87489564D01*
X144640776Y-87523236D01*
X144472417Y-87691595D01*
X144438745Y-87792610D01*
X144438745Y-87859954D01*
X144472417Y-87960969D01*
X144640776Y-88129328D01*
X144741791Y-88162999D01*
X144809134Y-88162999D01*
X144910150Y-88129328D01*
X145078508Y-87960969D01*
X145112180Y-87859954D01*
X145112180Y-87792610D01*
%TO.C,D16*%
X153526394Y-86513083D02*
X152819287Y-85805977D01*
X152650928Y-85974335D01*
X152583585Y-86109022D01*
X152583585Y-86243709D01*
X152617257Y-86344725D01*
X152718272Y-86513083D01*
X152819287Y-86614099D01*
X152987646Y-86715114D01*
X153088661Y-86748786D01*
X153223348Y-86748786D01*
X153358035Y-86681442D01*
X153526394Y-86513083D01*
X152448898Y-87590580D02*
X152852959Y-87186519D01*
X152650928Y-87388549D02*
X151943821Y-86681442D01*
X152112180Y-86715114D01*
X152246867Y-86715114D01*
X152347883Y-86681442D01*
X151135699Y-87489564D02*
X151270386Y-87354877D01*
X151371402Y-87321206D01*
X151438745Y-87321206D01*
X151607104Y-87354877D01*
X151775463Y-87455893D01*
X152044837Y-87725267D01*
X152078508Y-87826282D01*
X152078508Y-87893625D01*
X152044837Y-87994641D01*
X151910150Y-88129328D01*
X151809134Y-88162999D01*
X151741791Y-88162999D01*
X151640776Y-88129328D01*
X151472417Y-87960969D01*
X151438745Y-87859954D01*
X151438745Y-87792610D01*
X151472417Y-87691595D01*
X151607104Y-87556908D01*
X151708119Y-87523236D01*
X151775463Y-87523236D01*
X151876478Y-87556908D01*
%TO.C,D17*%
X104776394Y-93263083D02*
X104069287Y-92555977D01*
X103900928Y-92724335D01*
X103833585Y-92859022D01*
X103833585Y-92993709D01*
X103867257Y-93094725D01*
X103968272Y-93263083D01*
X104069287Y-93364099D01*
X104237646Y-93465114D01*
X104338661Y-93498786D01*
X104473348Y-93498786D01*
X104608035Y-93431442D01*
X104776394Y-93263083D01*
X103698898Y-94340580D02*
X104102959Y-93936519D01*
X103900928Y-94138549D02*
X103193821Y-93431442D01*
X103362180Y-93465114D01*
X103496867Y-93465114D01*
X103597883Y-93431442D01*
X102756089Y-93869175D02*
X102284684Y-94340580D01*
X103294837Y-94744641D01*
%TO.C,D18*%
X111776394Y-93263083D02*
X111069287Y-92555977D01*
X110900928Y-92724335D01*
X110833585Y-92859022D01*
X110833585Y-92993709D01*
X110867257Y-93094725D01*
X110968272Y-93263083D01*
X111069287Y-93364099D01*
X111237646Y-93465114D01*
X111338661Y-93498786D01*
X111473348Y-93498786D01*
X111608035Y-93431442D01*
X111776394Y-93263083D01*
X110698898Y-94340580D02*
X111102959Y-93936519D01*
X110900928Y-94138549D02*
X110193821Y-93431442D01*
X110362180Y-93465114D01*
X110496867Y-93465114D01*
X110597883Y-93431442D01*
X109890776Y-94340580D02*
X109924447Y-94239564D01*
X109924447Y-94172221D01*
X109890776Y-94071206D01*
X109857104Y-94037534D01*
X109756089Y-94003862D01*
X109688745Y-94003862D01*
X109587730Y-94037534D01*
X109453043Y-94172221D01*
X109419371Y-94273236D01*
X109419371Y-94340580D01*
X109453043Y-94441595D01*
X109486715Y-94475267D01*
X109587730Y-94508938D01*
X109655073Y-94508938D01*
X109756089Y-94475267D01*
X109890776Y-94340580D01*
X109991791Y-94306908D01*
X110059134Y-94306908D01*
X110160150Y-94340580D01*
X110294837Y-94475267D01*
X110328508Y-94576282D01*
X110328508Y-94643625D01*
X110294837Y-94744641D01*
X110160150Y-94879328D01*
X110059134Y-94912999D01*
X109991791Y-94912999D01*
X109890776Y-94879328D01*
X109756089Y-94744641D01*
X109722417Y-94643625D01*
X109722417Y-94576282D01*
X109756089Y-94475267D01*
%TO.C,D19*%
X118776394Y-93263083D02*
X118069287Y-92555977D01*
X117900928Y-92724335D01*
X117833585Y-92859022D01*
X117833585Y-92993709D01*
X117867257Y-93094725D01*
X117968272Y-93263083D01*
X118069287Y-93364099D01*
X118237646Y-93465114D01*
X118338661Y-93498786D01*
X118473348Y-93498786D01*
X118608035Y-93431442D01*
X118776394Y-93263083D01*
X117698898Y-94340580D02*
X118102959Y-93936519D01*
X117900928Y-94138549D02*
X117193821Y-93431442D01*
X117362180Y-93465114D01*
X117496867Y-93465114D01*
X117597883Y-93431442D01*
X117362180Y-94677297D02*
X117227493Y-94811984D01*
X117126478Y-94845656D01*
X117059134Y-94845656D01*
X116890776Y-94811984D01*
X116722417Y-94710969D01*
X116453043Y-94441595D01*
X116419371Y-94340580D01*
X116419371Y-94273236D01*
X116453043Y-94172221D01*
X116587730Y-94037534D01*
X116688745Y-94003862D01*
X116756089Y-94003862D01*
X116857104Y-94037534D01*
X117025463Y-94205893D01*
X117059134Y-94306908D01*
X117059134Y-94374251D01*
X117025463Y-94475267D01*
X116890776Y-94609954D01*
X116789760Y-94643625D01*
X116722417Y-94643625D01*
X116621402Y-94609954D01*
%TO.C,D20*%
X125776394Y-93263083D02*
X125069287Y-92555977D01*
X124900928Y-92724335D01*
X124833585Y-92859022D01*
X124833585Y-92993709D01*
X124867257Y-93094725D01*
X124968272Y-93263083D01*
X125069287Y-93364099D01*
X125237646Y-93465114D01*
X125338661Y-93498786D01*
X125473348Y-93498786D01*
X125608035Y-93431442D01*
X125776394Y-93263083D01*
X124463195Y-93296755D02*
X124395852Y-93296755D01*
X124294837Y-93330427D01*
X124126478Y-93498786D01*
X124092806Y-93599801D01*
X124092806Y-93667144D01*
X124126478Y-93768160D01*
X124193821Y-93835503D01*
X124328508Y-93902847D01*
X125136631Y-93902847D01*
X124698898Y-94340580D01*
X123554058Y-94071206D02*
X123486715Y-94138549D01*
X123453043Y-94239564D01*
X123453043Y-94306908D01*
X123486715Y-94407923D01*
X123587730Y-94576282D01*
X123756089Y-94744641D01*
X123924447Y-94845656D01*
X124025463Y-94879328D01*
X124092806Y-94879328D01*
X124193821Y-94845656D01*
X124261165Y-94778312D01*
X124294837Y-94677297D01*
X124294837Y-94609954D01*
X124261165Y-94508938D01*
X124160150Y-94340580D01*
X123991791Y-94172221D01*
X123823432Y-94071206D01*
X123722417Y-94037534D01*
X123655073Y-94037534D01*
X123554058Y-94071206D01*
%TO.C,D21*%
X132776394Y-93263083D02*
X132069287Y-92555977D01*
X131900928Y-92724335D01*
X131833585Y-92859022D01*
X131833585Y-92993709D01*
X131867257Y-93094725D01*
X131968272Y-93263083D01*
X132069287Y-93364099D01*
X132237646Y-93465114D01*
X132338661Y-93498786D01*
X132473348Y-93498786D01*
X132608035Y-93431442D01*
X132776394Y-93263083D01*
X131463195Y-93296755D02*
X131395852Y-93296755D01*
X131294837Y-93330427D01*
X131126478Y-93498786D01*
X131092806Y-93599801D01*
X131092806Y-93667144D01*
X131126478Y-93768160D01*
X131193821Y-93835503D01*
X131328508Y-93902847D01*
X132136631Y-93902847D01*
X131698898Y-94340580D01*
X131025463Y-95014015D02*
X131429524Y-94609954D01*
X131227493Y-94811984D02*
X130520386Y-94104877D01*
X130688745Y-94138549D01*
X130823432Y-94138549D01*
X130924447Y-94104877D01*
%TO.C,D22*%
X139776394Y-93263083D02*
X139069287Y-92555977D01*
X138900928Y-92724335D01*
X138833585Y-92859022D01*
X138833585Y-92993709D01*
X138867257Y-93094725D01*
X138968272Y-93263083D01*
X139069287Y-93364099D01*
X139237646Y-93465114D01*
X139338661Y-93498786D01*
X139473348Y-93498786D01*
X139608035Y-93431442D01*
X139776394Y-93263083D01*
X138463195Y-93296755D02*
X138395852Y-93296755D01*
X138294837Y-93330427D01*
X138126478Y-93498786D01*
X138092806Y-93599801D01*
X138092806Y-93667144D01*
X138126478Y-93768160D01*
X138193821Y-93835503D01*
X138328508Y-93902847D01*
X139136631Y-93902847D01*
X138698898Y-94340580D01*
X137789760Y-93970190D02*
X137722417Y-93970190D01*
X137621402Y-94003862D01*
X137453043Y-94172221D01*
X137419371Y-94273236D01*
X137419371Y-94340580D01*
X137453043Y-94441595D01*
X137520386Y-94508938D01*
X137655073Y-94576282D01*
X138463195Y-94576282D01*
X138025463Y-95014015D01*
%TO.C,D23*%
X146776394Y-93263083D02*
X146069287Y-92555977D01*
X145900928Y-92724335D01*
X145833585Y-92859022D01*
X145833585Y-92993709D01*
X145867257Y-93094725D01*
X145968272Y-93263083D01*
X146069287Y-93364099D01*
X146237646Y-93465114D01*
X146338661Y-93498786D01*
X146473348Y-93498786D01*
X146608035Y-93431442D01*
X146776394Y-93263083D01*
X145463195Y-93296755D02*
X145395852Y-93296755D01*
X145294837Y-93330427D01*
X145126478Y-93498786D01*
X145092806Y-93599801D01*
X145092806Y-93667144D01*
X145126478Y-93768160D01*
X145193821Y-93835503D01*
X145328508Y-93902847D01*
X146136631Y-93902847D01*
X145698898Y-94340580D01*
X144756089Y-93869175D02*
X144318356Y-94306908D01*
X144823432Y-94340580D01*
X144722417Y-94441595D01*
X144688745Y-94542610D01*
X144688745Y-94609954D01*
X144722417Y-94710969D01*
X144890776Y-94879328D01*
X144991791Y-94912999D01*
X145059134Y-94912999D01*
X145160150Y-94879328D01*
X145362180Y-94677297D01*
X145395852Y-94576282D01*
X145395852Y-94508938D01*
%TO.C,D24*%
X153776394Y-93263083D02*
X153069287Y-92555977D01*
X152900928Y-92724335D01*
X152833585Y-92859022D01*
X152833585Y-92993709D01*
X152867257Y-93094725D01*
X152968272Y-93263083D01*
X153069287Y-93364099D01*
X153237646Y-93465114D01*
X153338661Y-93498786D01*
X153473348Y-93498786D01*
X153608035Y-93431442D01*
X153776394Y-93263083D01*
X152463195Y-93296755D02*
X152395852Y-93296755D01*
X152294837Y-93330427D01*
X152126478Y-93498786D01*
X152092806Y-93599801D01*
X152092806Y-93667144D01*
X152126478Y-93768160D01*
X152193821Y-93835503D01*
X152328508Y-93902847D01*
X153136631Y-93902847D01*
X152698898Y-94340580D01*
X151621402Y-94475267D02*
X152092806Y-94946671D01*
X151520386Y-94037534D02*
X152193821Y-94374251D01*
X151756089Y-94811984D01*
%TO.C,D25*%
X104776394Y-100263083D02*
X104069287Y-99555977D01*
X103900928Y-99724335D01*
X103833585Y-99859022D01*
X103833585Y-99993709D01*
X103867257Y-100094725D01*
X103968272Y-100263083D01*
X104069287Y-100364099D01*
X104237646Y-100465114D01*
X104338661Y-100498786D01*
X104473348Y-100498786D01*
X104608035Y-100431442D01*
X104776394Y-100263083D01*
X103463195Y-100296755D02*
X103395852Y-100296755D01*
X103294837Y-100330427D01*
X103126478Y-100498786D01*
X103092806Y-100599801D01*
X103092806Y-100667144D01*
X103126478Y-100768160D01*
X103193821Y-100835503D01*
X103328508Y-100902847D01*
X104136631Y-100902847D01*
X103698898Y-101340580D01*
X102352028Y-101273236D02*
X102688745Y-100936519D01*
X103059134Y-101239564D01*
X102991791Y-101239564D01*
X102890776Y-101273236D01*
X102722417Y-101441595D01*
X102688745Y-101542610D01*
X102688745Y-101609954D01*
X102722417Y-101710969D01*
X102890776Y-101879328D01*
X102991791Y-101912999D01*
X103059134Y-101912999D01*
X103160150Y-101879328D01*
X103328508Y-101710969D01*
X103362180Y-101609954D01*
X103362180Y-101542610D01*
%TO.C,D26*%
X111776394Y-100263083D02*
X111069287Y-99555977D01*
X110900928Y-99724335D01*
X110833585Y-99859022D01*
X110833585Y-99993709D01*
X110867257Y-100094725D01*
X110968272Y-100263083D01*
X111069287Y-100364099D01*
X111237646Y-100465114D01*
X111338661Y-100498786D01*
X111473348Y-100498786D01*
X111608035Y-100431442D01*
X111776394Y-100263083D01*
X110463195Y-100296755D02*
X110395852Y-100296755D01*
X110294837Y-100330427D01*
X110126478Y-100498786D01*
X110092806Y-100599801D01*
X110092806Y-100667144D01*
X110126478Y-100768160D01*
X110193821Y-100835503D01*
X110328508Y-100902847D01*
X111136631Y-100902847D01*
X110698898Y-101340580D01*
X109385699Y-101239564D02*
X109520386Y-101104877D01*
X109621402Y-101071206D01*
X109688745Y-101071206D01*
X109857104Y-101104877D01*
X110025463Y-101205893D01*
X110294837Y-101475267D01*
X110328508Y-101576282D01*
X110328508Y-101643625D01*
X110294837Y-101744641D01*
X110160150Y-101879328D01*
X110059134Y-101912999D01*
X109991791Y-101912999D01*
X109890776Y-101879328D01*
X109722417Y-101710969D01*
X109688745Y-101609954D01*
X109688745Y-101542610D01*
X109722417Y-101441595D01*
X109857104Y-101306908D01*
X109958119Y-101273236D01*
X110025463Y-101273236D01*
X110126478Y-101306908D01*
%TO.C,D27*%
X118776394Y-100263083D02*
X118069287Y-99555977D01*
X117900928Y-99724335D01*
X117833585Y-99859022D01*
X117833585Y-99993709D01*
X117867257Y-100094725D01*
X117968272Y-100263083D01*
X118069287Y-100364099D01*
X118237646Y-100465114D01*
X118338661Y-100498786D01*
X118473348Y-100498786D01*
X118608035Y-100431442D01*
X118776394Y-100263083D01*
X117463195Y-100296755D02*
X117395852Y-100296755D01*
X117294837Y-100330427D01*
X117126478Y-100498786D01*
X117092806Y-100599801D01*
X117092806Y-100667144D01*
X117126478Y-100768160D01*
X117193821Y-100835503D01*
X117328508Y-100902847D01*
X118136631Y-100902847D01*
X117698898Y-101340580D01*
X116756089Y-100869175D02*
X116284684Y-101340580D01*
X117294837Y-101744641D01*
%TO.C,D28*%
X125776394Y-100263083D02*
X125069287Y-99555977D01*
X124900928Y-99724335D01*
X124833585Y-99859022D01*
X124833585Y-99993709D01*
X124867257Y-100094725D01*
X124968272Y-100263083D01*
X125069287Y-100364099D01*
X125237646Y-100465114D01*
X125338661Y-100498786D01*
X125473348Y-100498786D01*
X125608035Y-100431442D01*
X125776394Y-100263083D01*
X124463195Y-100296755D02*
X124395852Y-100296755D01*
X124294837Y-100330427D01*
X124126478Y-100498786D01*
X124092806Y-100599801D01*
X124092806Y-100667144D01*
X124126478Y-100768160D01*
X124193821Y-100835503D01*
X124328508Y-100902847D01*
X125136631Y-100902847D01*
X124698898Y-101340580D01*
X123890776Y-101340580D02*
X123924447Y-101239564D01*
X123924447Y-101172221D01*
X123890776Y-101071206D01*
X123857104Y-101037534D01*
X123756089Y-101003862D01*
X123688745Y-101003862D01*
X123587730Y-101037534D01*
X123453043Y-101172221D01*
X123419371Y-101273236D01*
X123419371Y-101340580D01*
X123453043Y-101441595D01*
X123486715Y-101475267D01*
X123587730Y-101508938D01*
X123655073Y-101508938D01*
X123756089Y-101475267D01*
X123890776Y-101340580D01*
X123991791Y-101306908D01*
X124059134Y-101306908D01*
X124160150Y-101340580D01*
X124294837Y-101475267D01*
X124328508Y-101576282D01*
X124328508Y-101643625D01*
X124294837Y-101744641D01*
X124160150Y-101879328D01*
X124059134Y-101912999D01*
X123991791Y-101912999D01*
X123890776Y-101879328D01*
X123756089Y-101744641D01*
X123722417Y-101643625D01*
X123722417Y-101576282D01*
X123756089Y-101475267D01*
%TO.C,D29*%
X132776394Y-100263083D02*
X132069287Y-99555977D01*
X131900928Y-99724335D01*
X131833585Y-99859022D01*
X131833585Y-99993709D01*
X131867257Y-100094725D01*
X131968272Y-100263083D01*
X132069287Y-100364099D01*
X132237646Y-100465114D01*
X132338661Y-100498786D01*
X132473348Y-100498786D01*
X132608035Y-100431442D01*
X132776394Y-100263083D01*
X131463195Y-100296755D02*
X131395852Y-100296755D01*
X131294837Y-100330427D01*
X131126478Y-100498786D01*
X131092806Y-100599801D01*
X131092806Y-100667144D01*
X131126478Y-100768160D01*
X131193821Y-100835503D01*
X131328508Y-100902847D01*
X132136631Y-100902847D01*
X131698898Y-101340580D01*
X131362180Y-101677297D02*
X131227493Y-101811984D01*
X131126478Y-101845656D01*
X131059134Y-101845656D01*
X130890776Y-101811984D01*
X130722417Y-101710969D01*
X130453043Y-101441595D01*
X130419371Y-101340580D01*
X130419371Y-101273236D01*
X130453043Y-101172221D01*
X130587730Y-101037534D01*
X130688745Y-101003862D01*
X130756089Y-101003862D01*
X130857104Y-101037534D01*
X131025463Y-101205893D01*
X131059134Y-101306908D01*
X131059134Y-101374251D01*
X131025463Y-101475267D01*
X130890776Y-101609954D01*
X130789760Y-101643625D01*
X130722417Y-101643625D01*
X130621402Y-101609954D01*
%TO.C,D30*%
X139776394Y-100263083D02*
X139069287Y-99555977D01*
X138900928Y-99724335D01*
X138833585Y-99859022D01*
X138833585Y-99993709D01*
X138867257Y-100094725D01*
X138968272Y-100263083D01*
X139069287Y-100364099D01*
X139237646Y-100465114D01*
X139338661Y-100498786D01*
X139473348Y-100498786D01*
X139608035Y-100431442D01*
X139776394Y-100263083D01*
X138429524Y-100195740D02*
X137991791Y-100633473D01*
X138496867Y-100667144D01*
X138395852Y-100768160D01*
X138362180Y-100869175D01*
X138362180Y-100936519D01*
X138395852Y-101037534D01*
X138564211Y-101205893D01*
X138665226Y-101239564D01*
X138732570Y-101239564D01*
X138833585Y-101205893D01*
X139035615Y-101003862D01*
X139069287Y-100902847D01*
X139069287Y-100835503D01*
X137554058Y-101071206D02*
X137486715Y-101138549D01*
X137453043Y-101239564D01*
X137453043Y-101306908D01*
X137486715Y-101407923D01*
X137587730Y-101576282D01*
X137756089Y-101744641D01*
X137924447Y-101845656D01*
X138025463Y-101879328D01*
X138092806Y-101879328D01*
X138193821Y-101845656D01*
X138261165Y-101778312D01*
X138294837Y-101677297D01*
X138294837Y-101609954D01*
X138261165Y-101508938D01*
X138160150Y-101340580D01*
X137991791Y-101172221D01*
X137823432Y-101071206D01*
X137722417Y-101037534D01*
X137655073Y-101037534D01*
X137554058Y-101071206D01*
%TO.C,D31*%
X146776394Y-100263083D02*
X146069287Y-99555977D01*
X145900928Y-99724335D01*
X145833585Y-99859022D01*
X145833585Y-99993709D01*
X145867257Y-100094725D01*
X145968272Y-100263083D01*
X146069287Y-100364099D01*
X146237646Y-100465114D01*
X146338661Y-100498786D01*
X146473348Y-100498786D01*
X146608035Y-100431442D01*
X146776394Y-100263083D01*
X145429524Y-100195740D02*
X144991791Y-100633473D01*
X145496867Y-100667144D01*
X145395852Y-100768160D01*
X145362180Y-100869175D01*
X145362180Y-100936519D01*
X145395852Y-101037534D01*
X145564211Y-101205893D01*
X145665226Y-101239564D01*
X145732570Y-101239564D01*
X145833585Y-101205893D01*
X146035615Y-101003862D01*
X146069287Y-100902847D01*
X146069287Y-100835503D01*
X145025463Y-102014015D02*
X145429524Y-101609954D01*
X145227493Y-101811984D02*
X144520386Y-101104877D01*
X144688745Y-101138549D01*
X144823432Y-101138549D01*
X144924447Y-101104877D01*
%TO.C,D32*%
X153776394Y-100263083D02*
X153069287Y-99555977D01*
X152900928Y-99724335D01*
X152833585Y-99859022D01*
X152833585Y-99993709D01*
X152867257Y-100094725D01*
X152968272Y-100263083D01*
X153069287Y-100364099D01*
X153237646Y-100465114D01*
X153338661Y-100498786D01*
X153473348Y-100498786D01*
X153608035Y-100431442D01*
X153776394Y-100263083D01*
X152429524Y-100195740D02*
X151991791Y-100633473D01*
X152496867Y-100667144D01*
X152395852Y-100768160D01*
X152362180Y-100869175D01*
X152362180Y-100936519D01*
X152395852Y-101037534D01*
X152564211Y-101205893D01*
X152665226Y-101239564D01*
X152732570Y-101239564D01*
X152833585Y-101205893D01*
X153035615Y-101003862D01*
X153069287Y-100902847D01*
X153069287Y-100835503D01*
X151789760Y-100970190D02*
X151722417Y-100970190D01*
X151621402Y-101003862D01*
X151453043Y-101172221D01*
X151419371Y-101273236D01*
X151419371Y-101340580D01*
X151453043Y-101441595D01*
X151520386Y-101508938D01*
X151655073Y-101576282D01*
X152463195Y-101576282D01*
X152025463Y-102014015D01*
%TO.C,D33*%
X104776394Y-107263083D02*
X104069287Y-106555977D01*
X103900928Y-106724335D01*
X103833585Y-106859022D01*
X103833585Y-106993709D01*
X103867257Y-107094725D01*
X103968272Y-107263083D01*
X104069287Y-107364099D01*
X104237646Y-107465114D01*
X104338661Y-107498786D01*
X104473348Y-107498786D01*
X104608035Y-107431442D01*
X104776394Y-107263083D01*
X103429524Y-107195740D02*
X102991791Y-107633473D01*
X103496867Y-107667144D01*
X103395852Y-107768160D01*
X103362180Y-107869175D01*
X103362180Y-107936519D01*
X103395852Y-108037534D01*
X103564211Y-108205893D01*
X103665226Y-108239564D01*
X103732570Y-108239564D01*
X103833585Y-108205893D01*
X104035615Y-108003862D01*
X104069287Y-107902847D01*
X104069287Y-107835503D01*
X102756089Y-107869175D02*
X102318356Y-108306908D01*
X102823432Y-108340580D01*
X102722417Y-108441595D01*
X102688745Y-108542610D01*
X102688745Y-108609954D01*
X102722417Y-108710969D01*
X102890776Y-108879328D01*
X102991791Y-108912999D01*
X103059134Y-108912999D01*
X103160150Y-108879328D01*
X103362180Y-108677297D01*
X103395852Y-108576282D01*
X103395852Y-108508938D01*
%TO.C,D34*%
X111776394Y-107263083D02*
X111069287Y-106555977D01*
X110900928Y-106724335D01*
X110833585Y-106859022D01*
X110833585Y-106993709D01*
X110867257Y-107094725D01*
X110968272Y-107263083D01*
X111069287Y-107364099D01*
X111237646Y-107465114D01*
X111338661Y-107498786D01*
X111473348Y-107498786D01*
X111608035Y-107431442D01*
X111776394Y-107263083D01*
X110429524Y-107195740D02*
X109991791Y-107633473D01*
X110496867Y-107667144D01*
X110395852Y-107768160D01*
X110362180Y-107869175D01*
X110362180Y-107936519D01*
X110395852Y-108037534D01*
X110564211Y-108205893D01*
X110665226Y-108239564D01*
X110732570Y-108239564D01*
X110833585Y-108205893D01*
X111035615Y-108003862D01*
X111069287Y-107902847D01*
X111069287Y-107835503D01*
X109621402Y-108475267D02*
X110092806Y-108946671D01*
X109520386Y-108037534D02*
X110193821Y-108374251D01*
X109756089Y-108811984D01*
%TO.C,D35*%
X118776394Y-107263083D02*
X118069287Y-106555977D01*
X117900928Y-106724335D01*
X117833585Y-106859022D01*
X117833585Y-106993709D01*
X117867257Y-107094725D01*
X117968272Y-107263083D01*
X118069287Y-107364099D01*
X118237646Y-107465114D01*
X118338661Y-107498786D01*
X118473348Y-107498786D01*
X118608035Y-107431442D01*
X118776394Y-107263083D01*
X117429524Y-107195740D02*
X116991791Y-107633473D01*
X117496867Y-107667144D01*
X117395852Y-107768160D01*
X117362180Y-107869175D01*
X117362180Y-107936519D01*
X117395852Y-108037534D01*
X117564211Y-108205893D01*
X117665226Y-108239564D01*
X117732570Y-108239564D01*
X117833585Y-108205893D01*
X118035615Y-108003862D01*
X118069287Y-107902847D01*
X118069287Y-107835503D01*
X116352028Y-108273236D02*
X116688745Y-107936519D01*
X117059134Y-108239564D01*
X116991791Y-108239564D01*
X116890776Y-108273236D01*
X116722417Y-108441595D01*
X116688745Y-108542610D01*
X116688745Y-108609954D01*
X116722417Y-108710969D01*
X116890776Y-108879328D01*
X116991791Y-108912999D01*
X117059134Y-108912999D01*
X117160150Y-108879328D01*
X117328508Y-108710969D01*
X117362180Y-108609954D01*
X117362180Y-108542610D01*
%TO.C,D36*%
X125776394Y-107263083D02*
X125069287Y-106555977D01*
X124900928Y-106724335D01*
X124833585Y-106859022D01*
X124833585Y-106993709D01*
X124867257Y-107094725D01*
X124968272Y-107263083D01*
X125069287Y-107364099D01*
X125237646Y-107465114D01*
X125338661Y-107498786D01*
X125473348Y-107498786D01*
X125608035Y-107431442D01*
X125776394Y-107263083D01*
X124429524Y-107195740D02*
X123991791Y-107633473D01*
X124496867Y-107667144D01*
X124395852Y-107768160D01*
X124362180Y-107869175D01*
X124362180Y-107936519D01*
X124395852Y-108037534D01*
X124564211Y-108205893D01*
X124665226Y-108239564D01*
X124732570Y-108239564D01*
X124833585Y-108205893D01*
X125035615Y-108003862D01*
X125069287Y-107902847D01*
X125069287Y-107835503D01*
X123385699Y-108239564D02*
X123520386Y-108104877D01*
X123621402Y-108071206D01*
X123688745Y-108071206D01*
X123857104Y-108104877D01*
X124025463Y-108205893D01*
X124294837Y-108475267D01*
X124328508Y-108576282D01*
X124328508Y-108643625D01*
X124294837Y-108744641D01*
X124160150Y-108879328D01*
X124059134Y-108912999D01*
X123991791Y-108912999D01*
X123890776Y-108879328D01*
X123722417Y-108710969D01*
X123688745Y-108609954D01*
X123688745Y-108542610D01*
X123722417Y-108441595D01*
X123857104Y-108306908D01*
X123958119Y-108273236D01*
X124025463Y-108273236D01*
X124126478Y-108306908D01*
%TO.C,D37*%
X132776394Y-107263083D02*
X132069287Y-106555977D01*
X131900928Y-106724335D01*
X131833585Y-106859022D01*
X131833585Y-106993709D01*
X131867257Y-107094725D01*
X131968272Y-107263083D01*
X132069287Y-107364099D01*
X132237646Y-107465114D01*
X132338661Y-107498786D01*
X132473348Y-107498786D01*
X132608035Y-107431442D01*
X132776394Y-107263083D01*
X131429524Y-107195740D02*
X130991791Y-107633473D01*
X131496867Y-107667144D01*
X131395852Y-107768160D01*
X131362180Y-107869175D01*
X131362180Y-107936519D01*
X131395852Y-108037534D01*
X131564211Y-108205893D01*
X131665226Y-108239564D01*
X131732570Y-108239564D01*
X131833585Y-108205893D01*
X132035615Y-108003862D01*
X132069287Y-107902847D01*
X132069287Y-107835503D01*
X130756089Y-107869175D02*
X130284684Y-108340580D01*
X131294837Y-108744641D01*
%TO.C,D38*%
X139776394Y-107263083D02*
X139069287Y-106555977D01*
X138900928Y-106724335D01*
X138833585Y-106859022D01*
X138833585Y-106993709D01*
X138867257Y-107094725D01*
X138968272Y-107263083D01*
X139069287Y-107364099D01*
X139237646Y-107465114D01*
X139338661Y-107498786D01*
X139473348Y-107498786D01*
X139608035Y-107431442D01*
X139776394Y-107263083D01*
X138429524Y-107195740D02*
X137991791Y-107633473D01*
X138496867Y-107667144D01*
X138395852Y-107768160D01*
X138362180Y-107869175D01*
X138362180Y-107936519D01*
X138395852Y-108037534D01*
X138564211Y-108205893D01*
X138665226Y-108239564D01*
X138732570Y-108239564D01*
X138833585Y-108205893D01*
X139035615Y-108003862D01*
X139069287Y-107902847D01*
X139069287Y-107835503D01*
X137890776Y-108340580D02*
X137924447Y-108239564D01*
X137924447Y-108172221D01*
X137890776Y-108071206D01*
X137857104Y-108037534D01*
X137756089Y-108003862D01*
X137688745Y-108003862D01*
X137587730Y-108037534D01*
X137453043Y-108172221D01*
X137419371Y-108273236D01*
X137419371Y-108340580D01*
X137453043Y-108441595D01*
X137486715Y-108475267D01*
X137587730Y-108508938D01*
X137655073Y-108508938D01*
X137756089Y-108475267D01*
X137890776Y-108340580D01*
X137991791Y-108306908D01*
X138059134Y-108306908D01*
X138160150Y-108340580D01*
X138294837Y-108475267D01*
X138328508Y-108576282D01*
X138328508Y-108643625D01*
X138294837Y-108744641D01*
X138160150Y-108879328D01*
X138059134Y-108912999D01*
X137991791Y-108912999D01*
X137890776Y-108879328D01*
X137756089Y-108744641D01*
X137722417Y-108643625D01*
X137722417Y-108576282D01*
X137756089Y-108475267D01*
%TO.C,D39*%
X146776394Y-107263083D02*
X146069287Y-106555977D01*
X145900928Y-106724335D01*
X145833585Y-106859022D01*
X145833585Y-106993709D01*
X145867257Y-107094725D01*
X145968272Y-107263083D01*
X146069287Y-107364099D01*
X146237646Y-107465114D01*
X146338661Y-107498786D01*
X146473348Y-107498786D01*
X146608035Y-107431442D01*
X146776394Y-107263083D01*
X145429524Y-107195740D02*
X144991791Y-107633473D01*
X145496867Y-107667144D01*
X145395852Y-107768160D01*
X145362180Y-107869175D01*
X145362180Y-107936519D01*
X145395852Y-108037534D01*
X145564211Y-108205893D01*
X145665226Y-108239564D01*
X145732570Y-108239564D01*
X145833585Y-108205893D01*
X146035615Y-108003862D01*
X146069287Y-107902847D01*
X146069287Y-107835503D01*
X145362180Y-108677297D02*
X145227493Y-108811984D01*
X145126478Y-108845656D01*
X145059134Y-108845656D01*
X144890776Y-108811984D01*
X144722417Y-108710969D01*
X144453043Y-108441595D01*
X144419371Y-108340580D01*
X144419371Y-108273236D01*
X144453043Y-108172221D01*
X144587730Y-108037534D01*
X144688745Y-108003862D01*
X144756089Y-108003862D01*
X144857104Y-108037534D01*
X145025463Y-108205893D01*
X145059134Y-108306908D01*
X145059134Y-108374251D01*
X145025463Y-108475267D01*
X144890776Y-108609954D01*
X144789760Y-108643625D01*
X144722417Y-108643625D01*
X144621402Y-108609954D01*
%TO.C,D40*%
X153776394Y-107263083D02*
X153069287Y-106555977D01*
X152900928Y-106724335D01*
X152833585Y-106859022D01*
X152833585Y-106993709D01*
X152867257Y-107094725D01*
X152968272Y-107263083D01*
X153069287Y-107364099D01*
X153237646Y-107465114D01*
X153338661Y-107498786D01*
X153473348Y-107498786D01*
X153608035Y-107431442D01*
X153776394Y-107263083D01*
X152294837Y-107801832D02*
X152766241Y-108273236D01*
X152193821Y-107364099D02*
X152867257Y-107700816D01*
X152429524Y-108138549D01*
X151554058Y-108071206D02*
X151486715Y-108138549D01*
X151453043Y-108239564D01*
X151453043Y-108306908D01*
X151486715Y-108407923D01*
X151587730Y-108576282D01*
X151756089Y-108744641D01*
X151924447Y-108845656D01*
X152025463Y-108879328D01*
X152092806Y-108879328D01*
X152193821Y-108845656D01*
X152261165Y-108778312D01*
X152294837Y-108677297D01*
X152294837Y-108609954D01*
X152261165Y-108508938D01*
X152160150Y-108340580D01*
X151991791Y-108172221D01*
X151823432Y-108071206D01*
X151722417Y-108037534D01*
X151655073Y-108037534D01*
X151554058Y-108071206D01*
%TO.C,D41*%
X104776394Y-114263083D02*
X104069287Y-113555977D01*
X103900928Y-113724335D01*
X103833585Y-113859022D01*
X103833585Y-113993709D01*
X103867257Y-114094725D01*
X103968272Y-114263083D01*
X104069287Y-114364099D01*
X104237646Y-114465114D01*
X104338661Y-114498786D01*
X104473348Y-114498786D01*
X104608035Y-114431442D01*
X104776394Y-114263083D01*
X103294837Y-114801832D02*
X103766241Y-115273236D01*
X103193821Y-114364099D02*
X103867257Y-114700816D01*
X103429524Y-115138549D01*
X103025463Y-116014015D02*
X103429524Y-115609954D01*
X103227493Y-115811984D02*
X102520386Y-115104877D01*
X102688745Y-115138549D01*
X102823432Y-115138549D01*
X102924447Y-115104877D01*
%TO.C,D42*%
X111776394Y-114263083D02*
X111069287Y-113555977D01*
X110900928Y-113724335D01*
X110833585Y-113859022D01*
X110833585Y-113993709D01*
X110867257Y-114094725D01*
X110968272Y-114263083D01*
X111069287Y-114364099D01*
X111237646Y-114465114D01*
X111338661Y-114498786D01*
X111473348Y-114498786D01*
X111608035Y-114431442D01*
X111776394Y-114263083D01*
X110294837Y-114801832D02*
X110766241Y-115273236D01*
X110193821Y-114364099D02*
X110867257Y-114700816D01*
X110429524Y-115138549D01*
X109789760Y-114970190D02*
X109722417Y-114970190D01*
X109621402Y-115003862D01*
X109453043Y-115172221D01*
X109419371Y-115273236D01*
X109419371Y-115340580D01*
X109453043Y-115441595D01*
X109520386Y-115508938D01*
X109655073Y-115576282D01*
X110463195Y-115576282D01*
X110025463Y-116014015D01*
%TO.C,D43*%
X118776394Y-114263083D02*
X118069287Y-113555977D01*
X117900928Y-113724335D01*
X117833585Y-113859022D01*
X117833585Y-113993709D01*
X117867257Y-114094725D01*
X117968272Y-114263083D01*
X118069287Y-114364099D01*
X118237646Y-114465114D01*
X118338661Y-114498786D01*
X118473348Y-114498786D01*
X118608035Y-114431442D01*
X118776394Y-114263083D01*
X117294837Y-114801832D02*
X117766241Y-115273236D01*
X117193821Y-114364099D02*
X117867257Y-114700816D01*
X117429524Y-115138549D01*
X116756089Y-114869175D02*
X116318356Y-115306908D01*
X116823432Y-115340580D01*
X116722417Y-115441595D01*
X116688745Y-115542610D01*
X116688745Y-115609954D01*
X116722417Y-115710969D01*
X116890776Y-115879328D01*
X116991791Y-115912999D01*
X117059134Y-115912999D01*
X117160150Y-115879328D01*
X117362180Y-115677297D01*
X117395852Y-115576282D01*
X117395852Y-115508938D01*
%TO.C,D44*%
X125776394Y-114263083D02*
X125069287Y-113555977D01*
X124900928Y-113724335D01*
X124833585Y-113859022D01*
X124833585Y-113993709D01*
X124867257Y-114094725D01*
X124968272Y-114263083D01*
X125069287Y-114364099D01*
X125237646Y-114465114D01*
X125338661Y-114498786D01*
X125473348Y-114498786D01*
X125608035Y-114431442D01*
X125776394Y-114263083D01*
X124294837Y-114801832D02*
X124766241Y-115273236D01*
X124193821Y-114364099D02*
X124867257Y-114700816D01*
X124429524Y-115138549D01*
X123621402Y-115475267D02*
X124092806Y-115946671D01*
X123520386Y-115037534D02*
X124193821Y-115374251D01*
X123756089Y-115811984D01*
%TO.C,D45*%
X132776394Y-114263083D02*
X132069287Y-113555977D01*
X131900928Y-113724335D01*
X131833585Y-113859022D01*
X131833585Y-113993709D01*
X131867257Y-114094725D01*
X131968272Y-114263083D01*
X132069287Y-114364099D01*
X132237646Y-114465114D01*
X132338661Y-114498786D01*
X132473348Y-114498786D01*
X132608035Y-114431442D01*
X132776394Y-114263083D01*
X131294837Y-114801832D02*
X131766241Y-115273236D01*
X131193821Y-114364099D02*
X131867257Y-114700816D01*
X131429524Y-115138549D01*
X130352028Y-115273236D02*
X130688745Y-114936519D01*
X131059134Y-115239564D01*
X130991791Y-115239564D01*
X130890776Y-115273236D01*
X130722417Y-115441595D01*
X130688745Y-115542610D01*
X130688745Y-115609954D01*
X130722417Y-115710969D01*
X130890776Y-115879328D01*
X130991791Y-115912999D01*
X131059134Y-115912999D01*
X131160150Y-115879328D01*
X131328508Y-115710969D01*
X131362180Y-115609954D01*
X131362180Y-115542610D01*
%TO.C,D46*%
X139776394Y-114263083D02*
X139069287Y-113555977D01*
X138900928Y-113724335D01*
X138833585Y-113859022D01*
X138833585Y-113993709D01*
X138867257Y-114094725D01*
X138968272Y-114263083D01*
X139069287Y-114364099D01*
X139237646Y-114465114D01*
X139338661Y-114498786D01*
X139473348Y-114498786D01*
X139608035Y-114431442D01*
X139776394Y-114263083D01*
X138294837Y-114801832D02*
X138766241Y-115273236D01*
X138193821Y-114364099D02*
X138867257Y-114700816D01*
X138429524Y-115138549D01*
X137385699Y-115239564D02*
X137520386Y-115104877D01*
X137621402Y-115071206D01*
X137688745Y-115071206D01*
X137857104Y-115104877D01*
X138025463Y-115205893D01*
X138294837Y-115475267D01*
X138328508Y-115576282D01*
X138328508Y-115643625D01*
X138294837Y-115744641D01*
X138160150Y-115879328D01*
X138059134Y-115912999D01*
X137991791Y-115912999D01*
X137890776Y-115879328D01*
X137722417Y-115710969D01*
X137688745Y-115609954D01*
X137688745Y-115542610D01*
X137722417Y-115441595D01*
X137857104Y-115306908D01*
X137958119Y-115273236D01*
X138025463Y-115273236D01*
X138126478Y-115306908D01*
%TO.C,D47*%
X146776394Y-114263083D02*
X146069287Y-113555977D01*
X145900928Y-113724335D01*
X145833585Y-113859022D01*
X145833585Y-113993709D01*
X145867257Y-114094725D01*
X145968272Y-114263083D01*
X146069287Y-114364099D01*
X146237646Y-114465114D01*
X146338661Y-114498786D01*
X146473348Y-114498786D01*
X146608035Y-114431442D01*
X146776394Y-114263083D01*
X145294837Y-114801832D02*
X145766241Y-115273236D01*
X145193821Y-114364099D02*
X145867257Y-114700816D01*
X145429524Y-115138549D01*
X144756089Y-114869175D02*
X144284684Y-115340580D01*
X145294837Y-115744641D01*
%TO.C,D48*%
X153776394Y-114263083D02*
X153069287Y-113555977D01*
X152900928Y-113724335D01*
X152833585Y-113859022D01*
X152833585Y-113993709D01*
X152867257Y-114094725D01*
X152968272Y-114263083D01*
X153069287Y-114364099D01*
X153237646Y-114465114D01*
X153338661Y-114498786D01*
X153473348Y-114498786D01*
X153608035Y-114431442D01*
X153776394Y-114263083D01*
X152294837Y-114801832D02*
X152766241Y-115273236D01*
X152193821Y-114364099D02*
X152867257Y-114700816D01*
X152429524Y-115138549D01*
X151890776Y-115340580D02*
X151924447Y-115239564D01*
X151924447Y-115172221D01*
X151890776Y-115071206D01*
X151857104Y-115037534D01*
X151756089Y-115003862D01*
X151688745Y-115003862D01*
X151587730Y-115037534D01*
X151453043Y-115172221D01*
X151419371Y-115273236D01*
X151419371Y-115340580D01*
X151453043Y-115441595D01*
X151486715Y-115475267D01*
X151587730Y-115508938D01*
X151655073Y-115508938D01*
X151756089Y-115475267D01*
X151890776Y-115340580D01*
X151991791Y-115306908D01*
X152059134Y-115306908D01*
X152160150Y-115340580D01*
X152294837Y-115475267D01*
X152328508Y-115576282D01*
X152328508Y-115643625D01*
X152294837Y-115744641D01*
X152160150Y-115879328D01*
X152059134Y-115912999D01*
X151991791Y-115912999D01*
X151890776Y-115879328D01*
X151756089Y-115744641D01*
X151722417Y-115643625D01*
X151722417Y-115576282D01*
X151756089Y-115475267D01*
%TO.C,D49*%
X104776394Y-121263083D02*
X104069287Y-120555977D01*
X103900928Y-120724335D01*
X103833585Y-120859022D01*
X103833585Y-120993709D01*
X103867257Y-121094725D01*
X103968272Y-121263083D01*
X104069287Y-121364099D01*
X104237646Y-121465114D01*
X104338661Y-121498786D01*
X104473348Y-121498786D01*
X104608035Y-121431442D01*
X104776394Y-121263083D01*
X103294837Y-121801832D02*
X103766241Y-122273236D01*
X103193821Y-121364099D02*
X103867257Y-121700816D01*
X103429524Y-122138549D01*
X103362180Y-122677297D02*
X103227493Y-122811984D01*
X103126478Y-122845656D01*
X103059134Y-122845656D01*
X102890776Y-122811984D01*
X102722417Y-122710969D01*
X102453043Y-122441595D01*
X102419371Y-122340580D01*
X102419371Y-122273236D01*
X102453043Y-122172221D01*
X102587730Y-122037534D01*
X102688745Y-122003862D01*
X102756089Y-122003862D01*
X102857104Y-122037534D01*
X103025463Y-122205893D01*
X103059134Y-122306908D01*
X103059134Y-122374251D01*
X103025463Y-122475267D01*
X102890776Y-122609954D01*
X102789760Y-122643625D01*
X102722417Y-122643625D01*
X102621402Y-122609954D01*
%TO.C,D50*%
X111776394Y-121263083D02*
X111069287Y-120555977D01*
X110900928Y-120724335D01*
X110833585Y-120859022D01*
X110833585Y-120993709D01*
X110867257Y-121094725D01*
X110968272Y-121263083D01*
X111069287Y-121364099D01*
X111237646Y-121465114D01*
X111338661Y-121498786D01*
X111473348Y-121498786D01*
X111608035Y-121431442D01*
X111776394Y-121263083D01*
X110025463Y-121599801D02*
X110362180Y-121263083D01*
X110732570Y-121566129D01*
X110665226Y-121566129D01*
X110564211Y-121599801D01*
X110395852Y-121768160D01*
X110362180Y-121869175D01*
X110362180Y-121936519D01*
X110395852Y-122037534D01*
X110564211Y-122205893D01*
X110665226Y-122239564D01*
X110732570Y-122239564D01*
X110833585Y-122205893D01*
X111001944Y-122037534D01*
X111035615Y-121936519D01*
X111035615Y-121869175D01*
X109554058Y-122071206D02*
X109486715Y-122138549D01*
X109453043Y-122239564D01*
X109453043Y-122306908D01*
X109486715Y-122407923D01*
X109587730Y-122576282D01*
X109756089Y-122744641D01*
X109924447Y-122845656D01*
X110025463Y-122879328D01*
X110092806Y-122879328D01*
X110193821Y-122845656D01*
X110261165Y-122778312D01*
X110294837Y-122677297D01*
X110294837Y-122609954D01*
X110261165Y-122508938D01*
X110160150Y-122340580D01*
X109991791Y-122172221D01*
X109823432Y-122071206D01*
X109722417Y-122037534D01*
X109655073Y-122037534D01*
X109554058Y-122071206D01*
%TO.C,D51*%
X118776394Y-121263083D02*
X118069287Y-120555977D01*
X117900928Y-120724335D01*
X117833585Y-120859022D01*
X117833585Y-120993709D01*
X117867257Y-121094725D01*
X117968272Y-121263083D01*
X118069287Y-121364099D01*
X118237646Y-121465114D01*
X118338661Y-121498786D01*
X118473348Y-121498786D01*
X118608035Y-121431442D01*
X118776394Y-121263083D01*
X117025463Y-121599801D02*
X117362180Y-121263083D01*
X117732570Y-121566129D01*
X117665226Y-121566129D01*
X117564211Y-121599801D01*
X117395852Y-121768160D01*
X117362180Y-121869175D01*
X117362180Y-121936519D01*
X117395852Y-122037534D01*
X117564211Y-122205893D01*
X117665226Y-122239564D01*
X117732570Y-122239564D01*
X117833585Y-122205893D01*
X118001944Y-122037534D01*
X118035615Y-121936519D01*
X118035615Y-121869175D01*
X117025463Y-123014015D02*
X117429524Y-122609954D01*
X117227493Y-122811984D02*
X116520386Y-122104877D01*
X116688745Y-122138549D01*
X116823432Y-122138549D01*
X116924447Y-122104877D01*
%TO.C,D52*%
X125776394Y-121263083D02*
X125069287Y-120555977D01*
X124900928Y-120724335D01*
X124833585Y-120859022D01*
X124833585Y-120993709D01*
X124867257Y-121094725D01*
X124968272Y-121263083D01*
X125069287Y-121364099D01*
X125237646Y-121465114D01*
X125338661Y-121498786D01*
X125473348Y-121498786D01*
X125608035Y-121431442D01*
X125776394Y-121263083D01*
X124025463Y-121599801D02*
X124362180Y-121263083D01*
X124732570Y-121566129D01*
X124665226Y-121566129D01*
X124564211Y-121599801D01*
X124395852Y-121768160D01*
X124362180Y-121869175D01*
X124362180Y-121936519D01*
X124395852Y-122037534D01*
X124564211Y-122205893D01*
X124665226Y-122239564D01*
X124732570Y-122239564D01*
X124833585Y-122205893D01*
X125001944Y-122037534D01*
X125035615Y-121936519D01*
X125035615Y-121869175D01*
X123789760Y-121970190D02*
X123722417Y-121970190D01*
X123621402Y-122003862D01*
X123453043Y-122172221D01*
X123419371Y-122273236D01*
X123419371Y-122340580D01*
X123453043Y-122441595D01*
X123520386Y-122508938D01*
X123655073Y-122576282D01*
X124463195Y-122576282D01*
X124025463Y-123014015D01*
%TO.C,D53*%
X132776394Y-121263083D02*
X132069287Y-120555977D01*
X131900928Y-120724335D01*
X131833585Y-120859022D01*
X131833585Y-120993709D01*
X131867257Y-121094725D01*
X131968272Y-121263083D01*
X132069287Y-121364099D01*
X132237646Y-121465114D01*
X132338661Y-121498786D01*
X132473348Y-121498786D01*
X132608035Y-121431442D01*
X132776394Y-121263083D01*
X131025463Y-121599801D02*
X131362180Y-121263083D01*
X131732570Y-121566129D01*
X131665226Y-121566129D01*
X131564211Y-121599801D01*
X131395852Y-121768160D01*
X131362180Y-121869175D01*
X131362180Y-121936519D01*
X131395852Y-122037534D01*
X131564211Y-122205893D01*
X131665226Y-122239564D01*
X131732570Y-122239564D01*
X131833585Y-122205893D01*
X132001944Y-122037534D01*
X132035615Y-121936519D01*
X132035615Y-121869175D01*
X130756089Y-121869175D02*
X130318356Y-122306908D01*
X130823432Y-122340580D01*
X130722417Y-122441595D01*
X130688745Y-122542610D01*
X130688745Y-122609954D01*
X130722417Y-122710969D01*
X130890776Y-122879328D01*
X130991791Y-122912999D01*
X131059134Y-122912999D01*
X131160150Y-122879328D01*
X131362180Y-122677297D01*
X131395852Y-122576282D01*
X131395852Y-122508938D01*
%TO.C,D54*%
X139776394Y-121263083D02*
X139069287Y-120555977D01*
X138900928Y-120724335D01*
X138833585Y-120859022D01*
X138833585Y-120993709D01*
X138867257Y-121094725D01*
X138968272Y-121263083D01*
X139069287Y-121364099D01*
X139237646Y-121465114D01*
X139338661Y-121498786D01*
X139473348Y-121498786D01*
X139608035Y-121431442D01*
X139776394Y-121263083D01*
X138025463Y-121599801D02*
X138362180Y-121263083D01*
X138732570Y-121566129D01*
X138665226Y-121566129D01*
X138564211Y-121599801D01*
X138395852Y-121768160D01*
X138362180Y-121869175D01*
X138362180Y-121936519D01*
X138395852Y-122037534D01*
X138564211Y-122205893D01*
X138665226Y-122239564D01*
X138732570Y-122239564D01*
X138833585Y-122205893D01*
X139001944Y-122037534D01*
X139035615Y-121936519D01*
X139035615Y-121869175D01*
X137621402Y-122475267D02*
X138092806Y-122946671D01*
X137520386Y-122037534D02*
X138193821Y-122374251D01*
X137756089Y-122811984D01*
%TO.C,D55*%
X146776394Y-121263083D02*
X146069287Y-120555977D01*
X145900928Y-120724335D01*
X145833585Y-120859022D01*
X145833585Y-120993709D01*
X145867257Y-121094725D01*
X145968272Y-121263083D01*
X146069287Y-121364099D01*
X146237646Y-121465114D01*
X146338661Y-121498786D01*
X146473348Y-121498786D01*
X146608035Y-121431442D01*
X146776394Y-121263083D01*
X145025463Y-121599801D02*
X145362180Y-121263083D01*
X145732570Y-121566129D01*
X145665226Y-121566129D01*
X145564211Y-121599801D01*
X145395852Y-121768160D01*
X145362180Y-121869175D01*
X145362180Y-121936519D01*
X145395852Y-122037534D01*
X145564211Y-122205893D01*
X145665226Y-122239564D01*
X145732570Y-122239564D01*
X145833585Y-122205893D01*
X146001944Y-122037534D01*
X146035615Y-121936519D01*
X146035615Y-121869175D01*
X144352028Y-122273236D02*
X144688745Y-121936519D01*
X145059134Y-122239564D01*
X144991791Y-122239564D01*
X144890776Y-122273236D01*
X144722417Y-122441595D01*
X144688745Y-122542610D01*
X144688745Y-122609954D01*
X144722417Y-122710969D01*
X144890776Y-122879328D01*
X144991791Y-122912999D01*
X145059134Y-122912999D01*
X145160150Y-122879328D01*
X145328508Y-122710969D01*
X145362180Y-122609954D01*
X145362180Y-122542610D01*
%TO.C,D56*%
X153776394Y-121263083D02*
X153069287Y-120555977D01*
X152900928Y-120724335D01*
X152833585Y-120859022D01*
X152833585Y-120993709D01*
X152867257Y-121094725D01*
X152968272Y-121263083D01*
X153069287Y-121364099D01*
X153237646Y-121465114D01*
X153338661Y-121498786D01*
X153473348Y-121498786D01*
X153608035Y-121431442D01*
X153776394Y-121263083D01*
X152025463Y-121599801D02*
X152362180Y-121263083D01*
X152732570Y-121566129D01*
X152665226Y-121566129D01*
X152564211Y-121599801D01*
X152395852Y-121768160D01*
X152362180Y-121869175D01*
X152362180Y-121936519D01*
X152395852Y-122037534D01*
X152564211Y-122205893D01*
X152665226Y-122239564D01*
X152732570Y-122239564D01*
X152833585Y-122205893D01*
X153001944Y-122037534D01*
X153035615Y-121936519D01*
X153035615Y-121869175D01*
X151385699Y-122239564D02*
X151520386Y-122104877D01*
X151621402Y-122071206D01*
X151688745Y-122071206D01*
X151857104Y-122104877D01*
X152025463Y-122205893D01*
X152294837Y-122475267D01*
X152328508Y-122576282D01*
X152328508Y-122643625D01*
X152294837Y-122744641D01*
X152160150Y-122879328D01*
X152059134Y-122912999D01*
X151991791Y-122912999D01*
X151890776Y-122879328D01*
X151722417Y-122710969D01*
X151688745Y-122609954D01*
X151688745Y-122542610D01*
X151722417Y-122441595D01*
X151857104Y-122306908D01*
X151958119Y-122273236D01*
X152025463Y-122273236D01*
X152126478Y-122306908D01*
%TO.C,D57*%
X104776394Y-128263083D02*
X104069287Y-127555977D01*
X103900928Y-127724335D01*
X103833585Y-127859022D01*
X103833585Y-127993709D01*
X103867257Y-128094725D01*
X103968272Y-128263083D01*
X104069287Y-128364099D01*
X104237646Y-128465114D01*
X104338661Y-128498786D01*
X104473348Y-128498786D01*
X104608035Y-128431442D01*
X104776394Y-128263083D01*
X103025463Y-128599801D02*
X103362180Y-128263083D01*
X103732570Y-128566129D01*
X103665226Y-128566129D01*
X103564211Y-128599801D01*
X103395852Y-128768160D01*
X103362180Y-128869175D01*
X103362180Y-128936519D01*
X103395852Y-129037534D01*
X103564211Y-129205893D01*
X103665226Y-129239564D01*
X103732570Y-129239564D01*
X103833585Y-129205893D01*
X104001944Y-129037534D01*
X104035615Y-128936519D01*
X104035615Y-128869175D01*
X102756089Y-128869175D02*
X102284684Y-129340580D01*
X103294837Y-129744641D01*
%TO.C,D58*%
X111776394Y-128263083D02*
X111069287Y-127555977D01*
X110900928Y-127724335D01*
X110833585Y-127859022D01*
X110833585Y-127993709D01*
X110867257Y-128094725D01*
X110968272Y-128263083D01*
X111069287Y-128364099D01*
X111237646Y-128465114D01*
X111338661Y-128498786D01*
X111473348Y-128498786D01*
X111608035Y-128431442D01*
X111776394Y-128263083D01*
X110025463Y-128599801D02*
X110362180Y-128263083D01*
X110732570Y-128566129D01*
X110665226Y-128566129D01*
X110564211Y-128599801D01*
X110395852Y-128768160D01*
X110362180Y-128869175D01*
X110362180Y-128936519D01*
X110395852Y-129037534D01*
X110564211Y-129205893D01*
X110665226Y-129239564D01*
X110732570Y-129239564D01*
X110833585Y-129205893D01*
X111001944Y-129037534D01*
X111035615Y-128936519D01*
X111035615Y-128869175D01*
X109890776Y-129340580D02*
X109924447Y-129239564D01*
X109924447Y-129172221D01*
X109890776Y-129071206D01*
X109857104Y-129037534D01*
X109756089Y-129003862D01*
X109688745Y-129003862D01*
X109587730Y-129037534D01*
X109453043Y-129172221D01*
X109419371Y-129273236D01*
X109419371Y-129340580D01*
X109453043Y-129441595D01*
X109486715Y-129475267D01*
X109587730Y-129508938D01*
X109655073Y-129508938D01*
X109756089Y-129475267D01*
X109890776Y-129340580D01*
X109991791Y-129306908D01*
X110059134Y-129306908D01*
X110160150Y-129340580D01*
X110294837Y-129475267D01*
X110328508Y-129576282D01*
X110328508Y-129643625D01*
X110294837Y-129744641D01*
X110160150Y-129879328D01*
X110059134Y-129912999D01*
X109991791Y-129912999D01*
X109890776Y-129879328D01*
X109756089Y-129744641D01*
X109722417Y-129643625D01*
X109722417Y-129576282D01*
X109756089Y-129475267D01*
%TO.C,D59*%
X118776394Y-128263083D02*
X118069287Y-127555977D01*
X117900928Y-127724335D01*
X117833585Y-127859022D01*
X117833585Y-127993709D01*
X117867257Y-128094725D01*
X117968272Y-128263083D01*
X118069287Y-128364099D01*
X118237646Y-128465114D01*
X118338661Y-128498786D01*
X118473348Y-128498786D01*
X118608035Y-128431442D01*
X118776394Y-128263083D01*
X117025463Y-128599801D02*
X117362180Y-128263083D01*
X117732570Y-128566129D01*
X117665226Y-128566129D01*
X117564211Y-128599801D01*
X117395852Y-128768160D01*
X117362180Y-128869175D01*
X117362180Y-128936519D01*
X117395852Y-129037534D01*
X117564211Y-129205893D01*
X117665226Y-129239564D01*
X117732570Y-129239564D01*
X117833585Y-129205893D01*
X118001944Y-129037534D01*
X118035615Y-128936519D01*
X118035615Y-128869175D01*
X117362180Y-129677297D02*
X117227493Y-129811984D01*
X117126478Y-129845656D01*
X117059134Y-129845656D01*
X116890776Y-129811984D01*
X116722417Y-129710969D01*
X116453043Y-129441595D01*
X116419371Y-129340580D01*
X116419371Y-129273236D01*
X116453043Y-129172221D01*
X116587730Y-129037534D01*
X116688745Y-129003862D01*
X116756089Y-129003862D01*
X116857104Y-129037534D01*
X117025463Y-129205893D01*
X117059134Y-129306908D01*
X117059134Y-129374251D01*
X117025463Y-129475267D01*
X116890776Y-129609954D01*
X116789760Y-129643625D01*
X116722417Y-129643625D01*
X116621402Y-129609954D01*
%TO.C,D60*%
X125776394Y-128263083D02*
X125069287Y-127555977D01*
X124900928Y-127724335D01*
X124833585Y-127859022D01*
X124833585Y-127993709D01*
X124867257Y-128094725D01*
X124968272Y-128263083D01*
X125069287Y-128364099D01*
X125237646Y-128465114D01*
X125338661Y-128498786D01*
X125473348Y-128498786D01*
X125608035Y-128431442D01*
X125776394Y-128263083D01*
X124059134Y-128566129D02*
X124193821Y-128431442D01*
X124294837Y-128397770D01*
X124362180Y-128397770D01*
X124530539Y-128431442D01*
X124698898Y-128532457D01*
X124968272Y-128801832D01*
X125001944Y-128902847D01*
X125001944Y-128970190D01*
X124968272Y-129071206D01*
X124833585Y-129205893D01*
X124732570Y-129239564D01*
X124665226Y-129239564D01*
X124564211Y-129205893D01*
X124395852Y-129037534D01*
X124362180Y-128936519D01*
X124362180Y-128869175D01*
X124395852Y-128768160D01*
X124530539Y-128633473D01*
X124631554Y-128599801D01*
X124698898Y-128599801D01*
X124799913Y-128633473D01*
X123554058Y-129071206D02*
X123486715Y-129138549D01*
X123453043Y-129239564D01*
X123453043Y-129306908D01*
X123486715Y-129407923D01*
X123587730Y-129576282D01*
X123756089Y-129744641D01*
X123924447Y-129845656D01*
X124025463Y-129879328D01*
X124092806Y-129879328D01*
X124193821Y-129845656D01*
X124261165Y-129778312D01*
X124294837Y-129677297D01*
X124294837Y-129609954D01*
X124261165Y-129508938D01*
X124160150Y-129340580D01*
X123991791Y-129172221D01*
X123823432Y-129071206D01*
X123722417Y-129037534D01*
X123655073Y-129037534D01*
X123554058Y-129071206D01*
%TO.C,D61*%
X132776394Y-128263083D02*
X132069287Y-127555977D01*
X131900928Y-127724335D01*
X131833585Y-127859022D01*
X131833585Y-127993709D01*
X131867257Y-128094725D01*
X131968272Y-128263083D01*
X132069287Y-128364099D01*
X132237646Y-128465114D01*
X132338661Y-128498786D01*
X132473348Y-128498786D01*
X132608035Y-128431442D01*
X132776394Y-128263083D01*
X131059134Y-128566129D02*
X131193821Y-128431442D01*
X131294837Y-128397770D01*
X131362180Y-128397770D01*
X131530539Y-128431442D01*
X131698898Y-128532457D01*
X131968272Y-128801832D01*
X132001944Y-128902847D01*
X132001944Y-128970190D01*
X131968272Y-129071206D01*
X131833585Y-129205893D01*
X131732570Y-129239564D01*
X131665226Y-129239564D01*
X131564211Y-129205893D01*
X131395852Y-129037534D01*
X131362180Y-128936519D01*
X131362180Y-128869175D01*
X131395852Y-128768160D01*
X131530539Y-128633473D01*
X131631554Y-128599801D01*
X131698898Y-128599801D01*
X131799913Y-128633473D01*
X131025463Y-130014015D02*
X131429524Y-129609954D01*
X131227493Y-129811984D02*
X130520386Y-129104877D01*
X130688745Y-129138549D01*
X130823432Y-129138549D01*
X130924447Y-129104877D01*
%TO.C,D62*%
X139776394Y-128263083D02*
X139069287Y-127555977D01*
X138900928Y-127724335D01*
X138833585Y-127859022D01*
X138833585Y-127993709D01*
X138867257Y-128094725D01*
X138968272Y-128263083D01*
X139069287Y-128364099D01*
X139237646Y-128465114D01*
X139338661Y-128498786D01*
X139473348Y-128498786D01*
X139608035Y-128431442D01*
X139776394Y-128263083D01*
X138059134Y-128566129D02*
X138193821Y-128431442D01*
X138294837Y-128397770D01*
X138362180Y-128397770D01*
X138530539Y-128431442D01*
X138698898Y-128532457D01*
X138968272Y-128801832D01*
X139001944Y-128902847D01*
X139001944Y-128970190D01*
X138968272Y-129071206D01*
X138833585Y-129205893D01*
X138732570Y-129239564D01*
X138665226Y-129239564D01*
X138564211Y-129205893D01*
X138395852Y-129037534D01*
X138362180Y-128936519D01*
X138362180Y-128869175D01*
X138395852Y-128768160D01*
X138530539Y-128633473D01*
X138631554Y-128599801D01*
X138698898Y-128599801D01*
X138799913Y-128633473D01*
X137789760Y-128970190D02*
X137722417Y-128970190D01*
X137621402Y-129003862D01*
X137453043Y-129172221D01*
X137419371Y-129273236D01*
X137419371Y-129340580D01*
X137453043Y-129441595D01*
X137520386Y-129508938D01*
X137655073Y-129576282D01*
X138463195Y-129576282D01*
X138025463Y-130014015D01*
%TO.C,D63*%
X146776394Y-128263083D02*
X146069287Y-127555977D01*
X145900928Y-127724335D01*
X145833585Y-127859022D01*
X145833585Y-127993709D01*
X145867257Y-128094725D01*
X145968272Y-128263083D01*
X146069287Y-128364099D01*
X146237646Y-128465114D01*
X146338661Y-128498786D01*
X146473348Y-128498786D01*
X146608035Y-128431442D01*
X146776394Y-128263083D01*
X145059134Y-128566129D02*
X145193821Y-128431442D01*
X145294837Y-128397770D01*
X145362180Y-128397770D01*
X145530539Y-128431442D01*
X145698898Y-128532457D01*
X145968272Y-128801832D01*
X146001944Y-128902847D01*
X146001944Y-128970190D01*
X145968272Y-129071206D01*
X145833585Y-129205893D01*
X145732570Y-129239564D01*
X145665226Y-129239564D01*
X145564211Y-129205893D01*
X145395852Y-129037534D01*
X145362180Y-128936519D01*
X145362180Y-128869175D01*
X145395852Y-128768160D01*
X145530539Y-128633473D01*
X145631554Y-128599801D01*
X145698898Y-128599801D01*
X145799913Y-128633473D01*
X144756089Y-128869175D02*
X144318356Y-129306908D01*
X144823432Y-129340580D01*
X144722417Y-129441595D01*
X144688745Y-129542610D01*
X144688745Y-129609954D01*
X144722417Y-129710969D01*
X144890776Y-129879328D01*
X144991791Y-129912999D01*
X145059134Y-129912999D01*
X145160150Y-129879328D01*
X145362180Y-129677297D01*
X145395852Y-129576282D01*
X145395852Y-129508938D01*
%TO.C,D64*%
X153776394Y-128263083D02*
X153069287Y-127555977D01*
X152900928Y-127724335D01*
X152833585Y-127859022D01*
X152833585Y-127993709D01*
X152867257Y-128094725D01*
X152968272Y-128263083D01*
X153069287Y-128364099D01*
X153237646Y-128465114D01*
X153338661Y-128498786D01*
X153473348Y-128498786D01*
X153608035Y-128431442D01*
X153776394Y-128263083D01*
X152059134Y-128566129D02*
X152193821Y-128431442D01*
X152294837Y-128397770D01*
X152362180Y-128397770D01*
X152530539Y-128431442D01*
X152698898Y-128532457D01*
X152968272Y-128801832D01*
X153001944Y-128902847D01*
X153001944Y-128970190D01*
X152968272Y-129071206D01*
X152833585Y-129205893D01*
X152732570Y-129239564D01*
X152665226Y-129239564D01*
X152564211Y-129205893D01*
X152395852Y-129037534D01*
X152362180Y-128936519D01*
X152362180Y-128869175D01*
X152395852Y-128768160D01*
X152530539Y-128633473D01*
X152631554Y-128599801D01*
X152698898Y-128599801D01*
X152799913Y-128633473D01*
X151621402Y-129475267D02*
X152092806Y-129946671D01*
X151520386Y-129037534D02*
X152193821Y-129374251D01*
X151756089Y-129811984D01*
%TO.C,J2*%
X158833333Y-92622380D02*
X158833333Y-93336666D01*
X158880952Y-93479523D01*
X158976190Y-93574761D01*
X159119047Y-93622380D01*
X159214285Y-93622380D01*
X158404761Y-92717619D02*
X158357142Y-92670000D01*
X158261904Y-92622380D01*
X158023809Y-92622380D01*
X157928571Y-92670000D01*
X157880952Y-92717619D01*
X157833333Y-92812857D01*
X157833333Y-92908095D01*
X157880952Y-93050952D01*
X158452380Y-93622380D01*
X157833333Y-93622380D01*
%TO.C,J3*%
X100833333Y-116782380D02*
X100833333Y-117496666D01*
X100880952Y-117639523D01*
X100976190Y-117734761D01*
X101119047Y-117782380D01*
X101214285Y-117782380D01*
X100452380Y-116782380D02*
X99833333Y-116782380D01*
X100166666Y-117163333D01*
X100023809Y-117163333D01*
X99928571Y-117210952D01*
X99880952Y-117258571D01*
X99833333Y-117353809D01*
X99833333Y-117591904D01*
X99880952Y-117687142D01*
X99928571Y-117734761D01*
X100023809Y-117782380D01*
X100309523Y-117782380D01*
X100404761Y-117734761D01*
X100452380Y-117687142D01*
%TO.C,J4*%
X141377619Y-134833333D02*
X140663333Y-134833333D01*
X140520476Y-134880952D01*
X140425238Y-134976190D01*
X140377619Y-135119047D01*
X140377619Y-135214285D01*
X141044285Y-133928571D02*
X140377619Y-133928571D01*
X141425238Y-134166666D02*
X140710952Y-134404761D01*
X140710952Y-133785714D01*
%TD*%
M02*
