%TF.GenerationSoftware,KiCad,Pcbnew,(5.1.6)-1*%
%TF.CreationDate,2020-05-26T21:01:59-04:00*%
%TF.ProjectId,ArduinoLife2_Display,41726475-696e-46f4-9c69-6665325f4469,rev?*%
%TF.SameCoordinates,Original*%
%TF.FileFunction,Copper,L1,Top*%
%TF.FilePolarity,Positive*%
%FSLAX46Y46*%
G04 Gerber Fmt 4.6, Leading zero omitted, Abs format (unit mm)*
G04 Created by KiCad (PCBNEW (5.1.6)-1) date 2020-05-26 21:01:59*
%MOMM*%
%LPD*%
G01*
G04 APERTURE LIST*
%TA.AperFunction,ComponentPad*%
%ADD10O,1.700000X1.700000*%
%TD*%
%TA.AperFunction,ComponentPad*%
%ADD11R,1.700000X1.700000*%
%TD*%
%TA.AperFunction,ComponentPad*%
%ADD12C,0.100000*%
%TD*%
%TA.AperFunction,ComponentPad*%
%ADD13C,1.800000*%
%TD*%
%TA.AperFunction,Conductor*%
%ADD14C,0.250000*%
%TD*%
G04 APERTURE END LIST*
D10*
%TO.P,J1,9*%
%TO.N,N/C*%
X141320000Y-77000000D03*
%TO.P,J1,8*%
%TO.N,/C7*%
X138780000Y-77000000D03*
%TO.P,J1,7*%
%TO.N,/C6*%
X136240000Y-77000000D03*
%TO.P,J1,6*%
%TO.N,/C5*%
X133700000Y-77000000D03*
%TO.P,J1,5*%
%TO.N,/C4*%
X131160000Y-77000000D03*
%TO.P,J1,4*%
%TO.N,/C3*%
X128620000Y-77000000D03*
%TO.P,J1,3*%
%TO.N,/C2*%
X126080000Y-77000000D03*
%TO.P,J1,2*%
%TO.N,/C1*%
X123540000Y-77000000D03*
D11*
%TO.P,J1,1*%
%TO.N,/C0*%
X121000000Y-77000000D03*
%TD*%
%TA.AperFunction,ComponentPad*%
D12*
%TO.P,D1,1*%
%TO.N,/R0*%
G36*
X104000000Y-83272792D02*
G01*
X102727208Y-82000000D01*
X104000000Y-80727208D01*
X105272792Y-82000000D01*
X104000000Y-83272792D01*
G37*
%TD.AperFunction*%
D13*
%TO.P,D1,2*%
%TO.N,/C0*%
X105796051Y-80203949D03*
%TD*%
%TO.P,D2,2*%
%TO.N,/C1*%
X112796051Y-80203949D03*
%TA.AperFunction,ComponentPad*%
D12*
%TO.P,D2,1*%
%TO.N,/R0*%
G36*
X111000000Y-83272792D02*
G01*
X109727208Y-82000000D01*
X111000000Y-80727208D01*
X112272792Y-82000000D01*
X111000000Y-83272792D01*
G37*
%TD.AperFunction*%
%TD*%
%TA.AperFunction,ComponentPad*%
%TO.P,D3,1*%
%TO.N,/R0*%
G36*
X118000000Y-83272792D02*
G01*
X116727208Y-82000000D01*
X118000000Y-80727208D01*
X119272792Y-82000000D01*
X118000000Y-83272792D01*
G37*
%TD.AperFunction*%
D13*
%TO.P,D3,2*%
%TO.N,/C2*%
X119796051Y-80203949D03*
%TD*%
%TO.P,D4,2*%
%TO.N,/C3*%
X126796051Y-80203949D03*
%TA.AperFunction,ComponentPad*%
D12*
%TO.P,D4,1*%
%TO.N,/R0*%
G36*
X125000000Y-83272792D02*
G01*
X123727208Y-82000000D01*
X125000000Y-80727208D01*
X126272792Y-82000000D01*
X125000000Y-83272792D01*
G37*
%TD.AperFunction*%
%TD*%
D13*
%TO.P,D5,2*%
%TO.N,/C4*%
X133796051Y-80203949D03*
%TA.AperFunction,ComponentPad*%
D12*
%TO.P,D5,1*%
%TO.N,/R0*%
G36*
X132000000Y-83272792D02*
G01*
X130727208Y-82000000D01*
X132000000Y-80727208D01*
X133272792Y-82000000D01*
X132000000Y-83272792D01*
G37*
%TD.AperFunction*%
%TD*%
%TA.AperFunction,ComponentPad*%
%TO.P,D6,1*%
%TO.N,/R0*%
G36*
X139000000Y-83272792D02*
G01*
X137727208Y-82000000D01*
X139000000Y-80727208D01*
X140272792Y-82000000D01*
X139000000Y-83272792D01*
G37*
%TD.AperFunction*%
D13*
%TO.P,D6,2*%
%TO.N,/C5*%
X140796051Y-80203949D03*
%TD*%
%TA.AperFunction,ComponentPad*%
D12*
%TO.P,D7,1*%
%TO.N,/R0*%
G36*
X146000000Y-83272792D02*
G01*
X144727208Y-82000000D01*
X146000000Y-80727208D01*
X147272792Y-82000000D01*
X146000000Y-83272792D01*
G37*
%TD.AperFunction*%
D13*
%TO.P,D7,2*%
%TO.N,/C6*%
X147796051Y-80203949D03*
%TD*%
%TO.P,D8,2*%
%TO.N,/C7*%
X154796051Y-80203949D03*
%TA.AperFunction,ComponentPad*%
D12*
%TO.P,D8,1*%
%TO.N,/R0*%
G36*
X153000000Y-83272792D02*
G01*
X151727208Y-82000000D01*
X153000000Y-80727208D01*
X154272792Y-82000000D01*
X153000000Y-83272792D01*
G37*
%TD.AperFunction*%
%TD*%
%TA.AperFunction,ComponentPad*%
%TO.P,D9,1*%
%TO.N,/R1*%
G36*
X104000000Y-90272792D02*
G01*
X102727208Y-89000000D01*
X104000000Y-87727208D01*
X105272792Y-89000000D01*
X104000000Y-90272792D01*
G37*
%TD.AperFunction*%
D13*
%TO.P,D9,2*%
%TO.N,/C0*%
X105796051Y-87203949D03*
%TD*%
%TO.P,D10,2*%
%TO.N,/C1*%
X112796051Y-87203949D03*
%TA.AperFunction,ComponentPad*%
D12*
%TO.P,D10,1*%
%TO.N,/R1*%
G36*
X111000000Y-90272792D02*
G01*
X109727208Y-89000000D01*
X111000000Y-87727208D01*
X112272792Y-89000000D01*
X111000000Y-90272792D01*
G37*
%TD.AperFunction*%
%TD*%
%TA.AperFunction,ComponentPad*%
%TO.P,D11,1*%
%TO.N,/R1*%
G36*
X118000000Y-90272792D02*
G01*
X116727208Y-89000000D01*
X118000000Y-87727208D01*
X119272792Y-89000000D01*
X118000000Y-90272792D01*
G37*
%TD.AperFunction*%
D13*
%TO.P,D11,2*%
%TO.N,/C2*%
X119796051Y-87203949D03*
%TD*%
%TO.P,D12,2*%
%TO.N,/C3*%
X126796051Y-87203949D03*
%TA.AperFunction,ComponentPad*%
D12*
%TO.P,D12,1*%
%TO.N,/R1*%
G36*
X125000000Y-90272792D02*
G01*
X123727208Y-89000000D01*
X125000000Y-87727208D01*
X126272792Y-89000000D01*
X125000000Y-90272792D01*
G37*
%TD.AperFunction*%
%TD*%
%TA.AperFunction,ComponentPad*%
%TO.P,D13,1*%
%TO.N,/R1*%
G36*
X132000000Y-90272792D02*
G01*
X130727208Y-89000000D01*
X132000000Y-87727208D01*
X133272792Y-89000000D01*
X132000000Y-90272792D01*
G37*
%TD.AperFunction*%
D13*
%TO.P,D13,2*%
%TO.N,/C4*%
X133796051Y-87203949D03*
%TD*%
%TO.P,D14,2*%
%TO.N,/C5*%
X140796051Y-87203949D03*
%TA.AperFunction,ComponentPad*%
D12*
%TO.P,D14,1*%
%TO.N,/R1*%
G36*
X139000000Y-90272792D02*
G01*
X137727208Y-89000000D01*
X139000000Y-87727208D01*
X140272792Y-89000000D01*
X139000000Y-90272792D01*
G37*
%TD.AperFunction*%
%TD*%
%TA.AperFunction,ComponentPad*%
%TO.P,D15,1*%
%TO.N,/R1*%
G36*
X146000000Y-90272792D02*
G01*
X144727208Y-89000000D01*
X146000000Y-87727208D01*
X147272792Y-89000000D01*
X146000000Y-90272792D01*
G37*
%TD.AperFunction*%
D13*
%TO.P,D15,2*%
%TO.N,/C6*%
X147796051Y-87203949D03*
%TD*%
%TO.P,D16,2*%
%TO.N,/C7*%
X154796051Y-87203949D03*
%TA.AperFunction,ComponentPad*%
D12*
%TO.P,D16,1*%
%TO.N,/R1*%
G36*
X153000000Y-90272792D02*
G01*
X151727208Y-89000000D01*
X153000000Y-87727208D01*
X154272792Y-89000000D01*
X153000000Y-90272792D01*
G37*
%TD.AperFunction*%
%TD*%
%TA.AperFunction,ComponentPad*%
%TO.P,D17,1*%
%TO.N,/R2*%
G36*
X104000000Y-97272792D02*
G01*
X102727208Y-96000000D01*
X104000000Y-94727208D01*
X105272792Y-96000000D01*
X104000000Y-97272792D01*
G37*
%TD.AperFunction*%
D13*
%TO.P,D17,2*%
%TO.N,/C0*%
X105796051Y-94203949D03*
%TD*%
%TO.P,D18,2*%
%TO.N,/C1*%
X112796051Y-94203949D03*
%TA.AperFunction,ComponentPad*%
D12*
%TO.P,D18,1*%
%TO.N,/R2*%
G36*
X111000000Y-97272792D02*
G01*
X109727208Y-96000000D01*
X111000000Y-94727208D01*
X112272792Y-96000000D01*
X111000000Y-97272792D01*
G37*
%TD.AperFunction*%
%TD*%
%TA.AperFunction,ComponentPad*%
%TO.P,D19,1*%
%TO.N,/R2*%
G36*
X118000000Y-97272792D02*
G01*
X116727208Y-96000000D01*
X118000000Y-94727208D01*
X119272792Y-96000000D01*
X118000000Y-97272792D01*
G37*
%TD.AperFunction*%
D13*
%TO.P,D19,2*%
%TO.N,/C2*%
X119796051Y-94203949D03*
%TD*%
%TO.P,D20,2*%
%TO.N,/C3*%
X126796051Y-94203949D03*
%TA.AperFunction,ComponentPad*%
D12*
%TO.P,D20,1*%
%TO.N,/R2*%
G36*
X125000000Y-97272792D02*
G01*
X123727208Y-96000000D01*
X125000000Y-94727208D01*
X126272792Y-96000000D01*
X125000000Y-97272792D01*
G37*
%TD.AperFunction*%
%TD*%
D13*
%TO.P,D21,2*%
%TO.N,/C4*%
X133796051Y-94203949D03*
%TA.AperFunction,ComponentPad*%
D12*
%TO.P,D21,1*%
%TO.N,/R2*%
G36*
X132000000Y-97272792D02*
G01*
X130727208Y-96000000D01*
X132000000Y-94727208D01*
X133272792Y-96000000D01*
X132000000Y-97272792D01*
G37*
%TD.AperFunction*%
%TD*%
%TA.AperFunction,ComponentPad*%
%TO.P,D22,1*%
%TO.N,/R2*%
G36*
X139000000Y-97272792D02*
G01*
X137727208Y-96000000D01*
X139000000Y-94727208D01*
X140272792Y-96000000D01*
X139000000Y-97272792D01*
G37*
%TD.AperFunction*%
D13*
%TO.P,D22,2*%
%TO.N,/C5*%
X140796051Y-94203949D03*
%TD*%
%TA.AperFunction,ComponentPad*%
D12*
%TO.P,D23,1*%
%TO.N,/R2*%
G36*
X146000000Y-97272792D02*
G01*
X144727208Y-96000000D01*
X146000000Y-94727208D01*
X147272792Y-96000000D01*
X146000000Y-97272792D01*
G37*
%TD.AperFunction*%
D13*
%TO.P,D23,2*%
%TO.N,/C6*%
X147796051Y-94203949D03*
%TD*%
%TO.P,D24,2*%
%TO.N,/C7*%
X154796051Y-94203949D03*
%TA.AperFunction,ComponentPad*%
D12*
%TO.P,D24,1*%
%TO.N,/R2*%
G36*
X153000000Y-97272792D02*
G01*
X151727208Y-96000000D01*
X153000000Y-94727208D01*
X154272792Y-96000000D01*
X153000000Y-97272792D01*
G37*
%TD.AperFunction*%
%TD*%
%TA.AperFunction,ComponentPad*%
%TO.P,D25,1*%
%TO.N,/R3*%
G36*
X104000000Y-104272792D02*
G01*
X102727208Y-103000000D01*
X104000000Y-101727208D01*
X105272792Y-103000000D01*
X104000000Y-104272792D01*
G37*
%TD.AperFunction*%
D13*
%TO.P,D25,2*%
%TO.N,/C0*%
X105796051Y-101203949D03*
%TD*%
%TO.P,D26,2*%
%TO.N,/C1*%
X112796051Y-101203949D03*
%TA.AperFunction,ComponentPad*%
D12*
%TO.P,D26,1*%
%TO.N,/R3*%
G36*
X111000000Y-104272792D02*
G01*
X109727208Y-103000000D01*
X111000000Y-101727208D01*
X112272792Y-103000000D01*
X111000000Y-104272792D01*
G37*
%TD.AperFunction*%
%TD*%
%TA.AperFunction,ComponentPad*%
%TO.P,D27,1*%
%TO.N,/R3*%
G36*
X118000000Y-104272792D02*
G01*
X116727208Y-103000000D01*
X118000000Y-101727208D01*
X119272792Y-103000000D01*
X118000000Y-104272792D01*
G37*
%TD.AperFunction*%
D13*
%TO.P,D27,2*%
%TO.N,/C2*%
X119796051Y-101203949D03*
%TD*%
%TA.AperFunction,ComponentPad*%
D12*
%TO.P,D28,1*%
%TO.N,/R3*%
G36*
X125000000Y-104272792D02*
G01*
X123727208Y-103000000D01*
X125000000Y-101727208D01*
X126272792Y-103000000D01*
X125000000Y-104272792D01*
G37*
%TD.AperFunction*%
D13*
%TO.P,D28,2*%
%TO.N,/C3*%
X126796051Y-101203949D03*
%TD*%
%TA.AperFunction,ComponentPad*%
D12*
%TO.P,D29,1*%
%TO.N,/R3*%
G36*
X132000000Y-104272792D02*
G01*
X130727208Y-103000000D01*
X132000000Y-101727208D01*
X133272792Y-103000000D01*
X132000000Y-104272792D01*
G37*
%TD.AperFunction*%
D13*
%TO.P,D29,2*%
%TO.N,/C4*%
X133796051Y-101203949D03*
%TD*%
%TO.P,D30,2*%
%TO.N,/C5*%
X140796051Y-101203949D03*
%TA.AperFunction,ComponentPad*%
D12*
%TO.P,D30,1*%
%TO.N,/R3*%
G36*
X139000000Y-104272792D02*
G01*
X137727208Y-103000000D01*
X139000000Y-101727208D01*
X140272792Y-103000000D01*
X139000000Y-104272792D01*
G37*
%TD.AperFunction*%
%TD*%
%TA.AperFunction,ComponentPad*%
%TO.P,D31,1*%
%TO.N,/R3*%
G36*
X146000000Y-104272792D02*
G01*
X144727208Y-103000000D01*
X146000000Y-101727208D01*
X147272792Y-103000000D01*
X146000000Y-104272792D01*
G37*
%TD.AperFunction*%
D13*
%TO.P,D31,2*%
%TO.N,/C6*%
X147796051Y-101203949D03*
%TD*%
%TO.P,D32,2*%
%TO.N,/C7*%
X154796051Y-101203949D03*
%TA.AperFunction,ComponentPad*%
D12*
%TO.P,D32,1*%
%TO.N,/R3*%
G36*
X153000000Y-104272792D02*
G01*
X151727208Y-103000000D01*
X153000000Y-101727208D01*
X154272792Y-103000000D01*
X153000000Y-104272792D01*
G37*
%TD.AperFunction*%
%TD*%
%TA.AperFunction,ComponentPad*%
%TO.P,D33,1*%
%TO.N,/R4*%
G36*
X104000000Y-111272792D02*
G01*
X102727208Y-110000000D01*
X104000000Y-108727208D01*
X105272792Y-110000000D01*
X104000000Y-111272792D01*
G37*
%TD.AperFunction*%
D13*
%TO.P,D33,2*%
%TO.N,/C0*%
X105796051Y-108203949D03*
%TD*%
%TO.P,D34,2*%
%TO.N,/C1*%
X112796051Y-108203949D03*
%TA.AperFunction,ComponentPad*%
D12*
%TO.P,D34,1*%
%TO.N,/R4*%
G36*
X111000000Y-111272792D02*
G01*
X109727208Y-110000000D01*
X111000000Y-108727208D01*
X112272792Y-110000000D01*
X111000000Y-111272792D01*
G37*
%TD.AperFunction*%
%TD*%
%TA.AperFunction,ComponentPad*%
%TO.P,D35,1*%
%TO.N,/R4*%
G36*
X118000000Y-111272792D02*
G01*
X116727208Y-110000000D01*
X118000000Y-108727208D01*
X119272792Y-110000000D01*
X118000000Y-111272792D01*
G37*
%TD.AperFunction*%
D13*
%TO.P,D35,2*%
%TO.N,/C2*%
X119796051Y-108203949D03*
%TD*%
%TO.P,D36,2*%
%TO.N,/C3*%
X126796051Y-108203949D03*
%TA.AperFunction,ComponentPad*%
D12*
%TO.P,D36,1*%
%TO.N,/R4*%
G36*
X125000000Y-111272792D02*
G01*
X123727208Y-110000000D01*
X125000000Y-108727208D01*
X126272792Y-110000000D01*
X125000000Y-111272792D01*
G37*
%TD.AperFunction*%
%TD*%
D13*
%TO.P,D37,2*%
%TO.N,/C4*%
X133796051Y-108203949D03*
%TA.AperFunction,ComponentPad*%
D12*
%TO.P,D37,1*%
%TO.N,/R4*%
G36*
X132000000Y-111272792D02*
G01*
X130727208Y-110000000D01*
X132000000Y-108727208D01*
X133272792Y-110000000D01*
X132000000Y-111272792D01*
G37*
%TD.AperFunction*%
%TD*%
D13*
%TO.P,D38,2*%
%TO.N,/C5*%
X140796051Y-108203949D03*
%TA.AperFunction,ComponentPad*%
D12*
%TO.P,D38,1*%
%TO.N,/R4*%
G36*
X139000000Y-111272792D02*
G01*
X137727208Y-110000000D01*
X139000000Y-108727208D01*
X140272792Y-110000000D01*
X139000000Y-111272792D01*
G37*
%TD.AperFunction*%
%TD*%
%TA.AperFunction,ComponentPad*%
%TO.P,D39,1*%
%TO.N,/R4*%
G36*
X146000000Y-111272792D02*
G01*
X144727208Y-110000000D01*
X146000000Y-108727208D01*
X147272792Y-110000000D01*
X146000000Y-111272792D01*
G37*
%TD.AperFunction*%
D13*
%TO.P,D39,2*%
%TO.N,/C6*%
X147796051Y-108203949D03*
%TD*%
%TO.P,D40,2*%
%TO.N,/C7*%
X154796051Y-108203949D03*
%TA.AperFunction,ComponentPad*%
D12*
%TO.P,D40,1*%
%TO.N,/R4*%
G36*
X153000000Y-111272792D02*
G01*
X151727208Y-110000000D01*
X153000000Y-108727208D01*
X154272792Y-110000000D01*
X153000000Y-111272792D01*
G37*
%TD.AperFunction*%
%TD*%
%TA.AperFunction,ComponentPad*%
%TO.P,D41,1*%
%TO.N,/R5*%
G36*
X104000000Y-118272792D02*
G01*
X102727208Y-117000000D01*
X104000000Y-115727208D01*
X105272792Y-117000000D01*
X104000000Y-118272792D01*
G37*
%TD.AperFunction*%
D13*
%TO.P,D41,2*%
%TO.N,/C0*%
X105796051Y-115203949D03*
%TD*%
%TO.P,D42,2*%
%TO.N,/C1*%
X112796051Y-115203949D03*
%TA.AperFunction,ComponentPad*%
D12*
%TO.P,D42,1*%
%TO.N,/R5*%
G36*
X111000000Y-118272792D02*
G01*
X109727208Y-117000000D01*
X111000000Y-115727208D01*
X112272792Y-117000000D01*
X111000000Y-118272792D01*
G37*
%TD.AperFunction*%
%TD*%
%TA.AperFunction,ComponentPad*%
%TO.P,D43,1*%
%TO.N,/R5*%
G36*
X118000000Y-118272792D02*
G01*
X116727208Y-117000000D01*
X118000000Y-115727208D01*
X119272792Y-117000000D01*
X118000000Y-118272792D01*
G37*
%TD.AperFunction*%
D13*
%TO.P,D43,2*%
%TO.N,/C2*%
X119796051Y-115203949D03*
%TD*%
%TO.P,D44,2*%
%TO.N,/C3*%
X126796051Y-115203949D03*
%TA.AperFunction,ComponentPad*%
D12*
%TO.P,D44,1*%
%TO.N,/R5*%
G36*
X125000000Y-118272792D02*
G01*
X123727208Y-117000000D01*
X125000000Y-115727208D01*
X126272792Y-117000000D01*
X125000000Y-118272792D01*
G37*
%TD.AperFunction*%
%TD*%
%TA.AperFunction,ComponentPad*%
%TO.P,D45,1*%
%TO.N,/R5*%
G36*
X132000000Y-118272792D02*
G01*
X130727208Y-117000000D01*
X132000000Y-115727208D01*
X133272792Y-117000000D01*
X132000000Y-118272792D01*
G37*
%TD.AperFunction*%
D13*
%TO.P,D45,2*%
%TO.N,/C4*%
X133796051Y-115203949D03*
%TD*%
%TO.P,D46,2*%
%TO.N,/C5*%
X140796051Y-115203949D03*
%TA.AperFunction,ComponentPad*%
D12*
%TO.P,D46,1*%
%TO.N,/R5*%
G36*
X139000000Y-118272792D02*
G01*
X137727208Y-117000000D01*
X139000000Y-115727208D01*
X140272792Y-117000000D01*
X139000000Y-118272792D01*
G37*
%TD.AperFunction*%
%TD*%
%TA.AperFunction,ComponentPad*%
%TO.P,D47,1*%
%TO.N,/R5*%
G36*
X146000000Y-118272792D02*
G01*
X144727208Y-117000000D01*
X146000000Y-115727208D01*
X147272792Y-117000000D01*
X146000000Y-118272792D01*
G37*
%TD.AperFunction*%
D13*
%TO.P,D47,2*%
%TO.N,/C6*%
X147796051Y-115203949D03*
%TD*%
%TO.P,D48,2*%
%TO.N,/C7*%
X154796051Y-115203949D03*
%TA.AperFunction,ComponentPad*%
D12*
%TO.P,D48,1*%
%TO.N,/R5*%
G36*
X153000000Y-118272792D02*
G01*
X151727208Y-117000000D01*
X153000000Y-115727208D01*
X154272792Y-117000000D01*
X153000000Y-118272792D01*
G37*
%TD.AperFunction*%
%TD*%
%TA.AperFunction,ComponentPad*%
%TO.P,D49,1*%
%TO.N,/R6*%
G36*
X104000000Y-125272792D02*
G01*
X102727208Y-124000000D01*
X104000000Y-122727208D01*
X105272792Y-124000000D01*
X104000000Y-125272792D01*
G37*
%TD.AperFunction*%
D13*
%TO.P,D49,2*%
%TO.N,/C0*%
X105796051Y-122203949D03*
%TD*%
%TO.P,D50,2*%
%TO.N,/C1*%
X112796051Y-122203949D03*
%TA.AperFunction,ComponentPad*%
D12*
%TO.P,D50,1*%
%TO.N,/R6*%
G36*
X111000000Y-125272792D02*
G01*
X109727208Y-124000000D01*
X111000000Y-122727208D01*
X112272792Y-124000000D01*
X111000000Y-125272792D01*
G37*
%TD.AperFunction*%
%TD*%
%TA.AperFunction,ComponentPad*%
%TO.P,D51,1*%
%TO.N,/R6*%
G36*
X118000000Y-125272792D02*
G01*
X116727208Y-124000000D01*
X118000000Y-122727208D01*
X119272792Y-124000000D01*
X118000000Y-125272792D01*
G37*
%TD.AperFunction*%
D13*
%TO.P,D51,2*%
%TO.N,/C2*%
X119796051Y-122203949D03*
%TD*%
%TO.P,D52,2*%
%TO.N,/C3*%
X126796051Y-122203949D03*
%TA.AperFunction,ComponentPad*%
D12*
%TO.P,D52,1*%
%TO.N,/R6*%
G36*
X125000000Y-125272792D02*
G01*
X123727208Y-124000000D01*
X125000000Y-122727208D01*
X126272792Y-124000000D01*
X125000000Y-125272792D01*
G37*
%TD.AperFunction*%
%TD*%
%TA.AperFunction,ComponentPad*%
%TO.P,D53,1*%
%TO.N,/R6*%
G36*
X132000000Y-125272792D02*
G01*
X130727208Y-124000000D01*
X132000000Y-122727208D01*
X133272792Y-124000000D01*
X132000000Y-125272792D01*
G37*
%TD.AperFunction*%
D13*
%TO.P,D53,2*%
%TO.N,/C4*%
X133796051Y-122203949D03*
%TD*%
%TO.P,D54,2*%
%TO.N,/C5*%
X140796051Y-122203949D03*
%TA.AperFunction,ComponentPad*%
D12*
%TO.P,D54,1*%
%TO.N,/R6*%
G36*
X139000000Y-125272792D02*
G01*
X137727208Y-124000000D01*
X139000000Y-122727208D01*
X140272792Y-124000000D01*
X139000000Y-125272792D01*
G37*
%TD.AperFunction*%
%TD*%
%TA.AperFunction,ComponentPad*%
%TO.P,D55,1*%
%TO.N,/R6*%
G36*
X146000000Y-125272792D02*
G01*
X144727208Y-124000000D01*
X146000000Y-122727208D01*
X147272792Y-124000000D01*
X146000000Y-125272792D01*
G37*
%TD.AperFunction*%
D13*
%TO.P,D55,2*%
%TO.N,/C6*%
X147796051Y-122203949D03*
%TD*%
%TO.P,D56,2*%
%TO.N,/C7*%
X154796051Y-122203949D03*
%TA.AperFunction,ComponentPad*%
D12*
%TO.P,D56,1*%
%TO.N,/R6*%
G36*
X153000000Y-125272792D02*
G01*
X151727208Y-124000000D01*
X153000000Y-122727208D01*
X154272792Y-124000000D01*
X153000000Y-125272792D01*
G37*
%TD.AperFunction*%
%TD*%
%TA.AperFunction,ComponentPad*%
%TO.P,D57,1*%
%TO.N,/R7*%
G36*
X104000000Y-132272792D02*
G01*
X102727208Y-131000000D01*
X104000000Y-129727208D01*
X105272792Y-131000000D01*
X104000000Y-132272792D01*
G37*
%TD.AperFunction*%
D13*
%TO.P,D57,2*%
%TO.N,/C0*%
X105796051Y-129203949D03*
%TD*%
%TO.P,D58,2*%
%TO.N,/C1*%
X112796051Y-129203949D03*
%TA.AperFunction,ComponentPad*%
D12*
%TO.P,D58,1*%
%TO.N,/R7*%
G36*
X111000000Y-132272792D02*
G01*
X109727208Y-131000000D01*
X111000000Y-129727208D01*
X112272792Y-131000000D01*
X111000000Y-132272792D01*
G37*
%TD.AperFunction*%
%TD*%
%TA.AperFunction,ComponentPad*%
%TO.P,D59,1*%
%TO.N,/R7*%
G36*
X118000000Y-132272792D02*
G01*
X116727208Y-131000000D01*
X118000000Y-129727208D01*
X119272792Y-131000000D01*
X118000000Y-132272792D01*
G37*
%TD.AperFunction*%
D13*
%TO.P,D59,2*%
%TO.N,/C2*%
X119796051Y-129203949D03*
%TD*%
%TO.P,D60,2*%
%TO.N,/C3*%
X126796051Y-129203949D03*
%TA.AperFunction,ComponentPad*%
D12*
%TO.P,D60,1*%
%TO.N,/R7*%
G36*
X125000000Y-132272792D02*
G01*
X123727208Y-131000000D01*
X125000000Y-129727208D01*
X126272792Y-131000000D01*
X125000000Y-132272792D01*
G37*
%TD.AperFunction*%
%TD*%
%TA.AperFunction,ComponentPad*%
%TO.P,D61,1*%
%TO.N,/R7*%
G36*
X132000000Y-132272792D02*
G01*
X130727208Y-131000000D01*
X132000000Y-129727208D01*
X133272792Y-131000000D01*
X132000000Y-132272792D01*
G37*
%TD.AperFunction*%
D13*
%TO.P,D61,2*%
%TO.N,/C4*%
X133796051Y-129203949D03*
%TD*%
%TO.P,D62,2*%
%TO.N,/C5*%
X140796051Y-129203949D03*
%TA.AperFunction,ComponentPad*%
D12*
%TO.P,D62,1*%
%TO.N,/R7*%
G36*
X139000000Y-132272792D02*
G01*
X137727208Y-131000000D01*
X139000000Y-129727208D01*
X140272792Y-131000000D01*
X139000000Y-132272792D01*
G37*
%TD.AperFunction*%
%TD*%
%TA.AperFunction,ComponentPad*%
%TO.P,D63,1*%
%TO.N,/R7*%
G36*
X146000000Y-132272792D02*
G01*
X144727208Y-131000000D01*
X146000000Y-129727208D01*
X147272792Y-131000000D01*
X146000000Y-132272792D01*
G37*
%TD.AperFunction*%
D13*
%TO.P,D63,2*%
%TO.N,/C6*%
X147796051Y-129203949D03*
%TD*%
%TO.P,D64,2*%
%TO.N,/C7*%
X154796051Y-129203949D03*
%TA.AperFunction,ComponentPad*%
D12*
%TO.P,D64,1*%
%TO.N,/R7*%
G36*
X153000000Y-132272792D02*
G01*
X151727208Y-131000000D01*
X153000000Y-129727208D01*
X154272792Y-131000000D01*
X153000000Y-132272792D01*
G37*
%TD.AperFunction*%
%TD*%
D11*
%TO.P,J2,1*%
%TO.N,/R0*%
X158500000Y-95500000D03*
D10*
%TO.P,J2,2*%
%TO.N,/R1*%
X158500000Y-98040000D03*
%TO.P,J2,3*%
%TO.N,/R2*%
X158500000Y-100580000D03*
%TO.P,J2,4*%
%TO.N,/R3*%
X158500000Y-103120000D03*
%TO.P,J2,5*%
%TO.N,/R4*%
X158500000Y-105660000D03*
%TO.P,J2,6*%
%TO.N,/R5*%
X158500000Y-108200000D03*
%TO.P,J2,7*%
%TO.N,/R6*%
X158500000Y-110740000D03*
%TO.P,J2,8*%
%TO.N,/R7*%
X158500000Y-113280000D03*
%TD*%
%TO.P,J3,8*%
%TO.N,/R0*%
X100500000Y-97220000D03*
%TO.P,J3,7*%
%TO.N,/R1*%
X100500000Y-99760000D03*
%TO.P,J3,6*%
%TO.N,/R2*%
X100500000Y-102300000D03*
%TO.P,J3,5*%
%TO.N,/R3*%
X100500000Y-104840000D03*
%TO.P,J3,4*%
%TO.N,/R4*%
X100500000Y-107380000D03*
%TO.P,J3,3*%
%TO.N,/R5*%
X100500000Y-109920000D03*
%TO.P,J3,2*%
%TO.N,/R6*%
X100500000Y-112460000D03*
D11*
%TO.P,J3,1*%
%TO.N,/R7*%
X100500000Y-115000000D03*
%TD*%
D10*
%TO.P,J4,8*%
%TO.N,/C0*%
X120720000Y-134500000D03*
%TO.P,J4,7*%
%TO.N,/C1*%
X123260000Y-134500000D03*
%TO.P,J4,6*%
%TO.N,/C2*%
X125800000Y-134500000D03*
%TO.P,J4,5*%
%TO.N,/C3*%
X128340000Y-134500000D03*
%TO.P,J4,4*%
%TO.N,/C4*%
X130880000Y-134500000D03*
%TO.P,J4,3*%
%TO.N,/C5*%
X133420000Y-134500000D03*
%TO.P,J4,2*%
%TO.N,/C6*%
X135960000Y-134500000D03*
D11*
%TO.P,J4,1*%
%TO.N,/C7*%
X138500000Y-134500000D03*
%TD*%
D14*
%TO.N,/C0*%
X105796051Y-80203949D02*
X105796051Y-78203949D01*
X107000000Y-77000000D02*
X121000000Y-77000000D01*
X105796051Y-78203949D02*
X107000000Y-77000000D01*
X111092102Y-134500000D02*
X105796051Y-129203949D01*
X120720000Y-134500000D02*
X111092102Y-134500000D01*
X105796051Y-129203949D02*
X105796051Y-80203949D01*
%TO.N,/C1*%
X112796051Y-80203949D02*
X114500000Y-78500000D01*
X122040000Y-78500000D02*
X123540000Y-77000000D01*
X114500000Y-78500000D02*
X122040000Y-78500000D01*
X123260000Y-134500000D02*
X121760000Y-133000000D01*
X116592102Y-133000000D02*
X112796051Y-129203949D01*
X121760000Y-133000000D02*
X116592102Y-133000000D01*
X112796051Y-120528479D02*
X112796051Y-129203949D01*
X112796051Y-80203949D02*
X112796051Y-120528479D01*
%TO.N,/C2*%
X122876051Y-80203949D02*
X126080000Y-77000000D01*
X119796051Y-80203949D02*
X122876051Y-80203949D01*
X121103949Y-129203949D02*
X119796051Y-129203949D01*
X125800000Y-134500000D02*
X125800000Y-133900000D01*
X125800000Y-133900000D02*
X121103949Y-129203949D01*
X119796051Y-80203949D02*
X119796051Y-129203949D01*
%TO.N,/C3*%
X128620000Y-78380000D02*
X128620000Y-77000000D01*
X126796051Y-80203949D02*
X128620000Y-78380000D01*
X128340000Y-130747898D02*
X126796051Y-129203949D01*
X128340000Y-134500000D02*
X128340000Y-130747898D01*
X126796051Y-80203949D02*
X126796051Y-129203949D01*
%TO.N,/C4*%
X132703949Y-80203949D02*
X133796051Y-80203949D01*
X131160000Y-77000000D02*
X131160000Y-78660000D01*
X131160000Y-78660000D02*
X132703949Y-80203949D01*
X133796051Y-131583949D02*
X133796051Y-129203949D01*
X130880000Y-134500000D02*
X133796051Y-131583949D01*
X133796051Y-80203949D02*
X133796051Y-129203949D01*
%TO.N,/C5*%
X136903949Y-80203949D02*
X140796051Y-80203949D01*
X133700000Y-77000000D02*
X136903949Y-80203949D01*
X138716051Y-129203949D02*
X140796051Y-129203949D01*
X133420000Y-134500000D02*
X138716051Y-129203949D01*
X140796051Y-80203949D02*
X140796051Y-129203949D01*
%TO.N,/C6*%
X136240000Y-77000000D02*
X138240000Y-79000000D01*
X146571050Y-78978948D02*
X147796051Y-80203949D01*
X138261052Y-78978948D02*
X146571050Y-78978948D01*
X138240000Y-79000000D02*
X138261052Y-78978948D01*
X135960000Y-134500000D02*
X137710000Y-132750000D01*
X137710000Y-132750000D02*
X141500000Y-132750000D01*
X145046051Y-129203949D02*
X147796051Y-129203949D01*
X141500000Y-132750000D02*
X145046051Y-129203949D01*
X147796051Y-80203949D02*
X147796051Y-129203949D01*
%TO.N,/C7*%
X152842102Y-78250000D02*
X154796051Y-80203949D01*
X138780000Y-77000000D02*
X140030000Y-78250000D01*
X140030000Y-78250000D02*
X152842102Y-78250000D01*
X154796051Y-131953949D02*
X154796051Y-129203949D01*
X138500000Y-134500000D02*
X152250000Y-134500000D01*
X152250000Y-134500000D02*
X154796051Y-131953949D01*
X154796051Y-80203949D02*
X154796051Y-129203949D01*
%TD*%
M02*
