M48
; DRILL file {KiCad (5.1.6)-1} date 05/26/20 21:02:10
; FORMAT={-:-/ absolute / inch / decimal}
; #@! TF.CreationDate,2020-05-26T21:02:10-04:00
; #@! TF.GenerationSoftware,Kicad,Pcbnew,(5.1.6)-1
FMAT,2
INCH
T1C0.0354
T2C0.0394
%
G90
G05
T1
X4.9213Y-4.8819
X4.992Y-4.8112
X5.1969Y-5.1575
X5.2676Y-5.0868
X5.748Y-4.8819
X5.8187Y-4.8112
X4.3701Y-4.6063
X4.4408Y-4.5356
X4.6457Y-3.2283
X4.7164Y-3.1576
X4.9213Y-4.0551
X4.992Y-3.9844
X4.3701Y-3.7795
X4.4408Y-3.7088
X4.9213Y-4.3307
X4.992Y-4.26
X4.0945Y-4.3307
X4.1652Y-4.26
X5.4724Y-5.1575
X5.5432Y-5.0868
X4.0945Y-3.2283
X4.1652Y-3.1576
X6.0236Y-4.6063
X6.0943Y-4.5356
X6.0236Y-4.3307
X6.0943Y-4.26
X6.0236Y-4.0551
X6.0943Y-3.9844
X5.1969Y-4.3307
X5.2676Y-4.26
X4.9213Y-3.5039
X4.992Y-3.4332
X4.3701Y-3.5039
X4.4408Y-3.4332
X4.0945Y-4.0551
X4.1652Y-3.9844
X5.4724Y-4.6063
X5.5432Y-4.5356
X4.6457Y-5.1575
X4.7164Y-5.0868
X5.4724Y-4.8819
X5.5432Y-4.8112
X5.748Y-4.3307
X5.8187Y-4.26
X5.748Y-3.7795
X5.8187Y-3.7088
X5.1969Y-3.5039
X5.2676Y-3.4332
X6.0236Y-3.2283
X6.0943Y-3.1576
X4.0945Y-3.5039
X4.1652Y-3.4332
X6.0236Y-3.5039
X6.0943Y-3.4332
X6.0236Y-5.1575
X6.0943Y-5.0868
X5.1969Y-4.8819
X5.2676Y-4.8112
X4.6457Y-4.8819
X4.7164Y-4.8112
X5.4724Y-4.3307
X5.5432Y-4.26
X4.6457Y-3.7795
X4.7164Y-3.7088
X4.6457Y-3.5039
X4.7164Y-3.4332
X5.748Y-3.2283
X5.8187Y-3.1576
X5.4724Y-4.0551
X5.5432Y-3.9844
X5.1969Y-3.2283
X5.2676Y-3.1576
X5.748Y-5.1575
X5.8187Y-5.0868
X4.3701Y-5.1575
X4.4408Y-5.0868
X5.748Y-4.6063
X5.8187Y-4.5356
X4.3701Y-4.3307
X4.4408Y-4.26
X4.9213Y-3.2283
X4.992Y-3.1576
X4.9213Y-3.7795
X4.992Y-3.7088
X4.3701Y-3.2283
X4.4408Y-3.1576
X5.4724Y-3.7795
X5.5432Y-3.7088
X4.6457Y-4.3307
X4.7164Y-4.26
X6.0236Y-4.8819
X6.0943Y-4.8112
X4.0945Y-5.1575
X4.1652Y-5.0868
X4.9213Y-4.6063
X4.992Y-4.5356
X5.748Y-4.0551
X5.8187Y-3.9844
X4.0945Y-4.6063
X4.1652Y-4.5356
X5.1969Y-4.0551
X5.2676Y-3.9844
X5.748Y-3.5039
X5.8187Y-3.4332
X5.1969Y-4.6063
X5.2676Y-4.5356
X5.4724Y-3.2283
X5.5432Y-3.1576
X4.3701Y-4.8819
X4.4408Y-4.8112
X4.9213Y-5.1575
X4.992Y-5.0868
X4.0945Y-4.8819
X4.1652Y-4.8112
X4.6457Y-4.6063
X4.7164Y-4.5356
X4.0945Y-3.7795
X4.1652Y-3.7088
X6.0236Y-3.7795
X6.0943Y-3.7088
X4.6457Y-4.0551
X4.7164Y-3.9844
X5.1969Y-3.7795
X5.2676Y-3.7088
X4.3701Y-4.0551
X4.4408Y-3.9844
X5.4724Y-3.5039
X5.5432Y-3.4332
T2
X4.7528Y-5.2953
X4.8528Y-5.2953
X4.9528Y-5.2953
X5.0528Y-5.2953
X5.1528Y-5.2953
X5.2528Y-5.2953
X5.3528Y-5.2953
X5.4528Y-5.2953
X6.2402Y-3.7598
X6.2402Y-3.8598
X6.2402Y-3.9598
X6.2402Y-4.0598
X6.2402Y-4.1598
X6.2402Y-4.2598
X6.2402Y-4.3598
X6.2402Y-4.4598
X3.9567Y-3.8276
X3.9567Y-3.9276
X3.9567Y-4.0276
X3.9567Y-4.1276
X3.9567Y-4.2276
X3.9567Y-4.3276
X3.9567Y-4.4276
X3.9567Y-4.5276
X4.7638Y-3.0315
X4.8638Y-3.0315
X4.9638Y-3.0315
X5.0638Y-3.0315
X5.1638Y-3.0315
X5.2638Y-3.0315
X5.3638Y-3.0315
X5.4638Y-3.0315
X5.5638Y-3.0315
T0
M30
